<svg width="17200" height="400" viewBox="0 0 17200 400" fill="none" xmlns="http://www.w3.org/2000/svg">
<path d="M11730.5 178.348C11751.3 150.979 11778.7 107.649 11788.1 69C11788.1 69 11900.7 153.839 11896.9 233.021C11896.9 287.686 11853.8 332 11800.6 332C11747.5 332 11693.7 304.329 11704.4 233.021C11707.9 209.769 11720.8 191.231 11730.5 178.348Z" fill="#E3F2FD" stroke="#9BC4F3" stroke-width="5"/>
<path d="M11790.9 76.5415C11790.9 76.5415 11829.6 111.271 11849.1 134.672C11868.7 158.072 11883 187.774 11883 187.774" stroke="#F5FAFF" stroke-width="4.45759" stroke-linecap="round"/>
<path d="M11707.9 224.852C11713.1 199.086 11738.6 170.492 11738.6 170.492C11738.6 170.492 11719 205.37 11720.1 233.336C11721.1 261.301 11724.1 264.894 11729.9 277.64C11735.6 290.387 11742.4 294.34 11755.3 303.72C11768.3 313.101 11789.1 318.675 11802.4 321.002C11815.7 323.33 11835.5 323.202 11835.5 323.202C11835.5 323.202 11822.3 328.858 11809.4 329.8C11796.5 330.743 11787.5 330.098 11774.9 327.601C11762.2 325.104 11754.8 323.404 11743.8 317.232C11732.8 311.059 11725.7 305.484 11718.3 295.237C11711 284.989 11707.4 271.67 11706.1 265.386C11704.9 259.102 11702.6 250.618 11707.9 224.852Z" fill="#CDE6FB"/>
<path d="M11795.5 215.26V237.38" stroke="#02268A" stroke-width="6" stroke-linecap="round"/>
<path d="M11854.5 215.26V237.38" stroke="#02268A" stroke-width="6" stroke-linecap="round"/>
<ellipse cx="10" cy="5.5" rx="10" ry="5.5" transform="matrix(1 0 0 -1 11760 257)" fill="#F2C3CF"/>
<ellipse cx="9" cy="5.5" rx="9" ry="5.5" transform="matrix(1 0 0 -1 11862 260)" fill="#F2C3CF"/>
<path d="M12129.8 178.932C12150.8 151.667 12178.4 108.502 12188 70C12188 70 12301.8 154.516 12297.9 233.398C12297.9 287.854 12254.4 332 12200.6 332C12146.9 332 12092.6 304.434 12103.4 233.398C12106.9 210.234 12119.9 191.766 12129.8 178.932Z" fill="#E3F2FD" stroke="#9BC4F3" stroke-width="5"/>
<path d="M12190.8 77.5127C12190.8 77.5127 12229.9 112.11 12249.6 135.422C12269.4 158.734 12283.8 188.323 12283.8 188.323" stroke="#F5FAFF" stroke-width="4.45759" stroke-linecap="round"/>
<path d="M12106.9 225.259C12112.2 199.592 12137.9 171.106 12137.9 171.106C12137.9 171.106 12118.2 205.852 12119.3 233.711C12120.3 261.57 12123.3 265.149 12129.1 277.847C12135 290.545 12141.8 294.483 12154.9 303.828C12167.9 313.173 12189 318.726 12202.4 321.044C12215.8 323.363 12235.9 323.235 12235.9 323.235C12235.9 323.235 12222.5 328.87 12209.5 329.809C12196.4 330.748 12187.4 330.105 12174.6 327.618C12161.8 325.131 12154.3 323.437 12143.2 317.288C12132.2 311.139 12124.9 305.585 12117.5 295.376C12110.1 285.167 12106.5 271.9 12105.2 265.639C12103.9 259.379 12101.6 250.927 12106.9 225.259Z" fill="#CDE6FB"/>
<path d="M12195.5 215.26V237.38" stroke="#02268A" stroke-width="6" stroke-linecap="round"/>
<path d="M12254.5 215.26V237.38" stroke="#02268A" stroke-width="6" stroke-linecap="round"/>
<ellipse cx="10" cy="5.5" rx="10" ry="5.5" transform="matrix(1 0 0 -1 12160 257)" fill="#F2C3CF"/>
<ellipse cx="9" cy="5.5" rx="9" ry="5.5" transform="matrix(1 0 0 -1 12262 260)" fill="#F2C3CF"/>
<path d="M12529.1 179.516C12550.3 152.356 12578.2 109.355 12587.8 71C12587.8 71 12702.8 155.194 12698.9 233.774C12698.9 288.023 12654.9 332 12600.7 332C12546.4 332 12491.5 304.54 12502.4 233.774C12506 210.699 12519.1 192.301 12529.1 179.516Z" fill="#E3F2FD" stroke="#9BC4F3" stroke-width="5"/>
<path d="M12590.7 78.4844C12590.7 78.4844 12630.2 112.95 12650.1 136.173C12670.1 159.395 12684.7 188.871 12684.7 188.871" stroke="#F5FAFF" stroke-width="4.45759" stroke-linecap="round"/>
<path d="M12506 225.667C12511.3 200.097 12537.3 171.721 12537.3 171.721C12537.3 171.721 12517.4 206.334 12518.4 234.086C12519.5 261.839 12522.5 265.405 12528.4 278.054C12534.3 290.704 12541.2 294.626 12554.4 303.936C12567.6 313.245 12588.9 318.777 12602.5 321.086C12616 323.396 12636.3 323.269 12636.3 323.269C12636.3 323.269 12622.7 328.882 12609.6 329.817C12596.4 330.753 12587.2 330.112 12574.3 327.635C12561.4 325.157 12553.8 323.47 12542.6 317.344C12531.5 311.219 12524.1 305.686 12516.7 295.516C12509.2 285.346 12505.5 272.129 12504.2 265.893C12502.9 259.656 12500.6 251.237 12506 225.667Z" fill="#CDE6FB"/>
<path d="M12595.5 216.26V238.38" stroke="#02268A" stroke-width="6" stroke-linecap="round"/>
<path d="M12654.5 216.26V238.38" stroke="#02268A" stroke-width="6" stroke-linecap="round"/>
<ellipse cx="10" cy="5.5" rx="10" ry="5.5" transform="matrix(1 0 0 -1 12559 257)" fill="#F2C3CF"/>
<ellipse cx="9" cy="5.5" rx="9" ry="5.5" transform="matrix(1 0 0 -1 12663 260)" fill="#F2C3CF"/>
<path d="M12928.4 180.1C12949.8 153.044 12978 110.208 12987.7 72C12987.7 72 13103.9 155.871 13099.9 234.151C13099.9 288.191 13055.5 332 13000.7 332C12945.8 332 12890.4 304.645 12901.4 234.151C12905 211.164 12918.3 192.836 12928.4 180.1Z" fill="#E3F2FD" stroke="#9BC4F3" stroke-width="5"/>
<path d="M12990.6 79.4556C12990.6 79.4556 13030.5 113.789 13050.6 136.923C13070.8 160.056 13085.5 189.42 13085.5 189.42" stroke="#F5FAFF" stroke-width="4.45759" stroke-linecap="round"/>
<path d="M12905 226.074C12910.4 200.602 12936.7 172.334 12936.7 172.334C12936.7 172.334 12916.5 206.814 12917.6 234.461C12918.7 262.107 12921.8 265.659 12927.7 278.26C12933.6 290.861 12940.6 294.769 12953.9 304.042C12967.3 313.316 12988.8 318.827 13002.5 321.127C13016.2 323.428 13036.6 323.302 13036.6 323.302C13036.6 323.302 13023 328.893 13009.7 329.825C12996.4 330.757 12987.1 330.119 12974.1 327.651C12961.1 325.182 12953.4 323.502 12942.1 317.4C12930.8 311.298 12923.4 305.786 12915.8 295.655C12908.3 285.524 12904.5 272.358 12903.2 266.145C12901.9 259.933 12899.6 251.545 12905 226.074Z" fill="#CDE6FB"/>
<path d="M12995.5 216.26V238.38" stroke="#02268A" stroke-width="6" stroke-linecap="round"/>
<path d="M13054.5 216.26V238.38" stroke="#02268A" stroke-width="6" stroke-linecap="round"/>
<ellipse cx="10" cy="5.5" rx="10" ry="5.5" transform="matrix(1 0 0 -1 12959 257)" fill="#F2C3CF"/>
<ellipse cx="9" cy="5.5" rx="9" ry="5.5" transform="matrix(1 0 0 -1 13063 260)" fill="#F2C3CF"/>
<path d="M13328.4 180.685C13349.8 153.732 13378 111.061 13387.7 73C13387.7 73 13503.9 156.548 13499.9 234.527C13499.9 288.36 13455.5 332 13400.7 332C13345.8 332 13290.4 304.75 13301.4 234.527C13305 211.628 13318.3 193.372 13328.4 180.685Z" fill="#E3F2FD" stroke="#9BC4F3" stroke-width="5"/>
<path d="M13390.6 80.4268C13390.6 80.4268 13430.5 114.628 13450.6 137.673C13470.8 160.718 13485.5 189.968 13485.5 189.968" stroke="#F5FAFF" stroke-width="4.45759" stroke-linecap="round"/>
<path d="M13305 226.481C13310.4 201.107 13336.7 172.948 13336.7 172.948C13336.7 172.948 13316.5 207.296 13317.6 234.836C13318.7 262.376 13321.8 265.914 13327.7 278.467C13333.6 291.019 13340.6 294.912 13353.9 304.15C13367.3 313.388 13388.8 318.877 13402.5 321.169C13416.2 323.461 13436.6 323.335 13436.6 323.335C13436.6 323.335 13423 328.905 13409.7 329.834C13396.4 330.762 13387.1 330.126 13374.1 327.667C13361.1 325.209 13353.4 323.534 13342.1 317.456C13330.8 311.378 13323.4 305.887 13315.8 295.795C13308.3 285.703 13304.5 272.587 13303.2 266.399C13301.9 260.21 13299.6 251.855 13305 226.481Z" fill="#CDE6FB"/>
<path d="M13396.5 217.26V239.38" stroke="#02268A" stroke-width="6" stroke-linecap="round"/>
<path d="M13455.5 217.26V239.38" stroke="#02268A" stroke-width="6" stroke-linecap="round"/>
<ellipse cx="10" cy="5.5" rx="10" ry="5.5" transform="matrix(1 0 0 -1 13358 257)" fill="#F2C3CF"/>
<ellipse cx="9" cy="5.5" rx="9" ry="5.5" transform="matrix(1 0 0 -1 13464 260)" fill="#F2C3CF"/>
<path d="M13728.4 181.269C13749.8 154.42 13778 111.914 13787.7 74C13787.7 74 13903.9 157.226 13899.9 234.903C13899.9 288.528 13855.5 332 13800.7 332C13745.8 332 13690.4 304.855 13701.4 234.903C13705 212.093 13718.3 193.907 13728.4 181.269Z" fill="#E3F2FD" stroke="#9BC4F3" stroke-width="5"/>
<path d="M13790.6 81.3984C13790.6 81.3984 13830.5 115.468 13850.6 138.424C13870.8 161.379 13885.5 190.517 13885.5 190.517" stroke="#F5FAFF" stroke-width="4.45759" stroke-linecap="round"/>
<path d="M13705 226.889C13710.4 201.613 13736.7 173.562 13736.7 173.562C13736.7 173.562 13716.5 207.778 13717.6 235.211C13718.7 262.645 13721.8 266.169 13727.7 278.674C13733.6 291.178 13740.6 295.055 13753.9 304.258C13767.3 313.46 13788.8 318.928 13802.5 321.211C13816.2 323.494 13836.6 323.369 13836.6 323.369C13836.6 323.369 13823 328.917 13809.7 329.842C13796.4 330.767 13787.1 330.134 13774.1 327.684C13761.1 325.235 13753.4 323.567 13742.1 317.512C13730.8 311.457 13723.4 305.988 13715.8 295.935C13708.3 285.882 13704.5 272.817 13703.2 266.652C13701.9 260.487 13699.6 252.165 13705 226.889Z" fill="#CDE6FB"/>
<path d="M13796.5 217.26V239.38" stroke="#02268A" stroke-width="6" stroke-linecap="round"/>
<path d="M13855.5 217.26V239.38" stroke="#02268A" stroke-width="6" stroke-linecap="round"/>
<ellipse cx="10" cy="5.5" rx="10" ry="5.5" transform="matrix(1 0 0 -1 13758 257)" fill="#F2C3CF"/>
<ellipse cx="9" cy="5.5" rx="9" ry="5.5" transform="matrix(1 0 0 -1 13864 260)" fill="#F2C3CF"/>
<path d="M14128.4 181.853C14149.8 155.109 14178 112.767 14187.7 75C14187.7 75 14303.9 157.903 14299.9 235.28C14299.9 288.697 14255.5 332 14200.7 332C14145.8 332 14090.4 304.96 14101.4 235.28C14105 212.558 14118.3 194.442 14128.4 181.853Z" fill="#E3F2FD" stroke="#9BC4F3" stroke-width="5"/>
<path d="M14190.6 82.3696C14190.6 82.3696 14230.5 116.307 14250.6 139.174C14270.8 162.04 14285.5 191.065 14285.5 191.065" stroke="#F5FAFF" stroke-width="4.45759" stroke-linecap="round"/>
<path d="M14105 227.296C14110.4 202.118 14136.7 174.177 14136.7 174.177C14136.7 174.177 14116.5 208.259 14117.6 235.587C14118.7 262.914 14121.8 266.425 14127.7 278.88C14133.6 291.336 14140.6 295.199 14153.9 304.366C14167.3 313.532 14188.8 318.979 14202.5 321.253C14216.2 323.527 14236.6 323.403 14236.6 323.403C14236.6 323.403 14223 328.929 14209.7 329.851C14196.4 330.772 14187.1 330.141 14174.1 327.701C14161.1 325.262 14153.4 323.6 14142.1 317.569C14130.8 311.537 14123.4 306.089 14115.8 296.075C14108.3 286.061 14104.5 273.047 14103.2 266.906C14101.9 260.765 14099.6 252.474 14105 227.296Z" fill="#CDE6FB"/>
<path d="M14196.5 218.26V240.38" stroke="#02268A" stroke-width="6" stroke-linecap="round"/>
<path d="M14255.5 218.26V240.38" stroke="#02268A" stroke-width="6" stroke-linecap="round"/>
<ellipse cx="10" cy="5.5" rx="10" ry="5.5" transform="matrix(1 0 0 -1 14157 258)" fill="#F2C3CF"/>
<ellipse cx="9" cy="5.5" rx="9" ry="5.5" transform="matrix(1 0 0 -1 14265 261)" fill="#F2C3CF"/>
<path d="M14528.4 181.853C14549.8 155.109 14578 112.767 14587.7 75C14587.7 75 14703.9 157.903 14699.9 235.28C14699.9 288.697 14655.5 332 14600.7 332C14545.8 332 14490.4 304.96 14501.4 235.28C14505 212.558 14518.3 194.442 14528.4 181.853Z" fill="#E3F2FD" stroke="#9BC4F3" stroke-width="5"/>
<path d="M14590.6 82.3696C14590.6 82.3696 14630.5 116.307 14650.6 139.174C14670.8 162.04 14685.5 191.065 14685.5 191.065" stroke="#F5FAFF" stroke-width="4.45759" stroke-linecap="round"/>
<path d="M14505 227.296C14510.4 202.118 14536.7 174.177 14536.7 174.177C14536.7 174.177 14516.5 208.259 14517.6 235.587C14518.7 262.914 14521.8 266.425 14527.7 278.88C14533.6 291.336 14540.6 295.199 14553.9 304.366C14567.3 313.532 14588.8 318.979 14602.5 321.253C14616.2 323.527 14636.6 323.403 14636.6 323.403C14636.6 323.403 14623 328.929 14609.7 329.851C14596.4 330.772 14587.1 330.141 14574.1 327.701C14561.1 325.262 14553.4 323.6 14542.1 317.569C14530.8 311.537 14523.4 306.089 14515.8 296.075C14508.3 286.061 14504.5 273.047 14503.2 266.906C14501.9 260.765 14499.6 252.474 14505 227.296Z" fill="#CDE6FB"/>
<path d="M14596.5 218.26V240.38" stroke="#02268A" stroke-width="6" stroke-linecap="round"/>
<path d="M14655.5 218.26V240.38" stroke="#02268A" stroke-width="6" stroke-linecap="round"/>
<ellipse cx="10" cy="5.5" rx="10" ry="5.5" transform="matrix(1 0 0 -1 14557 258)" fill="#F2C3CF"/>
<ellipse cx="9" cy="5.5" rx="9" ry="5.5" transform="matrix(1 0 0 -1 14665 261)" fill="#F2C3CF"/>
<path d="M14928.4 181.269C14949.8 154.42 14978 111.914 14987.7 74C14987.7 74 15103.9 157.226 15099.9 234.903C15099.9 288.528 15055.5 332 15000.7 332C14945.8 332 14890.4 304.855 14901.4 234.903C14905 212.093 14918.3 193.907 14928.4 181.269Z" fill="#E3F2FD" stroke="#9BC4F3" stroke-width="5"/>
<path d="M14990.6 81.3984C14990.6 81.3984 15030.5 115.468 15050.6 138.424C15070.8 161.379 15085.5 190.517 15085.5 190.517" stroke="#F5FAFF" stroke-width="4.45759" stroke-linecap="round"/>
<path d="M14905 226.889C14910.4 201.613 14936.7 173.562 14936.7 173.562C14936.7 173.562 14916.5 207.778 14917.6 235.211C14918.7 262.645 14921.8 266.169 14927.7 278.674C14933.6 291.178 14940.6 295.055 14953.9 304.258C14967.3 313.46 14988.8 318.928 15002.5 321.211C15016.2 323.494 15036.6 323.369 15036.6 323.369C15036.6 323.369 15023 328.917 15009.7 329.842C14996.4 330.767 14987.1 330.134 14974.1 327.684C14961.1 325.235 14953.4 323.567 14942.1 317.512C14930.8 311.457 14923.4 305.988 14915.8 295.935C14908.3 285.882 14904.5 272.817 14903.2 266.652C14901.9 260.487 14899.6 252.165 14905 226.889Z" fill="#CDE6FB"/>
<path d="M14996.5 217.26V239.38" stroke="#02268A" stroke-width="6" stroke-linecap="round"/>
<path d="M15055.5 217.26V239.38" stroke="#02268A" stroke-width="6" stroke-linecap="round"/>
<ellipse cx="10" cy="5.5" rx="10" ry="5.5" transform="matrix(1 0 0 -1 14958 257)" fill="#F2C3CF"/>
<ellipse cx="9" cy="5.5" rx="9" ry="5.5" transform="matrix(1 0 0 -1 15064 260)" fill="#F2C3CF"/>
<path d="M15328.4 180.685C15349.8 153.732 15378 111.061 15387.7 73C15387.7 73 15503.9 156.548 15499.9 234.527C15499.9 288.36 15455.5 332 15400.7 332C15345.8 332 15290.4 304.75 15301.4 234.527C15305 211.628 15318.3 193.372 15328.4 180.685Z" fill="#E3F2FD" stroke="#9BC4F3" stroke-width="5"/>
<path d="M15390.6 80.4268C15390.6 80.4268 15430.5 114.628 15450.6 137.673C15470.8 160.718 15485.5 189.968 15485.5 189.968" stroke="#F5FAFF" stroke-width="4.45759" stroke-linecap="round"/>
<path d="M15305 226.481C15310.4 201.107 15336.7 172.948 15336.7 172.948C15336.7 172.948 15316.5 207.296 15317.6 234.836C15318.7 262.376 15321.8 265.914 15327.7 278.467C15333.6 291.019 15340.6 294.912 15353.9 304.15C15367.3 313.388 15388.8 318.877 15402.5 321.169C15416.2 323.461 15436.6 323.335 15436.6 323.335C15436.6 323.335 15423 328.905 15409.7 329.834C15396.4 330.762 15387.1 330.126 15374.1 327.667C15361.1 325.209 15353.4 323.534 15342.1 317.456C15330.8 311.378 15323.4 305.887 15315.8 295.795C15308.3 285.703 15304.5 272.587 15303.2 266.399C15301.9 260.21 15299.6 251.855 15305 226.481Z" fill="#CDE6FB"/>
<path d="M15396.5 217.26V239.38" stroke="#02268A" stroke-width="6" stroke-linecap="round"/>
<path d="M15455.5 217.26V239.38" stroke="#02268A" stroke-width="6" stroke-linecap="round"/>
<ellipse cx="10" cy="5.5" rx="10" ry="5.5" transform="matrix(1 0 0 -1 15358 257)" fill="#F2C3CF"/>
<ellipse cx="9" cy="5.5" rx="9" ry="5.5" transform="matrix(1 0 0 -1 15464 260)" fill="#F2C3CF"/>
<path d="M15728.4 180.1C15749.8 153.044 15778 110.208 15787.7 72C15787.7 72 15903.9 155.871 15899.9 234.151C15899.9 288.191 15855.5 332 15800.7 332C15745.8 332 15690.4 304.645 15701.4 234.151C15705 211.164 15718.3 192.836 15728.4 180.1Z" fill="#E3F2FD" stroke="#9BC4F3" stroke-width="5"/>
<path d="M15790.6 79.4556C15790.6 79.4556 15830.5 113.789 15850.6 136.923C15870.8 160.056 15885.5 189.42 15885.5 189.42" stroke="#F5FAFF" stroke-width="4.45759" stroke-linecap="round"/>
<path d="M15705 226.074C15710.4 200.602 15736.7 172.334 15736.7 172.334C15736.7 172.334 15716.5 206.814 15717.6 234.461C15718.7 262.107 15721.8 265.659 15727.7 278.26C15733.6 290.861 15740.6 294.769 15753.9 304.042C15767.3 313.316 15788.8 318.827 15802.5 321.127C15816.2 323.428 15836.6 323.302 15836.6 323.302C15836.6 323.302 15823 328.893 15809.7 329.825C15796.4 330.757 15787.1 330.119 15774.1 327.651C15761.1 325.182 15753.4 323.502 15742.1 317.4C15730.8 311.298 15723.4 305.786 15715.8 295.655C15708.3 285.524 15704.5 272.358 15703.2 266.145C15701.9 259.933 15699.6 251.545 15705 226.074Z" fill="#CDE6FB"/>
<path d="M15795.5 216.26V238.38" stroke="#02268A" stroke-width="6" stroke-linecap="round"/>
<path d="M15854.5 216.26V238.38" stroke="#02268A" stroke-width="6" stroke-linecap="round"/>
<ellipse cx="10" cy="5.5" rx="10" ry="5.5" transform="matrix(1 0 0 -1 15759 257)" fill="#F2C3CF"/>
<ellipse cx="9" cy="5.5" rx="9" ry="5.5" transform="matrix(1 0 0 -1 15863 260)" fill="#F2C3CF"/>
<path d="M16129.1 179.516C16150.3 152.356 16178.2 109.355 16187.8 71C16187.8 71 16302.8 155.194 16298.9 233.774C16298.9 288.023 16254.9 332 16200.7 332C16146.4 332 16091.5 304.54 16102.4 233.774C16106 210.699 16119.1 192.301 16129.1 179.516Z" fill="#E3F2FD" stroke="#9BC4F3" stroke-width="5"/>
<path d="M16190.7 78.4844C16190.7 78.4844 16230.2 112.95 16250.1 136.173C16270.1 159.395 16284.7 188.871 16284.7 188.871" stroke="#F5FAFF" stroke-width="4.45759" stroke-linecap="round"/>
<path d="M16106 225.667C16111.3 200.097 16137.3 171.721 16137.3 171.721C16137.3 171.721 16117.4 206.334 16118.4 234.086C16119.5 261.839 16122.5 265.405 16128.4 278.054C16134.3 290.704 16141.2 294.626 16154.4 303.936C16167.6 313.245 16188.9 318.777 16202.5 321.086C16216 323.396 16236.3 323.269 16236.3 323.269C16236.3 323.269 16222.7 328.882 16209.6 329.817C16196.4 330.753 16187.2 330.112 16174.3 327.635C16161.4 325.157 16153.8 323.47 16142.6 317.344C16131.5 311.219 16124.1 305.686 16116.7 295.516C16109.2 285.346 16105.5 272.129 16104.2 265.893C16102.9 259.656 16100.6 251.237 16106 225.667Z" fill="#CDE6FB"/>
<path d="M16195.5 216.26V238.38" stroke="#02268A" stroke-width="6" stroke-linecap="round"/>
<path d="M16254.5 216.26V238.38" stroke="#02268A" stroke-width="6" stroke-linecap="round"/>
<ellipse cx="10" cy="5.5" rx="10" ry="5.5" transform="matrix(1 0 0 -1 16159 257)" fill="#F2C3CF"/>
<ellipse cx="9" cy="5.5" rx="9" ry="5.5" transform="matrix(1 0 0 -1 16263 260)" fill="#F2C3CF"/>
<path d="M16529.8 178.932C16550.8 151.667 16578.4 108.502 16588 70C16588 70 16701.8 154.516 16697.9 233.398C16697.9 287.854 16654.4 332 16600.6 332C16546.9 332 16492.6 304.434 16503.4 233.398C16506.9 210.234 16519.9 191.766 16529.8 178.932Z" fill="#E3F2FD" stroke="#9BC4F3" stroke-width="5"/>
<path d="M16590.8 77.5127C16590.8 77.5127 16629.9 112.11 16649.6 135.422C16669.4 158.734 16683.8 188.323 16683.8 188.323" stroke="#F5FAFF" stroke-width="4.45759" stroke-linecap="round"/>
<path d="M16506.9 225.259C16512.2 199.592 16537.9 171.106 16537.9 171.106C16537.9 171.106 16518.2 205.852 16519.3 233.711C16520.3 261.57 16523.3 265.149 16529.1 277.847C16535 290.545 16541.8 294.483 16554.9 303.828C16567.9 313.173 16589 318.726 16602.4 321.044C16615.8 323.363 16635.9 323.235 16635.9 323.235C16635.9 323.235 16622.5 328.87 16609.5 329.809C16596.4 330.748 16587.4 330.105 16574.6 327.618C16561.8 325.131 16554.3 323.437 16543.2 317.288C16532.2 311.139 16524.9 305.585 16517.5 295.376C16510.1 285.167 16506.5 271.9 16505.2 265.639C16503.9 259.379 16501.6 250.927 16506.9 225.259Z" fill="#CDE6FB"/>
<ellipse cx="10" cy="5.5" rx="10" ry="5.5" transform="matrix(1 0 0 -1 16560 257)" fill="#F2C3CF"/>
<ellipse cx="9" cy="5.5" rx="9" ry="5.5" transform="matrix(1 0 0 -1 16662 260)" fill="#F2C3CF"/>
<path d="M16595.5 216.26V238.38" stroke="#02268A" stroke-width="6" stroke-linecap="round"/>
<path d="M16654.5 216.26V238.38" stroke="#02268A" stroke-width="6" stroke-linecap="round"/>
<path d="M16930.5 178.348C16951.3 150.979 16978.7 107.649 16988.1 69C16988.1 69 17100.7 153.839 17096.9 233.021C17096.9 287.686 17053.8 332 17000.6 332C16947.5 332 16893.7 304.329 16904.4 233.021C16907.9 209.769 16920.8 191.231 16930.5 178.348Z" fill="#E3F2FD" stroke="#9BC4F3" stroke-width="5"/>
<path d="M16990.9 76.5415C16990.9 76.5415 17029.6 111.271 17049.1 134.672C17068.7 158.072 17083 187.774 17083 187.774" stroke="#F5FAFF" stroke-width="4.45759" stroke-linecap="round"/>
<path d="M16907.9 224.852C16913.1 199.086 16938.6 170.492 16938.6 170.492C16938.6 170.492 16919 205.37 16920.1 233.336C16921.1 261.301 16924.1 264.894 16929.9 277.64C16935.6 290.387 16942.4 294.34 16955.3 303.72C16968.3 313.101 16989.1 318.675 17002.4 321.002C17015.7 323.33 17035.5 323.202 17035.5 323.202C17035.5 323.202 17022.3 328.858 17009.4 329.8C16996.5 330.743 16987.5 330.098 16974.9 327.601C16962.2 325.104 16954.8 323.404 16943.8 317.232C16932.8 311.059 16925.7 305.484 16918.3 295.237C16911 284.989 16907.4 271.67 16906.1 265.386C16904.9 259.102 16902.6 250.618 16907.9 224.852Z" fill="#CDE6FB"/>
<ellipse cx="10" cy="5.5" rx="10" ry="5.5" transform="matrix(1 0 0 -1 16960 257)" fill="#F2C3CF"/>
<ellipse cx="9" cy="5.5" rx="9" ry="5.5" transform="matrix(1 0 0 -1 17062 260)" fill="#F2C3CF"/>
<path d="M16995.5 216V237.38" stroke="#02268A" stroke-width="6" stroke-linecap="round"/>
<path d="M17054.5 216V237.38" stroke="#02268A" stroke-width="6" stroke-linecap="round"/>
<path d="M8128.38 181.853C8149.77 155.109 8178 112.767 8187.71 75C8187.71 75 8303.86 157.903 8299.9 235.28C8299.9 288.697 8255.47 332 8200.66 332C8145.85 332 8090.39 304.96 8101.41 235.28C8105.01 212.558 8118.31 194.442 8128.38 181.853Z" fill="#E3F2FD" stroke="#9BC4F3" stroke-width="5"/>
<path d="M8190.59 82.3696C8190.59 82.3696 8230.5 116.307 8250.64 139.174C8270.78 162.04 8285.52 191.065 8285.52 191.065" stroke="#F5FAFF" stroke-width="4.45759" stroke-linecap="round"/>
<path d="M8105.03 227.296C8110.44 202.118 8136.68 174.177 8136.68 174.177C8136.68 174.177 8116.54 208.259 8117.62 235.587C8118.7 262.914 8121.75 266.425 8127.69 278.88C8133.62 291.336 8140.58 295.199 8153.94 304.366C8167.29 313.532 8188.81 318.979 8202.48 321.253C8216.15 323.527 8236.64 323.403 8236.64 323.403C8236.64 323.403 8222.98 328.929 8209.67 329.851C8196.37 330.772 8187.09 330.141 8174.07 327.701C8161.05 325.262 8153.37 323.6 8142.07 317.569C8130.77 311.537 8123.38 306.089 8115.82 296.075C8108.26 286.061 8104.55 273.047 8103.24 266.906C8101.92 260.765 8099.63 252.474 8105.03 227.296Z" fill="#CDE6FB"/>
<ellipse cx="10" cy="5.5" rx="10" ry="5.5" transform="matrix(1 0 0 -1 8159 257)" fill="#F2C3CF"/>
<ellipse cx="9" cy="5.5" rx="9" ry="5.5" transform="matrix(1 0 0 -1 8263 260)" fill="#F2C3CF"/>
<path d="M8197 227H8193" stroke="#02268A" stroke-width="6" stroke-linecap="round"/>
<path d="M8257 227H8253" stroke="#02268A" stroke-width="6" stroke-linecap="round"/>
<path d="M130.53 178.348C151.277 150.979 178.663 107.649 188.081 69C188.081 69 300.741 153.839 296.904 233.021C296.904 287.686 253.804 332 200.637 332C147.47 332 93.6738 304.329 104.37 233.021C107.858 209.769 120.763 191.231 130.53 178.348Z" fill="#E3F2FD" stroke="#9BC4F3" stroke-width="5"/>
<path d="M190.871 76.5415C190.871 76.5415 229.587 111.271 249.12 134.672C268.652 158.072 282.953 187.774 282.953 187.774" stroke="#F5FAFF" stroke-width="4.45759" stroke-linecap="round"/>
<path d="M107.883 224.852C113.127 199.086 138.577 170.492 138.577 170.492C138.577 170.492 119.045 205.37 120.091 233.336C121.137 261.301 124.099 264.894 129.857 277.64C135.615 290.387 142.367 294.34 155.318 303.72C168.27 313.101 189.145 318.675 202.405 321.002C215.666 323.33 235.541 323.202 235.541 323.202C235.541 323.202 222.287 328.858 209.381 329.8C196.476 330.743 187.48 330.098 174.851 327.601C162.222 325.104 154.773 323.404 143.808 317.232C132.843 311.059 125.681 305.484 118.346 295.237C111.012 284.989 107.41 271.67 106.138 265.386C104.866 259.102 102.639 250.618 107.883 224.852Z" fill="#CDE6FB"/>
<path d="M195.461 215.26V237.38" stroke="#02268A" stroke-width="6" stroke-linecap="round"/>
<path d="M254.479 215.26V237.38" stroke="#02268A" stroke-width="6" stroke-linecap="round"/>
<ellipse cx="10" cy="5.5" rx="10" ry="5.5" transform="matrix(1 0 0 -1 160 257)" fill="#F2C3CF"/>
<ellipse cx="9" cy="5.5" rx="9" ry="5.5" transform="matrix(1 0 0 -1 262 260)" fill="#F2C3CF"/>
<path d="M529.814 178.932C550.775 151.667 578.443 108.502 587.958 70C587.958 70 701.779 154.516 697.903 233.398C697.903 287.854 654.359 332 600.644 332C546.929 332 492.578 304.434 503.384 233.398C506.908 210.234 519.947 191.766 529.814 178.932Z" fill="#E3F2FD" stroke="#9BC4F3" stroke-width="5"/>
<path d="M590.777 77.5127C590.777 77.5127 629.892 112.11 649.626 135.422C669.36 158.734 683.808 188.323 683.808 188.323" stroke="#F5FAFF" stroke-width="4.45759" stroke-linecap="round"/>
<path d="M506.933 225.259C512.232 199.592 537.944 171.106 537.944 171.106C537.944 171.106 518.211 205.852 519.267 233.711C520.324 261.57 523.317 265.149 529.134 277.847C534.951 290.545 541.773 294.483 554.858 303.828C567.943 313.173 589.033 318.726 602.43 321.044C615.827 323.363 635.907 323.235 635.907 323.235C635.907 323.235 622.516 328.87 609.478 329.809C596.439 330.748 587.35 330.105 574.591 327.618C561.832 325.131 554.307 323.437 543.229 317.288C532.151 311.139 524.915 305.585 517.504 295.376C510.094 285.167 506.456 271.9 505.171 265.639C503.886 259.379 501.635 250.927 506.933 225.259Z" fill="#CDE6FB"/>
<path d="M595.461 215.26V237.38" stroke="#02268A" stroke-width="6" stroke-linecap="round"/>
<path d="M654.479 215.26V237.38" stroke="#02268A" stroke-width="6" stroke-linecap="round"/>
<ellipse cx="10" cy="5.5" rx="10" ry="5.5" transform="matrix(1 0 0 -1 560 257)" fill="#F2C3CF"/>
<ellipse cx="9" cy="5.5" rx="9" ry="5.5" transform="matrix(1 0 0 -1 662 260)" fill="#F2C3CF"/>
<path d="M929.097 179.516C950.273 152.356 978.223 109.355 987.835 71C987.835 71 1102.82 155.194 1098.9 233.774C1098.9 288.023 1054.91 332 1000.65 332C946.387 332 891.481 304.54 902.398 233.774C905.958 210.699 919.13 192.301 929.097 179.516Z" fill="#E3F2FD" stroke="#9BC4F3" stroke-width="5"/>
<path d="M990.683 78.4844C990.683 78.4844 1030.2 112.95 1050.13 136.173C1070.07 159.395 1084.66 188.871 1084.66 188.871" stroke="#F5FAFF" stroke-width="4.45759" stroke-linecap="round"/>
<path d="M905.984 225.667C911.336 200.097 937.31 171.721 937.31 171.721C937.31 171.721 917.376 206.334 918.443 234.086C919.511 261.839 922.534 265.405 928.411 278.054C934.288 290.704 941.178 294.626 954.397 303.936C967.615 313.245 988.921 318.777 1002.45 321.086C1015.99 323.396 1036.27 323.269 1036.27 323.269C1036.27 323.269 1022.75 328.882 1009.57 329.817C996.403 330.753 987.221 330.112 974.332 327.635C961.443 325.157 953.84 323.47 942.649 317.344C931.459 311.219 924.148 305.686 916.663 295.516C909.177 285.346 905.501 272.129 904.203 265.893C902.905 259.656 900.632 251.237 905.984 225.667Z" fill="#CDE6FB"/>
<path d="M995.461 216.26V238.38" stroke="#02268A" stroke-width="6" stroke-linecap="round"/>
<path d="M1054.48 216.26V238.38" stroke="#02268A" stroke-width="6" stroke-linecap="round"/>
<ellipse cx="10" cy="5.5" rx="10" ry="5.5" transform="matrix(1 0 0 -1 959 257)" fill="#F2C3CF"/>
<ellipse cx="9" cy="5.5" rx="9" ry="5.5" transform="matrix(1 0 0 -1 1063 260)" fill="#F2C3CF"/>
<path d="M1328.38 180.1C1349.77 153.044 1378 110.208 1387.71 72C1387.71 72 1503.86 155.871 1499.9 234.151C1499.9 288.191 1455.47 332 1400.66 332C1345.85 332 1290.39 304.645 1301.41 234.151C1305.01 211.164 1318.31 192.836 1328.38 180.1Z" fill="#E3F2FD" stroke="#9BC4F3" stroke-width="5"/>
<path d="M1390.59 79.4556C1390.59 79.4556 1430.5 113.789 1450.64 136.923C1470.78 160.056 1485.52 189.42 1485.52 189.42" stroke="#F5FAFF" stroke-width="4.45759" stroke-linecap="round"/>
<path d="M1305.03 226.074C1310.44 200.602 1336.68 172.334 1336.68 172.334C1336.68 172.334 1316.54 206.814 1317.62 234.461C1318.7 262.107 1321.75 265.659 1327.69 278.26C1333.62 290.861 1340.58 294.769 1353.94 304.042C1367.29 313.316 1388.81 318.827 1402.48 321.127C1416.15 323.428 1436.64 323.302 1436.64 323.302C1436.64 323.302 1422.98 328.893 1409.67 329.825C1396.37 330.757 1387.09 330.119 1374.07 327.651C1361.05 325.182 1353.37 323.502 1342.07 317.4C1330.77 311.298 1323.38 305.786 1315.82 295.655C1308.26 285.524 1304.55 272.358 1303.24 266.145C1301.92 259.933 1299.63 251.545 1305.03 226.074Z" fill="#CDE6FB"/>
<path d="M1395.46 216.26V238.38" stroke="#02268A" stroke-width="6" stroke-linecap="round"/>
<path d="M1454.48 216.26V238.38" stroke="#02268A" stroke-width="6" stroke-linecap="round"/>
<ellipse cx="10" cy="5.5" rx="10" ry="5.5" transform="matrix(1 0 0 -1 1359 257)" fill="#F2C3CF"/>
<ellipse cx="9" cy="5.5" rx="9" ry="5.5" transform="matrix(1 0 0 -1 1463 260)" fill="#F2C3CF"/>
<path d="M1728.38 180.685C1749.77 153.732 1778 111.061 1787.71 73C1787.71 73 1903.86 156.548 1899.9 234.527C1899.9 288.36 1855.47 332 1800.66 332C1745.85 332 1690.39 304.75 1701.41 234.527C1705.01 211.628 1718.31 193.372 1728.38 180.685Z" fill="#E3F2FD" stroke="#9BC4F3" stroke-width="5"/>
<path d="M1790.59 80.4268C1790.59 80.4268 1830.5 114.628 1850.64 137.673C1870.78 160.718 1885.52 189.968 1885.52 189.968" stroke="#F5FAFF" stroke-width="4.45759" stroke-linecap="round"/>
<path d="M1705.03 226.481C1710.44 201.107 1736.68 172.948 1736.68 172.948C1736.68 172.948 1716.54 207.296 1717.62 234.836C1718.7 262.376 1721.75 265.914 1727.69 278.467C1733.62 291.019 1740.58 294.912 1753.94 304.15C1767.29 313.388 1788.81 318.877 1802.48 321.169C1816.15 323.461 1836.64 323.335 1836.64 323.335C1836.64 323.335 1822.98 328.905 1809.67 329.834C1796.37 330.762 1787.09 330.126 1774.07 327.667C1761.05 325.209 1753.37 323.534 1742.07 317.456C1730.77 311.378 1723.38 305.887 1715.82 295.795C1708.26 285.703 1704.55 272.587 1703.24 266.399C1701.92 260.21 1699.63 251.855 1705.03 226.481Z" fill="#CDE6FB"/>
<path d="M1796.46 217.26V239.38" stroke="#02268A" stroke-width="6" stroke-linecap="round"/>
<path d="M1855.48 217.26V239.38" stroke="#02268A" stroke-width="6" stroke-linecap="round"/>
<ellipse cx="10" cy="5.5" rx="10" ry="5.5" transform="matrix(1 0 0 -1 1758 257)" fill="#F2C3CF"/>
<ellipse cx="9" cy="5.5" rx="9" ry="5.5" transform="matrix(1 0 0 -1 1864 260)" fill="#F2C3CF"/>
<path d="M2128.38 181.269C2149.77 154.42 2178 111.914 2187.71 74C2187.71 74 2303.86 157.226 2299.9 234.903C2299.9 288.528 2255.47 332 2200.66 332C2145.85 332 2090.39 304.855 2101.41 234.903C2105.01 212.093 2118.31 193.907 2128.38 181.269Z" fill="#E3F2FD" stroke="#9BC4F3" stroke-width="5"/>
<path d="M2190.59 81.3984C2190.59 81.3984 2230.5 115.468 2250.64 138.424C2270.78 161.379 2285.52 190.517 2285.52 190.517" stroke="#F5FAFF" stroke-width="4.45759" stroke-linecap="round"/>
<path d="M2105.03 226.889C2110.44 201.613 2136.68 173.562 2136.68 173.562C2136.68 173.562 2116.54 207.778 2117.62 235.211C2118.7 262.645 2121.75 266.169 2127.69 278.674C2133.62 291.178 2140.58 295.055 2153.94 304.258C2167.29 313.46 2188.81 318.928 2202.48 321.211C2216.15 323.494 2236.64 323.369 2236.64 323.369C2236.64 323.369 2222.98 328.917 2209.67 329.842C2196.37 330.767 2187.09 330.134 2174.07 327.684C2161.05 325.235 2153.37 323.567 2142.07 317.512C2130.77 311.457 2123.38 305.988 2115.82 295.935C2108.26 285.882 2104.55 272.817 2103.24 266.652C2101.92 260.487 2099.63 252.165 2105.03 226.889Z" fill="#CDE6FB"/>
<path d="M2196.46 217.26V239.38" stroke="#02268A" stroke-width="6" stroke-linecap="round"/>
<path d="M2255.48 217.26V239.38" stroke="#02268A" stroke-width="6" stroke-linecap="round"/>
<ellipse cx="10" cy="5.5" rx="10" ry="5.5" transform="matrix(1 0 0 -1 2158 257)" fill="#F2C3CF"/>
<ellipse cx="9" cy="5.5" rx="9" ry="5.5" transform="matrix(1 0 0 -1 2264 260)" fill="#F2C3CF"/>
<path d="M2528.38 181.853C2549.77 155.109 2578 112.767 2587.71 75C2587.71 75 2703.86 157.903 2699.9 235.28C2699.9 288.697 2655.47 332 2600.66 332C2545.85 332 2490.39 304.96 2501.41 235.28C2505.01 212.558 2518.31 194.442 2528.38 181.853Z" fill="#E3F2FD" stroke="#9BC4F3" stroke-width="5"/>
<path d="M2590.59 82.3696C2590.59 82.3696 2630.5 116.307 2650.64 139.174C2670.78 162.04 2685.52 191.065 2685.52 191.065" stroke="#F5FAFF" stroke-width="4.45759" stroke-linecap="round"/>
<path d="M2505.03 227.296C2510.44 202.118 2536.68 174.177 2536.68 174.177C2536.68 174.177 2516.54 208.259 2517.62 235.587C2518.7 262.914 2521.75 266.425 2527.69 278.88C2533.62 291.336 2540.58 295.199 2553.94 304.366C2567.29 313.532 2588.81 318.979 2602.48 321.253C2616.15 323.527 2636.64 323.403 2636.64 323.403C2636.64 323.403 2622.98 328.929 2609.67 329.851C2596.37 330.772 2587.09 330.141 2574.07 327.701C2561.05 325.262 2553.37 323.6 2542.07 317.569C2530.77 311.537 2523.38 306.089 2515.82 296.075C2508.26 286.061 2504.55 273.047 2503.24 266.906C2501.92 260.765 2499.63 252.474 2505.03 227.296Z" fill="#CDE6FB"/>
<path d="M2596.46 218.26V240.38" stroke="#02268A" stroke-width="6" stroke-linecap="round"/>
<path d="M2655.48 218.26V240.38" stroke="#02268A" stroke-width="6" stroke-linecap="round"/>
<ellipse cx="10" cy="5.5" rx="10" ry="5.5" transform="matrix(1 0 0 -1 2557 258)" fill="#F2C3CF"/>
<ellipse cx="9" cy="5.5" rx="9" ry="5.5" transform="matrix(1 0 0 -1 2665 261)" fill="#F2C3CF"/>
<path d="M2928.38 181.853C2949.77 155.109 2978 112.767 2987.71 75C2987.71 75 3103.86 157.903 3099.9 235.28C3099.9 288.697 3055.47 332 3000.66 332C2945.85 332 2890.39 304.96 2901.41 235.28C2905.01 212.558 2918.31 194.442 2928.38 181.853Z" fill="#E3F2FD" stroke="#9BC4F3" stroke-width="5"/>
<path d="M2990.59 82.3696C2990.59 82.3696 3030.5 116.307 3050.64 139.174C3070.78 162.04 3085.52 191.065 3085.52 191.065" stroke="#F5FAFF" stroke-width="4.45759" stroke-linecap="round"/>
<path d="M2905.03 227.296C2910.44 202.118 2936.68 174.177 2936.68 174.177C2936.68 174.177 2916.54 208.259 2917.62 235.587C2918.7 262.914 2921.75 266.425 2927.69 278.88C2933.62 291.336 2940.58 295.199 2953.94 304.366C2967.29 313.532 2988.81 318.979 3002.48 321.253C3016.15 323.527 3036.64 323.403 3036.64 323.403C3036.64 323.403 3022.98 328.929 3009.67 329.851C2996.37 330.772 2987.09 330.141 2974.07 327.701C2961.05 325.262 2953.37 323.6 2942.07 317.569C2930.77 311.537 2923.38 306.089 2915.82 296.075C2908.26 286.061 2904.55 273.047 2903.24 266.906C2901.92 260.765 2899.63 252.474 2905.03 227.296Z" fill="#CDE6FB"/>
<path d="M2996.46 218.26V240.38" stroke="#02268A" stroke-width="6" stroke-linecap="round"/>
<path d="M3055.48 218.26V240.38" stroke="#02268A" stroke-width="6" stroke-linecap="round"/>
<ellipse cx="10" cy="5.5" rx="10" ry="5.5" transform="matrix(1 0 0 -1 2957 258)" fill="#F2C3CF"/>
<ellipse cx="9" cy="5.5" rx="9" ry="5.5" transform="matrix(1 0 0 -1 3065 261)" fill="#F2C3CF"/>
<path d="M3328.38 181.269C3349.77 154.42 3378 111.914 3387.71 74C3387.71 74 3503.86 157.226 3499.9 234.903C3499.9 288.528 3455.47 332 3400.66 332C3345.85 332 3290.39 304.855 3301.41 234.903C3305.01 212.093 3318.31 193.907 3328.38 181.269Z" fill="#E3F2FD" stroke="#9BC4F3" stroke-width="5"/>
<path d="M3390.59 81.3984C3390.59 81.3984 3430.5 115.468 3450.64 138.424C3470.78 161.379 3485.52 190.517 3485.52 190.517" stroke="#F5FAFF" stroke-width="4.45759" stroke-linecap="round"/>
<path d="M3305.03 226.889C3310.44 201.613 3336.68 173.562 3336.68 173.562C3336.68 173.562 3316.54 207.778 3317.62 235.211C3318.7 262.645 3321.75 266.169 3327.69 278.674C3333.62 291.178 3340.58 295.055 3353.94 304.258C3367.29 313.46 3388.81 318.928 3402.48 321.211C3416.15 323.494 3436.64 323.369 3436.64 323.369C3436.64 323.369 3422.98 328.917 3409.67 329.842C3396.37 330.767 3387.09 330.134 3374.07 327.684C3361.05 325.235 3353.37 323.567 3342.07 317.512C3330.77 311.457 3323.38 305.988 3315.82 295.935C3308.26 285.882 3304.55 272.817 3303.24 266.652C3301.92 260.487 3299.63 252.165 3305.03 226.889Z" fill="#CDE6FB"/>
<path d="M3396.46 217.26V239.38" stroke="#02268A" stroke-width="6" stroke-linecap="round"/>
<path d="M3455.48 217.26V239.38" stroke="#02268A" stroke-width="6" stroke-linecap="round"/>
<ellipse cx="10" cy="5.5" rx="10" ry="5.5" transform="matrix(1 0 0 -1 3358 257)" fill="#F2C3CF"/>
<ellipse cx="9" cy="5.5" rx="9" ry="5.5" transform="matrix(1 0 0 -1 3464 260)" fill="#F2C3CF"/>
<path d="M3728.38 180.685C3749.77 153.732 3778 111.061 3787.71 73C3787.71 73 3903.86 156.548 3899.9 234.527C3899.9 288.36 3855.47 332 3800.66 332C3745.85 332 3690.39 304.75 3701.41 234.527C3705.01 211.628 3718.31 193.372 3728.38 180.685Z" fill="#E3F2FD" stroke="#9BC4F3" stroke-width="5"/>
<path d="M3790.59 80.4268C3790.59 80.4268 3830.5 114.628 3850.64 137.673C3870.78 160.718 3885.52 189.968 3885.52 189.968" stroke="#F5FAFF" stroke-width="4.45759" stroke-linecap="round"/>
<path d="M3705.03 226.481C3710.44 201.107 3736.68 172.948 3736.68 172.948C3736.68 172.948 3716.54 207.296 3717.62 234.836C3718.7 262.376 3721.75 265.914 3727.69 278.467C3733.62 291.019 3740.58 294.912 3753.94 304.15C3767.29 313.388 3788.81 318.877 3802.48 321.169C3816.15 323.461 3836.64 323.335 3836.64 323.335C3836.64 323.335 3822.98 328.905 3809.67 329.834C3796.37 330.762 3787.09 330.126 3774.07 327.667C3761.05 325.209 3753.37 323.534 3742.07 317.456C3730.77 311.378 3723.38 305.887 3715.82 295.795C3708.26 285.703 3704.55 272.587 3703.24 266.399C3701.92 260.21 3699.63 251.855 3705.03 226.481Z" fill="#CDE6FB"/>
<path d="M3796.46 217.26V239.38" stroke="#02268A" stroke-width="6" stroke-linecap="round"/>
<path d="M3855.48 217.26V239.38" stroke="#02268A" stroke-width="6" stroke-linecap="round"/>
<ellipse cx="10" cy="5.5" rx="10" ry="5.5" transform="matrix(1 0 0 -1 3758 257)" fill="#F2C3CF"/>
<ellipse cx="9" cy="5.5" rx="9" ry="5.5" transform="matrix(1 0 0 -1 3864 260)" fill="#F2C3CF"/>
<path d="M4128.38 180.1C4149.77 153.044 4178 110.208 4187.71 72C4187.71 72 4303.86 155.871 4299.9 234.151C4299.9 288.191 4255.47 332 4200.66 332C4145.85 332 4090.39 304.645 4101.41 234.151C4105.01 211.164 4118.31 192.836 4128.38 180.1Z" fill="#E3F2FD" stroke="#9BC4F3" stroke-width="5"/>
<path d="M4190.59 79.4556C4190.59 79.4556 4230.5 113.789 4250.64 136.923C4270.78 160.056 4285.52 189.42 4285.52 189.42" stroke="#F5FAFF" stroke-width="4.45759" stroke-linecap="round"/>
<path d="M4105.03 226.074C4110.44 200.602 4136.68 172.334 4136.68 172.334C4136.68 172.334 4116.54 206.814 4117.62 234.461C4118.7 262.107 4121.75 265.659 4127.69 278.26C4133.62 290.861 4140.58 294.769 4153.94 304.042C4167.29 313.316 4188.81 318.827 4202.48 321.127C4216.15 323.428 4236.64 323.302 4236.64 323.302C4236.64 323.302 4222.98 328.893 4209.67 329.825C4196.37 330.757 4187.09 330.119 4174.07 327.651C4161.05 325.182 4153.37 323.502 4142.07 317.4C4130.77 311.298 4123.38 305.786 4115.82 295.655C4108.26 285.524 4104.55 272.358 4103.24 266.145C4101.92 259.933 4099.63 251.545 4105.03 226.074Z" fill="#CDE6FB"/>
<path d="M4195.46 216.26V238.38" stroke="#02268A" stroke-width="6" stroke-linecap="round"/>
<path d="M4254.48 216.26V238.38" stroke="#02268A" stroke-width="6" stroke-linecap="round"/>
<ellipse cx="10" cy="5.5" rx="10" ry="5.5" transform="matrix(1 0 0 -1 4159 257)" fill="#F2C3CF"/>
<ellipse cx="9" cy="5.5" rx="9" ry="5.5" transform="matrix(1 0 0 -1 4263 260)" fill="#F2C3CF"/>
<path d="M4529.1 179.516C4550.27 152.356 4578.22 109.355 4587.83 71C4587.83 71 4702.82 155.194 4698.9 233.774C4698.9 288.023 4654.91 332 4600.65 332C4546.39 332 4491.48 304.54 4502.4 233.774C4505.96 210.699 4519.13 192.301 4529.1 179.516Z" fill="#E3F2FD" stroke="#9BC4F3" stroke-width="5"/>
<path d="M4590.68 78.4844C4590.68 78.4844 4630.2 112.95 4650.13 136.173C4670.07 159.395 4684.66 188.871 4684.66 188.871" stroke="#F5FAFF" stroke-width="4.45759" stroke-linecap="round"/>
<path d="M4505.98 225.667C4511.34 200.097 4537.31 171.721 4537.31 171.721C4537.31 171.721 4517.38 206.334 4518.44 234.086C4519.51 261.839 4522.53 265.405 4528.41 278.054C4534.29 290.704 4541.18 294.626 4554.4 303.936C4567.62 313.245 4588.92 318.777 4602.45 321.086C4615.99 323.396 4636.27 323.269 4636.27 323.269C4636.27 323.269 4622.75 328.882 4609.57 329.817C4596.4 330.753 4587.22 330.112 4574.33 327.635C4561.44 325.157 4553.84 323.47 4542.65 317.344C4531.46 311.219 4524.15 305.686 4516.66 295.516C4509.18 285.346 4505.5 272.129 4504.2 265.893C4502.9 259.656 4500.63 251.237 4505.98 225.667Z" fill="#CDE6FB"/>
<ellipse cx="10" cy="5.5" rx="10" ry="5.5" transform="matrix(1 0 0 -1 4559 257)" fill="#F2C3CF"/>
<ellipse cx="9" cy="5.5" rx="9" ry="5.5" transform="matrix(1 0 0 -1 4663 260)" fill="#F2C3CF"/>
<path d="M4595.46 217.26V237.38" stroke="#02268A" stroke-width="6" stroke-linecap="round"/>
<path d="M4654.48 217.26V237.38" stroke="#02268A" stroke-width="6" stroke-linecap="round"/>
<path d="M4929.81 178.932C4950.78 151.667 4978.44 108.502 4987.96 70C4987.96 70 5101.78 154.516 5097.9 233.398C5097.9 287.854 5054.36 332 5000.64 332C4946.93 332 4892.58 304.434 4903.38 233.398C4906.91 210.234 4919.95 191.766 4929.81 178.932Z" fill="#E3F2FD" stroke="#9BC4F3" stroke-width="5"/>
<path d="M4990.78 77.5127C4990.78 77.5127 5029.89 112.11 5049.63 135.422C5069.36 158.734 5083.81 188.323 5083.81 188.323" stroke="#F5FAFF" stroke-width="4.45759" stroke-linecap="round"/>
<path d="M4906.93 225.259C4912.23 199.592 4937.94 171.106 4937.94 171.106C4937.94 171.106 4918.21 205.852 4919.27 233.711C4920.32 261.57 4923.32 265.149 4929.13 277.847C4934.95 290.545 4941.77 294.483 4954.86 303.828C4967.94 313.173 4989.03 318.726 5002.43 321.044C5015.83 323.363 5035.91 323.235 5035.91 323.235C5035.91 323.235 5022.52 328.87 5009.48 329.809C4996.44 330.748 4987.35 330.105 4974.59 327.618C4961.83 325.131 4954.31 323.437 4943.23 317.288C4932.15 311.139 4924.91 305.585 4917.5 295.376C4910.09 285.167 4906.46 271.9 4905.17 265.639C4903.89 259.379 4901.64 250.927 4906.93 225.259Z" fill="#CDE6FB"/>
<ellipse cx="10" cy="5.5" rx="10" ry="5.5" transform="matrix(1 0 0 -1 4960 257)" fill="#F2C3CF"/>
<ellipse cx="9" cy="5.5" rx="9" ry="5.5" transform="matrix(1 0 0 -1 5062 260)" fill="#F2C3CF"/>
<path d="M4995.46 216.26V238.38" stroke="#02268A" stroke-width="6" stroke-linecap="round"/>
<path d="M5054.48 216.26V238.38" stroke="#02268A" stroke-width="6" stroke-linecap="round"/>
<path d="M5330.53 178.348C5351.28 150.979 5378.66 107.649 5388.08 69C5388.08 69 5500.74 153.839 5496.9 233.021C5496.9 287.686 5453.8 332 5400.64 332C5347.47 332 5293.67 304.329 5304.37 233.021C5307.86 209.769 5320.76 191.231 5330.53 178.348Z" fill="#E3F2FD" stroke="#9BC4F3" stroke-width="5"/>
<path d="M5390.87 76.5415C5390.87 76.5415 5429.59 111.271 5449.12 134.672C5468.65 158.072 5482.95 187.774 5482.95 187.774" stroke="#F5FAFF" stroke-width="4.45759" stroke-linecap="round"/>
<path d="M5307.88 224.852C5313.13 199.086 5338.58 170.492 5338.58 170.492C5338.58 170.492 5319.05 205.37 5320.09 233.336C5321.14 261.301 5324.1 264.894 5329.86 277.64C5335.62 290.387 5342.37 294.34 5355.32 303.72C5368.27 313.101 5389.14 318.675 5402.41 321.002C5415.67 323.33 5435.54 323.202 5435.54 323.202C5435.54 323.202 5422.29 328.858 5409.38 329.8C5396.48 330.743 5387.48 330.098 5374.85 327.601C5362.22 325.104 5354.77 323.404 5343.81 317.232C5332.84 311.059 5325.68 305.484 5318.35 295.237C5311.01 284.989 5307.41 271.67 5306.14 265.386C5304.87 259.102 5302.64 250.618 5307.88 224.852Z" fill="#CDE6FB"/>
<ellipse cx="10" cy="5.5" rx="10" ry="5.5" transform="matrix(1 0 0 -1 5360 257)" fill="#F2C3CF"/>
<ellipse cx="9" cy="5.5" rx="9" ry="5.5" transform="matrix(1 0 0 -1 5462 260)" fill="#F2C3CF"/>
<path d="M5395.46 217.26V237.38" stroke="#02268A" stroke-width="6" stroke-linecap="round"/>
<path d="M5454.48 217.26V237.38" stroke="#02268A" stroke-width="6" stroke-linecap="round"/>
<path d="M5730.53 178.348C5751.28 150.979 5778.66 107.649 5788.08 69C5788.08 69 5900.74 153.839 5896.9 233.021C5896.9 287.686 5853.8 332 5800.64 332C5747.47 332 5693.67 304.329 5704.37 233.021C5707.86 209.769 5720.76 191.231 5730.53 178.348Z" fill="#E3F2FD" stroke="#9BC4F3" stroke-width="5"/>
<path d="M5790.87 76.5415C5790.87 76.5415 5829.59 111.271 5849.12 134.672C5868.65 158.072 5882.95 187.774 5882.95 187.774" stroke="#F5FAFF" stroke-width="4.45759" stroke-linecap="round"/>
<path d="M5707.88 224.852C5713.13 199.086 5738.58 170.492 5738.58 170.492C5738.58 170.492 5719.05 205.37 5720.09 233.336C5721.14 261.301 5724.1 264.894 5729.86 277.64C5735.62 290.387 5742.37 294.34 5755.32 303.72C5768.27 313.101 5789.14 318.675 5802.41 321.002C5815.67 323.33 5835.54 323.202 5835.54 323.202C5835.54 323.202 5822.29 328.858 5809.38 329.8C5796.48 330.743 5787.48 330.098 5774.85 327.601C5762.22 325.104 5754.77 323.404 5743.81 317.232C5732.84 311.059 5725.68 305.484 5718.35 295.237C5711.01 284.989 5707.41 271.67 5706.14 265.386C5704.87 259.102 5702.64 250.618 5707.88 224.852Z" fill="#CDE6FB"/>
<ellipse cx="10" cy="5.5" rx="10" ry="5.5" transform="matrix(1 0 0 -1 5760 257)" fill="#F2C3CF"/>
<ellipse cx="9" cy="5.5" rx="9" ry="5.5" transform="matrix(1 0 0 -1 5862 260)" fill="#F2C3CF"/>
<path d="M5795.46 217.26V237.38" stroke="#02268A" stroke-width="6" stroke-linecap="round"/>
<path d="M5854.48 217.26V237.38" stroke="#02268A" stroke-width="6" stroke-linecap="round"/>
<path d="M6129.81 178.932C6150.78 151.667 6178.44 108.502 6187.96 70C6187.96 70 6301.78 154.516 6297.9 233.398C6297.9 287.854 6254.36 332 6200.64 332C6146.93 332 6092.58 304.434 6103.38 233.398C6106.91 210.234 6119.95 191.766 6129.81 178.932Z" fill="#E3F2FD" stroke="#9BC4F3" stroke-width="5"/>
<path d="M6190.78 77.5127C6190.78 77.5127 6229.89 112.11 6249.63 135.422C6269.36 158.734 6283.81 188.323 6283.81 188.323" stroke="#F5FAFF" stroke-width="4.45759" stroke-linecap="round"/>
<path d="M6106.93 225.259C6112.23 199.592 6137.94 171.106 6137.94 171.106C6137.94 171.106 6118.21 205.852 6119.27 233.711C6120.32 261.57 6123.32 265.149 6129.13 277.847C6134.95 290.545 6141.77 294.483 6154.86 303.828C6167.94 313.173 6189.03 318.726 6202.43 321.044C6215.83 323.363 6235.91 323.235 6235.91 323.235C6235.91 323.235 6222.52 328.87 6209.48 329.809C6196.44 330.748 6187.35 330.105 6174.59 327.618C6161.83 325.131 6154.31 323.437 6143.23 317.288C6132.15 311.139 6124.91 305.585 6117.5 295.376C6110.09 285.167 6106.46 271.9 6105.17 265.639C6103.89 259.379 6101.64 250.927 6106.93 225.259Z" fill="#CDE6FB"/>
<ellipse cx="10" cy="5.5" rx="10" ry="5.5" transform="matrix(1 0 0 -1 6160 257)" fill="#F2C3CF"/>
<ellipse cx="9" cy="5.5" rx="9" ry="5.5" transform="matrix(1 0 0 -1 6262 260)" fill="#F2C3CF"/>
<path d="M6195.46 219.26V235.38" stroke="#02268A" stroke-width="6" stroke-linecap="round"/>
<path d="M6254.48 219.26V235.38" stroke="#02268A" stroke-width="6" stroke-linecap="round"/>
<path d="M6529.1 179.516C6550.27 152.356 6578.22 109.355 6587.83 71C6587.83 71 6702.82 155.194 6698.9 233.774C6698.9 288.023 6654.91 332 6600.65 332C6546.39 332 6491.48 304.54 6502.4 233.774C6505.96 210.699 6519.13 192.301 6529.1 179.516Z" fill="#E3F2FD" stroke="#9BC4F3" stroke-width="5"/>
<path d="M6590.68 78.4844C6590.68 78.4844 6630.2 112.95 6650.13 136.173C6670.07 159.395 6684.66 188.871 6684.66 188.871" stroke="#F5FAFF" stroke-width="4.45759" stroke-linecap="round"/>
<path d="M6505.98 225.667C6511.34 200.097 6537.31 171.721 6537.31 171.721C6537.31 171.721 6517.38 206.334 6518.44 234.086C6519.51 261.839 6522.53 265.405 6528.41 278.054C6534.29 290.704 6541.18 294.626 6554.4 303.936C6567.62 313.245 6588.92 318.777 6602.45 321.086C6615.99 323.396 6636.27 323.269 6636.27 323.269C6636.27 323.269 6622.75 328.882 6609.57 329.817C6596.4 330.753 6587.22 330.112 6574.33 327.635C6561.44 325.157 6553.84 323.47 6542.65 317.344C6531.46 311.219 6524.15 305.686 6516.66 295.516C6509.18 285.346 6505.5 272.129 6504.2 265.893C6502.9 259.656 6500.63 251.237 6505.98 225.667Z" fill="#CDE6FB"/>
<ellipse cx="10" cy="5.5" rx="10" ry="5.5" transform="matrix(1 0 0 -1 6559 257)" fill="#F2C3CF"/>
<ellipse cx="9" cy="5.5" rx="9" ry="5.5" transform="matrix(1 0 0 -1 6663 260)" fill="#F2C3CF"/>
<path d="M6595.46 226V228.641" stroke="#02268A" stroke-width="6" stroke-linecap="round"/>
<path d="M6654.48 226V228.641" stroke="#02268A" stroke-width="6" stroke-linecap="round"/>
<path d="M6928.38 180.1C6949.77 153.044 6978 110.208 6987.71 72C6987.71 72 7103.86 155.871 7099.9 234.151C7099.9 288.191 7055.47 332 7000.66 332C6945.85 332 6890.39 304.645 6901.41 234.151C6905.01 211.164 6918.31 192.836 6928.38 180.1Z" fill="#E3F2FD" stroke="#9BC4F3" stroke-width="5"/>
<path d="M6990.59 79.4556C6990.59 79.4556 7030.5 113.789 7050.64 136.923C7070.78 160.056 7085.52 189.42 7085.52 189.42" stroke="#F5FAFF" stroke-width="4.45759" stroke-linecap="round"/>
<path d="M6905.03 226.074C6910.44 200.602 6936.68 172.334 6936.68 172.334C6936.68 172.334 6916.54 206.814 6917.62 234.461C6918.7 262.107 6921.75 265.659 6927.69 278.26C6933.62 290.861 6940.58 294.769 6953.94 304.042C6967.29 313.316 6988.81 318.827 7002.48 321.127C7016.15 323.428 7036.64 323.302 7036.64 323.302C7036.64 323.302 7022.98 328.893 7009.67 329.825C6996.37 330.757 6987.09 330.119 6974.07 327.651C6961.05 325.182 6953.37 323.502 6942.07 317.4C6930.77 311.298 6923.38 305.786 6915.82 295.655C6908.26 285.524 6904.55 272.358 6903.24 266.145C6901.92 259.933 6899.63 251.545 6905.03 226.074Z" fill="#CDE6FB"/>
<ellipse cx="10" cy="5.5" rx="10" ry="5.5" transform="matrix(1 0 0 -1 6959 257)" fill="#F2C3CF"/>
<ellipse cx="9" cy="5.5" rx="9" ry="5.5" transform="matrix(1 0 0 -1 7063 260)" fill="#F2C3CF"/>
<path d="M6997 227H6993" stroke="#02268A" stroke-width="6" stroke-linecap="round"/>
<path d="M7057 227H7053" stroke="#02268A" stroke-width="6" stroke-linecap="round"/>
<path d="M7328.38 180.685C7349.77 153.732 7378 111.061 7387.71 73C7387.71 73 7503.86 156.548 7499.9 234.527C7499.9 288.36 7455.47 332 7400.66 332C7345.85 332 7290.39 304.75 7301.41 234.527C7305.01 211.628 7318.31 193.372 7328.38 180.685Z" fill="#E3F2FD" stroke="#9BC4F3" stroke-width="5"/>
<path d="M7390.59 80.4268C7390.59 80.4268 7430.5 114.628 7450.64 137.673C7470.78 160.718 7485.52 189.968 7485.52 189.968" stroke="#F5FAFF" stroke-width="4.45759" stroke-linecap="round"/>
<path d="M7305.03 226.481C7310.44 201.107 7336.68 172.948 7336.68 172.948C7336.68 172.948 7316.54 207.296 7317.62 234.836C7318.7 262.376 7321.75 265.914 7327.69 278.467C7333.62 291.019 7340.58 294.912 7353.94 304.15C7367.29 313.388 7388.81 318.877 7402.48 321.169C7416.15 323.461 7436.64 323.335 7436.64 323.335C7436.64 323.335 7422.98 328.905 7409.67 329.834C7396.37 330.762 7387.09 330.126 7374.07 327.667C7361.05 325.209 7353.37 323.534 7342.07 317.456C7330.77 311.378 7323.38 305.887 7315.82 295.795C7308.26 285.703 7304.55 272.587 7303.24 266.399C7301.92 260.21 7299.63 251.855 7305.03 226.481Z" fill="#CDE6FB"/>
<ellipse cx="10" cy="5.5" rx="10" ry="5.5" transform="matrix(1 0 0 -1 7358 257)" fill="#F2C3CF"/>
<ellipse cx="9" cy="5.5" rx="9" ry="5.5" transform="matrix(1 0 0 -1 7464 260)" fill="#F2C3CF"/>
<path d="M7403 227H7387" stroke="#02268A" stroke-width="6" stroke-linecap="round"/>
<path d="M7463 227H7447" stroke="#02268A" stroke-width="6" stroke-linecap="round"/>
<path d="M7728.38 181.269C7749.77 154.42 7778 111.914 7787.71 74C7787.71 74 7903.86 157.226 7899.9 234.903C7899.9 288.528 7855.47 332 7800.66 332C7745.85 332 7690.39 304.855 7701.41 234.903C7705.01 212.093 7718.31 193.907 7728.38 181.269Z" fill="#E3F2FD" stroke="#9BC4F3" stroke-width="5"/>
<path d="M7790.59 81.3984C7790.59 81.3984 7830.5 115.468 7850.64 138.424C7870.78 161.379 7885.52 190.517 7885.52 190.517" stroke="#F5FAFF" stroke-width="4.45759" stroke-linecap="round"/>
<path d="M7705.03 226.889C7710.44 201.613 7736.68 173.562 7736.68 173.562C7736.68 173.562 7716.54 207.778 7717.62 235.211C7718.7 262.645 7721.75 266.169 7727.69 278.674C7733.62 291.178 7740.58 295.055 7753.94 304.258C7767.29 313.46 7788.81 318.928 7802.48 321.211C7816.15 323.494 7836.64 323.369 7836.64 323.369C7836.64 323.369 7822.98 328.917 7809.67 329.842C7796.37 330.767 7787.09 330.134 7774.07 327.684C7761.05 325.235 7753.37 323.567 7742.07 317.512C7730.77 311.457 7723.38 305.988 7715.82 295.935C7708.26 285.882 7704.55 272.817 7703.24 266.652C7701.92 260.487 7699.63 252.165 7705.03 226.889Z" fill="#CDE6FB"/>
<ellipse cx="10" cy="5.5" rx="10" ry="5.5" transform="matrix(1 0 0 -1 7758 257)" fill="#F2C3CF"/>
<ellipse cx="9" cy="5.5" rx="9" ry="5.5" transform="matrix(1 0 0 -1 7864 260)" fill="#F2C3CF"/>
<path d="M7803 227H7787" stroke="#02268A" stroke-width="6" stroke-linecap="round"/>
<path d="M7863 227H7847" stroke="#02268A" stroke-width="6" stroke-linecap="round"/>
<path d="M8528.38 181.853C8549.77 155.109 8578 112.767 8587.71 75C8587.71 75 8703.86 157.903 8699.9 235.28C8699.9 288.697 8655.47 332 8600.66 332C8545.85 332 8490.39 304.96 8501.41 235.28C8505.01 212.558 8518.31 194.442 8528.38 181.853Z" fill="#E3F2FD" stroke="#9BC4F3" stroke-width="5"/>
<path d="M8590.59 82.3696C8590.59 82.3696 8630.5 116.307 8650.64 139.174C8670.78 162.04 8685.52 191.065 8685.52 191.065" stroke="#F5FAFF" stroke-width="4.45759" stroke-linecap="round"/>
<path d="M8505.03 227.296C8510.44 202.118 8536.68 174.177 8536.68 174.177C8536.68 174.177 8516.54 208.259 8517.62 235.587C8518.7 262.914 8521.75 266.425 8527.69 278.88C8533.62 291.336 8540.58 295.199 8553.94 304.366C8567.29 313.532 8588.81 318.979 8602.48 321.253C8616.15 323.527 8636.64 323.403 8636.64 323.403C8636.64 323.403 8622.98 328.929 8609.67 329.851C8596.37 330.772 8587.09 330.141 8574.07 327.701C8561.05 325.262 8553.37 323.6 8542.07 317.569C8530.77 311.537 8523.38 306.089 8515.82 296.075C8508.26 286.061 8504.55 273.047 8503.24 266.906C8501.92 260.765 8499.63 252.474 8505.03 227.296Z" fill="#CDE6FB"/>
<ellipse cx="10" cy="5.5" rx="10" ry="5.5" transform="matrix(1 0 0 -1 8557 258)" fill="#F2C3CF"/>
<ellipse cx="9" cy="5.5" rx="9" ry="5.5" transform="matrix(1 0 0 -1 8665 261)" fill="#F2C3CF"/>
<path d="M8595.46 226V228.641" stroke="#02268A" stroke-width="6" stroke-linecap="round"/>
<path d="M8654.48 226V228.641" stroke="#02268A" stroke-width="6" stroke-linecap="round"/>
<path d="M8928.38 181.853C8949.77 155.109 8978 112.767 8987.71 75C8987.71 75 9103.86 157.903 9099.9 235.28C9099.9 288.697 9055.47 332 9000.66 332C8945.85 332 8890.39 304.96 8901.41 235.28C8905.01 212.558 8918.31 194.442 8928.38 181.853Z" fill="#E3F2FD" stroke="#9BC4F3" stroke-width="5"/>
<path d="M8990.59 82.3696C8990.59 82.3696 9030.5 116.307 9050.64 139.174C9070.78 162.04 9085.52 191.065 9085.52 191.065" stroke="#F5FAFF" stroke-width="4.45759" stroke-linecap="round"/>
<path d="M8905.03 227.296C8910.44 202.118 8936.68 174.177 8936.68 174.177C8936.68 174.177 8916.54 208.259 8917.62 235.587C8918.7 262.914 8921.75 266.425 8927.69 278.88C8933.62 291.336 8940.58 295.199 8953.94 304.366C8967.29 313.532 8988.81 318.979 9002.48 321.253C9016.15 323.527 9036.64 323.403 9036.64 323.403C9036.64 323.403 9022.98 328.929 9009.67 329.851C8996.37 330.772 8987.09 330.141 8974.07 327.701C8961.05 325.262 8953.37 323.6 8942.07 317.569C8930.77 311.537 8923.38 306.089 8915.82 296.075C8908.26 286.061 8904.55 273.047 8903.24 266.906C8901.92 260.765 8899.63 252.474 8905.03 227.296Z" fill="#CDE6FB"/>
<ellipse cx="10" cy="5.5" rx="10" ry="5.5" transform="matrix(1 0 0 -1 8957 258)" fill="#F2C3CF"/>
<ellipse cx="9" cy="5.5" rx="9" ry="5.5" transform="matrix(1 0 0 -1 9065 261)" fill="#F2C3CF"/>
<path d="M8995.46 219.26V235.38" stroke="#02268A" stroke-width="6" stroke-linecap="round"/>
<path d="M9054.48 219.26V235.38" stroke="#02268A" stroke-width="6" stroke-linecap="round"/>
<path d="M9328.38 181.269C9349.77 154.42 9378 111.914 9387.71 74C9387.71 74 9503.86 157.226 9499.9 234.903C9499.9 288.528 9455.47 332 9400.66 332C9345.85 332 9290.39 304.855 9301.41 234.903C9305.01 212.093 9318.31 193.907 9328.38 181.269Z" fill="#E3F2FD" stroke="#9BC4F3" stroke-width="5"/>
<path d="M9390.59 81.3984C9390.59 81.3984 9430.5 115.468 9450.64 138.424C9470.78 161.379 9485.52 190.517 9485.52 190.517" stroke="#F5FAFF" stroke-width="4.45759" stroke-linecap="round"/>
<path d="M9305.03 226.889C9310.44 201.613 9336.68 173.562 9336.68 173.562C9336.68 173.562 9316.54 207.778 9317.62 235.211C9318.7 262.645 9321.75 266.169 9327.69 278.674C9333.62 291.178 9340.58 295.055 9353.94 304.258C9367.29 313.46 9388.81 318.928 9402.48 321.211C9416.15 323.494 9436.64 323.369 9436.64 323.369C9436.64 323.369 9422.98 328.917 9409.67 329.842C9396.37 330.767 9387.09 330.134 9374.07 327.684C9361.05 325.235 9353.37 323.567 9342.07 317.512C9330.77 311.457 9323.38 305.988 9315.82 295.935C9308.26 285.882 9304.55 272.817 9303.24 266.652C9301.92 260.487 9299.63 252.165 9305.03 226.889Z" fill="#CDE6FB"/>
<path d="M9396.46 217.26V239.38" stroke="#02268A" stroke-width="6" stroke-linecap="round"/>
<path d="M9455.48 217.26V239.38" stroke="#02268A" stroke-width="6" stroke-linecap="round"/>
<ellipse cx="10" cy="5.5" rx="10" ry="5.5" transform="matrix(1 0 0 -1 9358 257)" fill="#F2C3CF"/>
<ellipse cx="9" cy="5.5" rx="9" ry="5.5" transform="matrix(1 0 0 -1 9464 260)" fill="#F2C3CF"/>
<path d="M9728.38 180.685C9749.77 153.732 9778 111.061 9787.71 73C9787.71 73 9903.86 156.548 9899.9 234.527C9899.9 288.36 9855.47 332 9800.66 332C9745.85 332 9690.39 304.75 9701.41 234.527C9705.01 211.628 9718.31 193.372 9728.38 180.685Z" fill="#E3F2FD" stroke="#9BC4F3" stroke-width="5"/>
<path d="M9790.59 80.4268C9790.59 80.4268 9830.5 114.628 9850.64 137.673C9870.78 160.718 9885.52 189.968 9885.52 189.968" stroke="#F5FAFF" stroke-width="4.45759" stroke-linecap="round"/>
<path d="M9705.03 226.481C9710.44 201.107 9736.68 172.948 9736.68 172.948C9736.68 172.948 9716.54 207.296 9717.62 234.836C9718.7 262.376 9721.75 265.914 9727.69 278.467C9733.62 291.019 9740.58 294.912 9753.94 304.15C9767.29 313.388 9788.81 318.877 9802.48 321.169C9816.15 323.461 9836.64 323.335 9836.64 323.335C9836.64 323.335 9822.98 328.905 9809.67 329.834C9796.37 330.762 9787.09 330.126 9774.07 327.667C9761.05 325.209 9753.37 323.534 9742.07 317.456C9730.77 311.378 9723.38 305.887 9715.82 295.795C9708.26 285.703 9704.55 272.587 9703.24 266.399C9701.92 260.21 9699.63 251.855 9705.03 226.481Z" fill="#CDE6FB"/>
<path d="M9796.46 217.26V239.38" stroke="#02268A" stroke-width="6" stroke-linecap="round"/>
<path d="M9855.48 217.26V239.38" stroke="#02268A" stroke-width="6" stroke-linecap="round"/>
<ellipse cx="10" cy="5.5" rx="10" ry="5.5" transform="matrix(1 0 0 -1 9758 257)" fill="#F2C3CF"/>
<ellipse cx="9" cy="5.5" rx="9" ry="5.5" transform="matrix(1 0 0 -1 9864 260)" fill="#F2C3CF"/>
<path d="M10128.4 180.1C10149.8 153.044 10178 110.208 10187.7 72C10187.7 72 10303.9 155.871 10299.9 234.151C10299.9 288.191 10255.5 332 10200.7 332C10145.8 332 10090.4 304.645 10101.4 234.151C10105 211.164 10118.3 192.836 10128.4 180.1Z" fill="#E3F2FD" stroke="#9BC4F3" stroke-width="5"/>
<path d="M10190.6 79.4556C10190.6 79.4556 10230.5 113.789 10250.6 136.923C10270.8 160.056 10285.5 189.42 10285.5 189.42" stroke="#F5FAFF" stroke-width="4.45759" stroke-linecap="round"/>
<path d="M10105 226.074C10110.4 200.602 10136.7 172.334 10136.7 172.334C10136.7 172.334 10116.5 206.814 10117.6 234.461C10118.7 262.107 10121.8 265.659 10127.7 278.26C10133.6 290.861 10140.6 294.769 10153.9 304.042C10167.3 313.316 10188.8 318.827 10202.5 321.127C10216.2 323.428 10236.6 323.302 10236.6 323.302C10236.6 323.302 10223 328.893 10209.7 329.825C10196.4 330.757 10187.1 330.119 10174.1 327.651C10161.1 325.182 10153.4 323.502 10142.1 317.4C10130.8 311.298 10123.4 305.786 10115.8 295.655C10108.3 285.524 10104.5 272.358 10103.2 266.145C10101.9 259.933 10099.6 251.545 10105 226.074Z" fill="#CDE6FB"/>
<path d="M10195.5 216.26V238.38" stroke="#02268A" stroke-width="6" stroke-linecap="round"/>
<path d="M10254.5 216.26V238.38" stroke="#02268A" stroke-width="6" stroke-linecap="round"/>
<ellipse cx="10" cy="5.5" rx="10" ry="5.5" transform="matrix(1 0 0 -1 10159 257)" fill="#F2C3CF"/>
<ellipse cx="9" cy="5.5" rx="9" ry="5.5" transform="matrix(1 0 0 -1 10263 260)" fill="#F2C3CF"/>
<path d="M10529.1 179.516C10550.3 152.356 10578.2 109.355 10587.8 71C10587.8 71 10702.8 155.194 10698.9 233.774C10698.9 288.023 10654.9 332 10600.7 332C10546.4 332 10491.5 304.54 10502.4 233.774C10506 210.699 10519.1 192.301 10529.1 179.516Z" fill="#E3F2FD" stroke="#9BC4F3" stroke-width="5"/>
<path d="M10590.7 78.4844C10590.7 78.4844 10630.2 112.95 10650.1 136.173C10670.1 159.395 10684.7 188.871 10684.7 188.871" stroke="#F5FAFF" stroke-width="4.45759" stroke-linecap="round"/>
<path d="M10506 225.667C10511.3 200.097 10537.3 171.721 10537.3 171.721C10537.3 171.721 10517.4 206.334 10518.4 234.086C10519.5 261.839 10522.5 265.405 10528.4 278.054C10534.3 290.704 10541.2 294.626 10554.4 303.936C10567.6 313.245 10588.9 318.777 10602.5 321.086C10616 323.396 10636.3 323.269 10636.3 323.269C10636.3 323.269 10622.7 328.882 10609.6 329.817C10596.4 330.753 10587.2 330.112 10574.3 327.635C10561.4 325.157 10553.8 323.47 10542.6 317.344C10531.5 311.219 10524.1 305.686 10516.7 295.516C10509.2 285.346 10505.5 272.129 10504.2 265.893C10502.9 259.656 10500.6 251.237 10506 225.667Z" fill="#CDE6FB"/>
<path d="M10595.5 216.26V238.38" stroke="#02268A" stroke-width="6" stroke-linecap="round"/>
<path d="M10654.5 216.26V238.38" stroke="#02268A" stroke-width="6" stroke-linecap="round"/>
<ellipse cx="10" cy="5.5" rx="10" ry="5.5" transform="matrix(1 0 0 -1 10559 257)" fill="#F2C3CF"/>
<ellipse cx="9" cy="5.5" rx="9" ry="5.5" transform="matrix(1 0 0 -1 10663 260)" fill="#F2C3CF"/>
<path d="M10929.8 178.932C10950.8 151.667 10978.4 108.502 10988 70C10988 70 11101.8 154.516 11097.9 233.398C11097.9 287.854 11054.4 332 11000.6 332C10946.9 332 10892.6 304.434 10903.4 233.398C10906.9 210.234 10919.9 191.766 10929.8 178.932Z" fill="#E3F2FD" stroke="#9BC4F3" stroke-width="5"/>
<path d="M10990.8 77.5127C10990.8 77.5127 11029.9 112.11 11049.6 135.422C11069.4 158.734 11083.8 188.323 11083.8 188.323" stroke="#F5FAFF" stroke-width="4.45759" stroke-linecap="round"/>
<path d="M10906.9 225.259C10912.2 199.592 10937.9 171.106 10937.9 171.106C10937.9 171.106 10918.2 205.852 10919.3 233.711C10920.3 261.57 10923.3 265.149 10929.1 277.847C10935 290.545 10941.8 294.483 10954.9 303.828C10967.9 313.173 10989 318.726 11002.4 321.044C11015.8 323.363 11035.9 323.235 11035.9 323.235C11035.9 323.235 11022.5 328.87 11009.5 329.809C10996.4 330.748 10987.4 330.105 10974.6 327.618C10961.8 325.131 10954.3 323.437 10943.2 317.288C10932.2 311.139 10924.9 305.585 10917.5 295.376C10910.1 285.167 10906.5 271.9 10905.2 265.639C10903.9 259.379 10901.6 250.927 10906.9 225.259Z" fill="#CDE6FB"/>
<path d="M10995.5 215.26V237.38" stroke="#02268A" stroke-width="6" stroke-linecap="round"/>
<path d="M11054.5 215.26V237.38" stroke="#02268A" stroke-width="6" stroke-linecap="round"/>
<ellipse cx="10" cy="5.5" rx="10" ry="5.5" transform="matrix(1 0 0 -1 10960 257)" fill="#F2C3CF"/>
<ellipse cx="9" cy="5.5" rx="9" ry="5.5" transform="matrix(1 0 0 -1 11062 260)" fill="#F2C3CF"/>
<path d="M11330.5 178.348C11351.3 150.979 11378.7 107.649 11388.1 69C11388.1 69 11500.7 153.839 11496.9 233.021C11496.9 287.686 11453.8 332 11400.6 332C11347.5 332 11293.7 304.329 11304.4 233.021C11307.9 209.769 11320.8 191.231 11330.5 178.348Z" fill="#E3F2FD" stroke="#9BC4F3" stroke-width="5"/>
<path d="M11390.9 76.5415C11390.9 76.5415 11429.6 111.271 11449.1 134.672C11468.7 158.072 11483 187.774 11483 187.774" stroke="#F5FAFF" stroke-width="4.45759" stroke-linecap="round"/>
<path d="M11307.9 224.852C11313.1 199.086 11338.6 170.492 11338.6 170.492C11338.6 170.492 11319 205.37 11320.1 233.336C11321.1 261.301 11324.1 264.894 11329.9 277.64C11335.6 290.387 11342.4 294.34 11355.3 303.72C11368.3 313.101 11389.1 318.675 11402.4 321.002C11415.7 323.33 11435.5 323.202 11435.5 323.202C11435.5 323.202 11422.3 328.858 11409.4 329.8C11396.5 330.743 11387.5 330.098 11374.9 327.601C11362.2 325.104 11354.8 323.404 11343.8 317.232C11332.8 311.059 11325.7 305.484 11318.3 295.237C11311 284.989 11307.4 271.67 11306.1 265.386C11304.9 259.102 11302.6 250.618 11307.9 224.852Z" fill="#CDE6FB"/>
<path d="M11395.5 215.26V237.38" stroke="#02268A" stroke-width="6" stroke-linecap="round"/>
<path d="M11454.5 215.26V237.38" stroke="#02268A" stroke-width="6" stroke-linecap="round"/>
<ellipse cx="10" cy="5.5" rx="10" ry="5.5" transform="matrix(1 0 0 -1 11360 257)" fill="#F2C3CF"/>
<ellipse cx="9" cy="5.5" rx="9" ry="5.5" transform="matrix(1 0 0 -1 11462 260)" fill="#F2C3CF"/>
</svg>
