<svg width="8000" height="400" viewBox="0 0 8000 400" fill="none" xmlns="http://www.w3.org/2000/svg">
<g clip-path="url(#clip0_120_727)">
<path d="M396.373 -88.7875C410.481 -109.445 429.102 -142.151 435.506 -171.322C435.506 -171.322 512.111 -107.287 509.503 -47.5202C509.503 -6.26001 480.196 27.188 444.044 27.188C407.892 27.188 371.312 6.30225 378.585 -47.5202C380.957 -65.0707 389.732 -79.0636 396.373 -88.7875Z" fill="#E3F2FD" stroke="#9BC4F3" stroke-width="2.84602"/>
<path d="M380.974 -53.6865C384.54 -73.1343 401.845 -94.7167 401.845 -94.7167C401.845 -94.7167 388.564 -68.3909 389.275 -47.2829C389.986 -26.1749 392 -23.4631 395.916 -13.8421C399.831 -4.22121 404.422 -1.23769 413.229 5.84286C422.035 12.9234 436.23 17.1306 445.246 18.8871C454.263 20.6437 467.777 20.5473 467.777 20.5473C467.777 20.5473 458.765 24.8164 449.99 25.5279C441.214 26.2394 435.097 25.7521 426.51 23.8677C417.923 21.9833 412.858 20.6999 405.402 16.0411C397.946 11.3823 393.076 7.17439 388.089 -0.560692C383.101 -8.29578 380.653 -18.3483 379.788 -23.0917C378.923 -27.8351 377.408 -34.2386 380.974 -53.6865Z" fill="#CDE6FB"/>
</g>
<g clip-path="url(#clip1_120_727)">
<path d="M840.321 -51.5436C854.429 -72.2013 873.05 -104.907 879.454 -134.078C879.454 -134.078 956.059 -70.0428 953.45 -10.2763C953.45 30.9839 924.144 64.4319 887.992 64.4319C851.84 64.4319 815.26 43.5461 822.533 -10.2763C824.905 -27.8268 833.68 -41.8197 840.321 -51.5436Z" fill="#E3F2FD" stroke="#9BC4F3" stroke-width="2.84602"/>
<ellipse cx="3.7947" cy="2.37169" rx="3.7947" ry="2.37169" transform="matrix(1 0 0 -1 861.903 4.42834)" fill="#F2C3CF"/>
<ellipse cx="3.7947" cy="2.37169" rx="3.7947" ry="2.37169" transform="matrix(1 0 0 -1 931.631 6.80005)" fill="#F2C3CF"/>
<path d="M824.922 -16.4426C828.488 -35.8904 845.793 -57.4728 845.793 -57.4728C845.793 -57.4728 832.512 -31.147 833.223 -10.039C833.934 11.069 835.948 13.7808 839.864 23.4018C843.779 33.0227 848.37 36.0062 857.176 43.0868C865.983 50.1673 880.177 54.3745 889.194 56.131C898.211 57.8876 911.725 57.7912 911.725 57.7912C911.725 57.7912 902.713 62.0603 893.938 62.7718C885.162 63.4833 879.045 62.996 870.458 61.1116C861.871 59.2271 856.805 57.9438 849.35 53.285C841.894 48.6262 837.024 44.4183 832.037 36.6832C827.049 28.9481 824.6 18.8956 823.736 14.1522C822.871 9.40881 821.356 3.00525 824.922 -16.4426Z" fill="#CDE6FB"/>
</g>
<g clip-path="url(#clip2_120_727)">
<path d="M1255.96 -34.4112C1270.07 -55.0689 1288.69 -87.7742 1295.1 -116.946C1295.1 -116.946 1371.7 -52.9104 1369.09 6.85616C1369.09 48.1163 1339.79 81.5643 1303.63 81.5643C1267.48 81.5643 1230.9 60.6786 1238.18 6.85616C1240.55 -10.6943 1249.32 -24.6873 1255.96 -34.4112Z" fill="#E3F2FD" stroke="#9BC4F3" stroke-width="2.84602"/>
<path d="M1296.99 -6.42529V10.1765" stroke="#02268A" stroke-width="3.32036" stroke-linecap="round"/>
<path d="M1337.31 -6.42529V10.1765" stroke="#02268A" stroke-width="3.32036" stroke-linecap="round"/>
<ellipse cx="3.7947" cy="2.37169" rx="3.7947" ry="2.37169" transform="matrix(1 0 0 -1 1277.55 21.5605)" fill="#F2C3CF"/>
<ellipse cx="3.7947" cy="2.37169" rx="3.7947" ry="2.37169" transform="matrix(1 0 0 -1 1347.27 23.9323)" fill="#F2C3CF"/>
<path d="M1240.56 0.689735C1244.13 -18.7581 1261.44 -40.3405 1261.44 -40.3405C1261.44 -40.3405 1248.15 -14.0147 1248.87 7.09329C1249.58 28.2013 1251.59 30.9132 1255.51 40.5341C1259.42 50.155 1264.01 53.1385 1272.82 60.2191C1281.63 67.2997 1295.82 71.5068 1304.84 73.2634C1313.85 75.0199 1327.37 74.9235 1327.37 74.9235C1327.37 74.9235 1318.36 79.1926 1309.58 79.9041C1300.8 80.6156 1294.69 80.1283 1286.1 78.2439C1277.51 76.3595 1272.45 75.0761 1264.99 70.4173C1257.54 65.7585 1252.67 61.5506 1247.68 53.8155C1242.69 46.0804 1240.24 36.0279 1239.38 31.2845C1238.51 26.5411 1237 20.1376 1240.56 0.689735Z" fill="#CDE6FB"/>
</g>
<g clip-path="url(#clip3_120_727)">
<path d="M1678.31 -6.1059C1692.42 -26.7636 1711.04 -59.4689 1717.44 -88.6406C1717.44 -88.6406 1794.05 -24.6051 1791.44 35.1615C1791.44 76.4216 1762.13 109.87 1725.98 109.87C1689.83 109.87 1653.25 88.9839 1660.52 35.1615C1662.89 17.611 1671.67 3.61802 1678.31 -6.1059Z" fill="#E3F2FD" stroke="#9BC4F3" stroke-width="2.84602"/>
<path d="M1719.34 -82.9485C1719.34 -82.9485 1745.67 -56.7348 1758.95 -39.0723C1772.23 -21.4097 1781.95 1.00925 1781.95 1.00925" stroke="#F5FAFF" stroke-width="3.32036" stroke-linecap="round"/>
<path d="M1719.34 21.88V38.4818" stroke="#02268A" stroke-width="3.32036" stroke-linecap="round"/>
<path d="M1759.66 21.88V38.4818" stroke="#02268A" stroke-width="3.32036" stroke-linecap="round"/>
<ellipse cx="3.7947" cy="2.37169" rx="3.7947" ry="2.37169" transform="matrix(1 0 0 -1 1699.89 49.866)" fill="#F2C3CF"/>
<ellipse cx="3.7947" cy="2.37169" rx="3.7947" ry="2.37169" transform="matrix(1 0 0 -1 1769.62 52.2375)" fill="#F2C3CF"/>
<path d="M1662.91 28.995C1666.48 9.5472 1683.78 -12.0352 1683.78 -12.0352C1683.78 -12.0352 1670.5 14.2906 1671.21 35.3986C1671.92 56.5066 1673.94 59.2185 1677.85 68.8394C1681.77 78.4603 1686.36 81.4438 1695.17 88.5244C1703.97 95.6049 1718.17 99.8121 1727.18 101.569C1736.2 103.325 1749.71 103.229 1749.71 103.229C1749.71 103.229 1740.7 107.498 1731.93 108.209C1723.15 108.921 1717.03 108.434 1708.45 106.549C1699.86 104.665 1694.79 103.381 1687.34 98.7226C1679.88 94.0638 1675.01 89.8559 1670.03 82.1208C1665.04 74.3857 1662.59 64.3332 1661.72 59.5898C1660.86 54.8464 1659.35 48.4429 1662.91 28.995Z" fill="#CDE6FB"/>
</g>
<g clip-path="url(#clip4_120_727)">
<path d="M2097.68 18.4752C2111.78 -2.18253 2130.41 -34.8878 2136.81 -64.0596C2136.81 -64.0596 2213.41 -0.0240097 2210.81 59.7425C2210.81 101.003 2181.5 134.451 2145.35 134.451C2109.2 134.451 2072.62 113.565 2079.89 59.7425C2082.26 42.192 2091.04 28.1991 2097.68 18.4752Z" fill="#E3F2FD" stroke="#9BC4F3" stroke-width="2.84602"/>
<path d="M2138.71 -58.3676C2138.71 -58.3676 2165.03 -32.1539 2178.31 -14.4913C2191.6 3.17125 2201.32 25.5902 2201.32 25.5902" stroke="#F5FAFF" stroke-width="3.32036" stroke-linecap="round"/>
<path d="M2138.71 46.4611V63.0629" stroke="#02268A" stroke-width="3.32036" stroke-linecap="round"/>
<path d="M2179.03 46.4611V63.0629" stroke="#02268A" stroke-width="3.32036" stroke-linecap="round"/>
<ellipse cx="3.7947" cy="2.37169" rx="3.7947" ry="2.37169" transform="matrix(1 0 0 -1 2119.26 74.447)" fill="#F2C3CF"/>
<ellipse cx="3.7947" cy="2.37169" rx="3.7947" ry="2.37169" transform="matrix(1 0 0 -1 2188.99 76.8186)" fill="#F2C3CF"/>
<path d="M2082.28 53.5761C2085.84 34.1283 2103.15 12.5459 2103.15 12.5459C2103.15 12.5459 2089.87 38.8716 2090.58 59.9796C2091.29 81.0877 2093.3 83.7995 2097.22 93.4204C2101.13 103.041 2105.73 106.025 2114.53 113.105C2123.34 120.186 2137.53 124.393 2146.55 126.15C2155.57 127.906 2169.08 127.81 2169.08 127.81C2169.08 127.81 2160.07 132.079 2151.29 132.79C2142.52 133.502 2136.4 133.015 2127.81 131.13C2119.23 129.246 2114.16 127.963 2106.71 123.304C2099.25 118.645 2094.38 114.437 2089.39 106.702C2084.41 98.9668 2081.96 88.9142 2081.09 84.1709C2080.23 79.4275 2078.71 73.0239 2082.28 53.5761Z" fill="#CDE6FB"/>
</g>
<g clip-path="url(#clip5_120_727)">
<path d="M2524.49 55.7404C2538.6 33.9588 2557.22 -0.525949 2563.62 -31.2849C2563.62 -31.2849 2640.23 36.2348 2637.62 99.2531C2637.62 142.758 2608.31 178.026 2572.16 178.026C2536.01 178.026 2499.43 156.004 2506.7 99.2531C2509.08 80.7477 2517.85 65.9934 2524.49 55.7404Z" fill="#E3F2FD" stroke="#9BC4F3" stroke-width="2.84602"/>
<path d="M2565.52 -25.2831C2565.52 -25.2831 2591.85 2.35682 2605.13 20.9804C2618.41 39.604 2628.14 63.2427 2628.14 63.2427" stroke="#F5FAFF" stroke-width="3.32036" stroke-linecap="round"/>
<path d="M2565.52 85.249V102.754" stroke="#02268A" stroke-width="3.32036" stroke-linecap="round"/>
<path d="M2605.84 85.249V102.754" stroke="#02268A" stroke-width="3.32036" stroke-linecap="round"/>
<ellipse cx="3.7947" cy="2.50073" rx="3.7947" ry="2.50073" transform="matrix(1 0 0 -1 2546.07 114.758)" fill="#F2C3CF"/>
<ellipse cx="3.7947" cy="2.50073" rx="3.7947" ry="2.50073" transform="matrix(1 0 0 -1 2615.8 117.258)" fill="#F2C3CF"/>
<path d="M2509.09 92.7511C2512.66 72.2452 2529.96 49.4885 2529.96 49.4885C2529.96 49.4885 2516.68 77.2466 2517.39 99.5031C2518.11 121.76 2520.12 124.619 2524.03 134.763C2527.95 144.908 2532.54 148.054 2541.35 155.519C2550.15 162.985 2564.35 167.421 2573.37 169.273C2582.38 171.126 2595.9 171.024 2595.9 171.024C2595.9 171.024 2586.88 175.525 2578.11 176.275C2569.33 177.026 2563.22 176.512 2554.63 174.525C2546.04 172.538 2540.98 171.185 2533.52 166.273C2526.07 161.36 2521.2 156.923 2516.21 148.767C2511.22 140.612 2508.77 130.012 2507.91 125.011C2507.04 120.009 2505.53 113.257 2509.09 92.7511Z" fill="#CDE6FB"/>
</g>
<g clip-path="url(#clip6_120_727)">
<path d="M2952.05 97.9904C2966.16 73.6508 2984.78 35.1162 2991.19 0.744995C2991.19 0.744995 3067.79 76.194 3065.18 146.613C3065.18 195.227 3035.88 234.637 2999.72 234.637C2963.57 234.637 2926.99 210.029 2934.26 146.613C2936.64 125.934 2945.41 109.447 2952.05 97.9904Z" fill="#E3F2FD" stroke="#9BC4F3" stroke-width="2.84602"/>
<path d="M2993.08 7.45142C2993.08 7.45142 3019.41 38.3373 3032.69 59.148C3045.97 79.9587 3055.7 106.373 3055.7 106.373" stroke="#F5FAFF" stroke-width="3.32036" stroke-linecap="round"/>
<path d="M2993.08 130.964V150.525" stroke="#02268A" stroke-width="3.32036" stroke-linecap="round"/>
<path d="M3033.4 130.964V150.525" stroke="#02268A" stroke-width="3.32036" stroke-linecap="round"/>
<ellipse cx="3.7947" cy="2.79441" rx="3.7947" ry="2.79441" transform="matrix(1 0 0 -1 2973.64 163.938)" fill="#F2C3CF"/>
<ellipse cx="3.7947" cy="2.79441" rx="3.7947" ry="2.79441" transform="matrix(1 0 0 -1 3043.36 166.733)" fill="#F2C3CF"/>
<path d="M2936.65 139.347C2940.22 116.433 2957.52 91.0042 2957.52 91.0042C2957.52 91.0042 2944.24 122.022 2944.95 146.892C2945.67 171.763 2947.68 174.958 2951.6 186.293C2955.51 197.629 2960.1 201.144 2968.91 209.487C2977.71 217.83 2991.91 222.787 3000.93 224.856C3009.94 226.926 3023.46 226.812 3023.46 226.812C3023.46 226.812 3014.44 231.842 3005.67 232.681C2996.89 233.519 2990.78 232.945 2982.19 230.725C2973.6 228.504 2968.54 226.992 2961.08 221.503C2953.63 216.014 2948.76 211.056 2943.77 201.942C2938.78 192.828 2936.33 180.984 2935.47 175.395C2934.6 169.806 2933.09 162.262 2936.65 139.347Z" fill="#CDE6FB"/>
</g>
<path d="M3371.11 142.734C3384.42 117.076 3401.99 76.4555 3408.03 40.2234C3408.03 40.2234 3480.31 119.757 3477.85 193.989C3477.85 245.235 3450.2 286.778 3416.09 286.778C3381.98 286.778 3347.46 260.838 3354.32 193.989C3356.56 172.191 3364.84 154.811 3371.11 142.734Z" fill="#E3F2FD" stroke="#9BC4F3" stroke-width="2.84602"/>
<path d="M3409.82 47.2932C3409.82 47.2932 3434.66 79.8512 3447.19 101.789C3459.72 123.726 3468.9 151.571 3468.9 151.571" stroke="#F5FAFF" stroke-width="3.32036" stroke-linecap="round"/>
<path d="M3409.82 177.493V198.113" stroke="#02268A" stroke-width="3.32036" stroke-linecap="round"/>
<path d="M3447.86 177.493V198.113" stroke="#02268A" stroke-width="3.32036" stroke-linecap="round"/>
<ellipse cx="3.58042" cy="2.9457" rx="3.58042" ry="2.9457" transform="matrix(1 0 0 -1 3391.47 212.252)" fill="#F2C3CF"/>
<ellipse cx="3.58042" cy="2.9457" rx="3.58042" ry="2.9457" transform="matrix(1 0 0 -1 3457.26 215.198)" fill="#F2C3CF"/>
<path d="M3356.58 186.33C3359.94 162.175 3376.27 135.369 3376.27 135.369C3376.27 135.369 3363.74 168.067 3364.41 194.283C3365.08 220.5 3366.98 223.868 3370.68 235.818C3374.37 247.767 3378.7 251.473 3387.01 260.267C3395.32 269.061 3408.71 274.287 3417.22 276.468C3425.73 278.65 3438.48 278.53 3438.48 278.53C3438.48 278.53 3429.98 283.833 3421.7 284.716C3413.42 285.6 3407.64 284.995 3399.54 282.654C3391.44 280.314 3386.66 278.72 3379.63 272.933C3372.59 267.147 3368 261.921 3363.29 252.314C3358.59 242.706 3356.27 230.221 3355.46 224.329C3354.64 218.438 3353.21 210.485 3356.58 186.33Z" fill="#CDE6FB"/>
<path d="M3786 191.017C3799.32 164.275 3816.89 121.936 3822.93 84.1713C3822.93 84.1713 3895.21 167.069 3892.75 244.44C3892.75 297.854 3865.09 341.155 3830.98 341.155C3796.87 341.155 3762.36 314.117 3769.22 244.44C3771.46 221.72 3779.74 203.606 3786 191.017Z" fill="#E3F2FD" stroke="#9BC4F3" stroke-width="2.84602"/>
<path d="M3824.72 91.54C3824.72 91.54 3849.56 125.475 3862.09 148.34C3874.62 171.206 3883.8 200.228 3883.8 200.228" stroke="#F5FAFF" stroke-width="3.32036" stroke-linecap="round"/>
<path d="M3824.72 227.247V248.739" stroke="#02268A" stroke-width="3.32036" stroke-linecap="round"/>
<path d="M3862.76 227.247V248.739" stroke="#02268A" stroke-width="3.32036" stroke-linecap="round"/>
<ellipse cx="3.58042" cy="3.07029" rx="3.58042" ry="3.07029" transform="matrix(1 0 0 -1 3806.37 263.476)" fill="#F2C3CF"/>
<ellipse cx="3.58042" cy="3.07029" rx="3.58042" ry="3.07029" transform="matrix(1 0 0 -1 3872.16 266.546)" fill="#F2C3CF"/>
<path d="M3771.48 236.458C3774.84 211.281 3791.17 183.342 3791.17 183.342C3791.17 183.342 3778.64 217.422 3779.31 244.747C3779.98 272.073 3781.88 275.584 3785.57 288.038C3789.27 300.493 3793.6 304.356 3801.91 313.522C3810.22 322.688 3823.61 328.134 3832.12 330.408C3840.63 332.682 3853.38 332.558 3853.38 332.558C3853.38 332.558 3844.87 338.084 3836.59 339.005C3828.31 339.926 3822.54 339.296 3814.44 336.856C3806.34 334.417 3801.56 332.755 3794.52 326.724C3787.49 320.693 3782.89 315.246 3778.19 305.232C3773.48 295.219 3771.17 282.205 3770.36 276.064C3769.54 269.924 3768.11 261.634 3771.48 236.458Z" fill="#CDE6FB"/>
<path d="M4191.73 232.381C4207.12 211.878 4227.42 179.419 4234.4 150.466C4234.4 150.466 4317.93 214.021 4315.08 273.339C4315.08 314.289 4283.13 347.486 4243.71 347.486C4204.29 347.486 4164.41 326.757 4172.34 273.339C4174.92 255.92 4184.49 242.032 4191.73 232.381Z" fill="#E3F2FD" stroke="#9BC4F3" stroke-width="2.84602"/>
<path d="M4236.47 156.115C4236.47 156.115 4265.17 182.132 4279.66 199.662C4294.14 217.192 4304.74 239.442 4304.74 239.442" stroke="#F5FAFF" stroke-width="3.32036" stroke-linecap="round"/>
<path d="M4236.47 260.157V276.634" stroke="#02268A" stroke-width="3.32036" stroke-linecap="round"/>
<path d="M4280.43 260.157V276.634" stroke="#02268A" stroke-width="3.32036" stroke-linecap="round"/>
<ellipse cx="4.13754" cy="2.35389" rx="4.13754" ry="2.35389" transform="matrix(1 0 0 -1 4215.26 287.933)" fill="#F2C3CF"/>
<ellipse cx="4.13754" cy="2.35389" rx="4.13754" ry="2.35389" transform="matrix(1 0 0 -1 4291.29 290.287)" fill="#F2C3CF"/>
<path d="M4174.94 267.218C4178.83 247.916 4197.7 226.496 4197.7 226.496C4197.7 226.496 4183.22 252.624 4183.99 273.574C4184.77 294.523 4186.96 297.215 4191.23 306.764C4195.5 316.312 4200.51 319.274 4210.11 326.301C4219.71 333.328 4235.19 337.504 4245.02 339.247C4254.85 340.991 4269.59 340.895 4269.59 340.895C4269.59 340.895 4259.76 345.132 4250.19 345.838C4240.63 346.544 4233.96 346.061 4224.59 344.191C4215.23 342.32 4209.71 341.047 4201.58 336.423C4193.45 331.799 4188.14 327.623 4182.7 319.945C4177.26 312.268 4174.59 302.291 4173.65 297.584C4172.71 292.876 4171.05 286.52 4174.94 267.218Z" fill="#CDE6FB"/>
<path d="M4593.97 267.999C4609.35 253.31 4629.65 230.054 4636.64 209.311C4636.64 209.311 4720.16 254.845 4717.32 297.343C4717.32 326.682 4685.36 350.466 4645.95 350.466C4606.53 350.466 4566.64 335.615 4574.57 297.343C4577.16 284.864 4586.73 274.914 4593.97 267.999Z" fill="#E3F2FD" stroke="#9BC4F3" stroke-width="2.84602"/>
<path d="M4638.7 213.358C4638.7 213.358 4667.41 231.998 4681.89 244.557C4696.37 257.117 4706.97 273.058 4706.97 273.058" stroke="#F5FAFF" stroke-width="3.32036" stroke-linecap="round"/>
<path d="M4638.7 287.899V299.704" stroke="#02268A" stroke-width="3.32036" stroke-linecap="round"/>
<path d="M4682.67 287.899V299.704" stroke="#02268A" stroke-width="3.32036" stroke-linecap="round"/>
<ellipse cx="4.13754" cy="1.68643" rx="4.13754" ry="1.68643" transform="matrix(1 0 0 -1 4617.5 307.799)" fill="#F2C3CF"/>
<ellipse cx="4.13754" cy="1.68643" rx="4.13754" ry="1.68643" transform="matrix(1 0 0 -1 4693.53 309.485)" fill="#F2C3CF"/>
<path d="M4577.18 292.958C4581.07 279.129 4599.93 263.783 4599.93 263.783C4599.93 263.783 4585.45 282.502 4586.23 297.511C4587 312.521 4589.2 314.449 4593.47 321.29C4597.74 328.131 4602.74 330.253 4612.35 335.288C4621.95 340.322 4637.42 343.314 4647.26 344.563C4657.09 345.812 4671.82 345.743 4671.82 345.743C4671.82 345.743 4662 348.779 4652.43 349.285C4642.86 349.791 4636.19 349.444 4626.83 348.104C4617.46 346.764 4611.94 345.852 4603.81 342.539C4595.68 339.226 4590.37 336.234 4584.93 330.734C4579.5 325.234 4576.83 318.086 4575.88 314.713C4574.94 311.34 4573.29 306.787 4577.18 292.958Z" fill="#CDE6FB"/>
<path d="M4993.97 267.999C5009.35 253.31 5029.65 230.054 5036.64 209.311C5036.64 209.311 5120.16 254.845 5117.32 297.343C5117.32 326.682 5085.36 350.466 5045.95 350.466C5006.53 350.466 4966.64 335.615 4974.57 297.343C4977.16 284.864 4986.73 274.914 4993.97 267.999Z" fill="#E3F2FD" stroke="#9BC4F3" stroke-width="2.84602"/>
<path d="M5038.7 213.358C5038.7 213.358 5067.41 231.998 5081.89 244.557C5096.37 257.117 5106.97 273.058 5106.97 273.058" stroke="#F5FAFF" stroke-width="3.32036" stroke-linecap="round"/>
<path d="M5038.7 287.899V299.704" stroke="#02268A" stroke-width="3.32036" stroke-linecap="round"/>
<path d="M5082.67 287.899V299.704" stroke="#02268A" stroke-width="3.32036" stroke-linecap="round"/>
<ellipse cx="4.13754" cy="1.68643" rx="4.13754" ry="1.68643" transform="matrix(1 0 0 -1 5017.5 307.799)" fill="#F2C3CF"/>
<ellipse cx="4.13754" cy="1.68643" rx="4.13754" ry="1.68643" transform="matrix(1 0 0 -1 5093.53 309.485)" fill="#F2C3CF"/>
<path d="M4977.18 292.958C4981.07 279.129 4999.93 263.783 4999.93 263.783C4999.93 263.783 4985.45 282.502 4986.23 297.511C4987 312.521 4989.2 314.449 4993.47 321.29C4997.74 328.131 5002.74 330.253 5012.35 335.288C5021.95 340.322 5037.42 343.314 5047.26 344.563C5057.09 345.812 5071.82 345.743 5071.82 345.743C5071.82 345.743 5062 348.779 5052.43 349.285C5042.86 349.791 5036.19 349.444 5026.83 348.104C5017.46 346.764 5011.94 345.852 5003.81 342.539C4995.68 339.226 4990.37 336.234 4984.93 330.734C4979.5 325.234 4976.83 318.086 4975.88 314.713C4974.94 311.34 4973.29 306.787 4977.18 292.958Z" fill="#CDE6FB"/>
<path d="M5388.63 289.4C5405.61 278.523 5428.02 261.303 5435.72 245.943C5435.72 245.943 5527.9 279.66 5524.76 311.129C5524.76 332.854 5489.49 350.466 5445.99 350.466C5402.49 350.466 5358.48 339.469 5367.23 311.129C5370.08 301.888 5380.64 294.52 5388.63 289.4Z" fill="#E3F2FD" stroke="#9BC4F3" stroke-width="2.84602"/>
<path d="M5438 248.939C5438 248.939 5469.68 262.742 5485.66 272.042C5501.64 281.342 5513.34 293.146 5513.34 293.146" stroke="#F5FAFF" stroke-width="3.32036" stroke-linecap="round"/>
<path d="M5438.01 301.704V312.877" stroke="#02268A" stroke-width="3.32036" stroke-linecap="round"/>
<path d="M5486.51 301.704V312.877" stroke="#02268A" stroke-width="3.32036" stroke-linecap="round"/>
<ellipse cx="4.56609" cy="1.24878" rx="4.56609" ry="1.24878" transform="matrix(1 0 0 -1 5414.6 318.872)" fill="#F2C3CF"/>
<ellipse cx="4.56609" cy="1.24878" rx="4.56609" ry="1.24878" transform="matrix(1 0 0 -1 5498.5 320.12)" fill="#F2C3CF"/>
<path d="M5370.1 307.882C5374.39 297.642 5395.22 286.278 5395.22 286.278C5395.22 286.278 5379.24 300.14 5380.09 311.254C5380.95 322.368 5383.37 323.796 5388.08 328.862C5392.79 333.927 5398.32 335.498 5408.91 339.226C5419.51 342.955 5436.59 345.17 5447.44 346.095C5458.29 347.02 5474.55 346.969 5474.55 346.969C5474.55 346.969 5463.71 349.217 5453.15 349.591C5442.59 349.966 5435.23 349.709 5424.9 348.717C5414.56 347.725 5408.47 347.049 5399.5 344.596C5390.53 342.143 5384.67 339.928 5378.66 335.855C5372.66 331.782 5369.72 326.489 5368.68 323.991C5367.64 321.494 5365.81 318.122 5370.1 307.882Z" fill="#CDE6FB"/>
<path d="M5784.79 309.942C5803.36 302.061 5833.15 295.132 5848.05 293.855C5862.94 292.578 5937.13 302.884 5933.69 325.687C5933.69 341.429 5895.12 354.19 5847.53 354.19C5799.95 354.19 5751.8 346.222 5761.38 325.687C5764.5 318.991 5776.05 313.652 5784.79 309.942Z" fill="#E3F2FD" stroke="#9BC4F3" stroke-width="2.84602"/>
<path d="M5843.58 312.849V327.002" stroke="#02268A" stroke-width="3.32036" stroke-linecap="round"/>
<path d="M5885.29 312.849V327.002" stroke="#02268A" stroke-width="3.32036" stroke-linecap="round"/>
<ellipse cx="4.9021" cy="1.8622" rx="4.9021" ry="1.8622" transform="matrix(1 0 0 -1 5813.1 330.712)" fill="#F2C3CF"/>
<ellipse cx="4.9021" cy="1.8622" rx="4.9021" ry="1.8622" transform="matrix(1 0 0 -1 5905.26 332.202)" fill="#F2C3CF"/>
<path d="M5765.09 323.099C5769.8 315.769 5793.48 307.635 5793.48 307.635C5793.48 307.635 5775.12 317.557 5776.06 325.513C5777 333.468 5779.66 334.49 5784.83 338.117C5790 341.743 5796.07 342.867 5807.7 345.536C5819.33 348.205 5838.09 349.79 5850 350.452C5861.91 351.114 5881.72 350.452 5881.72 350.452C5881.72 350.452 5867.86 352.687 5856.26 352.955C5844.67 353.223 5836.59 353.04 5825.25 352.329C5813.9 351.619 5807.21 351.135 5797.36 349.38C5787.51 347.624 5781.08 346.038 5774.49 343.122C5767.9 340.207 5764.67 336.418 5763.52 334.63C5762.38 332.843 5760.38 330.429 5765.09 323.099Z" fill="#CDE6FB"/>
<path d="M5786.97 284.916C5790.79 288.327 5794.41 295.717 5794.41 295.717C5794.41 295.717 5787 291.248 5781.75 291.248C5776.51 291.248 5773.8 295.749 5770.21 295.717C5766.61 295.685 5762.5 296.208 5760.15 293.482C5757.8 290.756 5758.15 286.602 5760.15 283.054C5762.15 279.506 5767.52 278.171 5772.81 278.212C5778.11 278.254 5783.14 281.505 5786.97 284.916Z" fill="#E3F2FD" stroke="#9BC4F3" stroke-width="2.23464"/>
<path d="M5912.85 272.998C5908.95 277.737 5905.73 290.376 5905.73 290.376C5905.73 290.376 5912.21 284.43 5918.44 283.426C5924.67 282.423 5932.04 286.386 5936.31 285.661C5940.58 284.936 5943.75 284.848 5946.02 281.196C5948.3 277.544 5947.93 271.57 5944.88 267.784C5941.83 263.998 5934.03 261.508 5927.75 262.57C5921.46 263.631 5916.75 268.259 5912.85 272.998Z" fill="#E3F2FD" stroke="#9BC4F3" stroke-width="2.23464"/>
<path d="M6166.52 324.271C6189.85 319.074 6227.27 314.506 6245.98 313.664C6264.7 312.822 6357.89 319.617 6353.57 334.652C6353.57 345.031 6305.12 353.445 6245.34 353.445C6185.57 353.445 6125.08 348.191 6137.11 334.652C6141.03 330.237 6155.54 326.717 6166.52 324.271Z" fill="#E3F2FD" stroke="#9BC4F3" stroke-width="2.84602"/>
<path d="M6247.94 326.257V335.589" stroke="#02268A" stroke-width="3.32036" stroke-linecap="round"/>
<path d="M6292.77 326.188V335.519" stroke="#02268A" stroke-width="3.32036" stroke-linecap="round"/>
<ellipse cx="6.15807" cy="1.22782" rx="6.15807" ry="1.22782" transform="matrix(1 0 0 -1 6216.66 337.651)" fill="#F2C3CF"/>
<ellipse cx="6.15807" cy="1.22782" rx="6.15807" ry="1.22782" transform="matrix(1 0 0 -1 6317.85 338.948)" fill="#F2C3CF"/>
<path d="M6141.78 332.946C6147.69 328.113 6177.44 322.749 6177.44 322.749C6177.44 322.749 6154.37 329.291 6155.55 334.537C6156.73 339.782 6160.07 340.456 6166.57 342.847C6173.07 345.238 6180.69 345.979 6195.3 347.739C6209.92 349.498 6233.47 350.544 6248.43 350.98C6263.4 351.417 6288.29 350.98 6288.29 350.98C6288.29 350.98 6270.87 352.454 6256.31 352.631C6241.74 352.808 6231.59 352.686 6217.34 352.218C6203.09 351.75 6194.69 351.431 6182.31 350.273C6169.94 349.115 6161.86 348.07 6153.58 346.148C6145.31 344.225 6141.24 341.727 6139.81 340.548C6138.37 339.37 6135.86 337.778 6141.78 332.946Z" fill="#CDE6FB"/>
<path d="M6155.16 288.826C6158.85 288.42 6164.57 290.05 6164.57 290.05C6164.57 290.05 6158.56 291.879 6156.01 294.703C6153.45 297.527 6154.55 301.165 6152.78 303.087C6151.01 305.009 6149.28 307.476 6146.68 307.419C6144.07 307.362 6142.02 305.16 6141.09 302.364C6140.17 299.567 6142.07 296.028 6144.67 293.197C6147.27 290.367 6151.47 289.231 6155.16 288.826Z" fill="#E3F2FD" stroke="#9BC4F3" stroke-width="2.23464"/>
<path d="M6354.61 269.706C6350.56 269.577 6342.64 272.993 6342.64 272.993C6342.64 272.993 6348.36 273.983 6351.41 276.842C6354.45 279.701 6355.35 285.164 6357.45 287.108C6359.55 289.051 6360.88 290.673 6363.71 290.391C6366.54 290.108 6369.52 287.502 6370.27 284.378C6371.03 281.254 6369.18 276.162 6366.09 273.3C6363 270.437 6358.67 269.835 6354.61 269.706Z" fill="#E3F2FD" stroke="#9BC4F3" stroke-width="2.23464"/>
<g opacity="0.7">
<path d="M6555.65 331.414C6582.02 326.46 6624.31 322.105 6645.46 321.303C6666.61 320.5 6771.94 326.978 6767.06 341.31C6767.06 351.204 6712.29 359.225 6644.74 359.225C6577.18 359.225 6508.82 354.217 6522.41 341.31C6526.84 337.102 6543.24 333.746 6555.65 331.414Z" fill="#E3F2FD" stroke="#9BC4F3" stroke-width="2.84602"/>
<path d="M6655.92 334.645V343.976" stroke="#02268A" stroke-width="3.32036" stroke-linecap="round"/>
<path d="M6698.41 334.575V343.906" stroke="#02268A" stroke-width="3.32036" stroke-linecap="round"/>
<ellipse cx="6.96274" cy="1.22782" rx="6.96274" ry="1.22782" transform="matrix(1 0 0 -1 6612.36 343.059)" fill="#F2C3CF"/>
<ellipse cx="6.96274" cy="1.22782" rx="6.96274" ry="1.22782" transform="matrix(1 0 0 -1 6726.77 344.355)" fill="#F2C3CF"/>
<path d="M6526.43 340.106C6533.18 335.66 6567.1 330.726 6567.1 330.726C6567.1 330.726 6540.79 336.745 6542.14 341.57C6543.48 346.396 6547.29 347.016 6554.7 349.215C6562.11 351.415 6570.8 352.097 6587.46 353.715C6604.12 355.334 6630.98 356.296 6648.04 356.697C6665.1 357.099 6693.48 356.697 6693.48 356.697C6693.48 356.697 6673.62 358.053 6657.02 358.216C6640.41 358.378 6628.84 358.267 6612.59 357.836C6596.34 357.405 6586.76 357.112 6572.65 356.047C6558.54 354.982 6549.33 354.02 6539.89 352.251C6530.46 350.483 6525.82 348.185 6524.19 347.101C6522.55 346.016 6519.68 344.552 6526.43 340.106Z" fill="#CDE6FB"/>
<path d="M6531.4 314.871C6533.04 313.139 6536.52 311.557 6536.52 311.557C6536.52 311.557 6534.34 314.949 6534.26 317.392C6534.18 319.835 6536.23 321.16 6536.16 322.836C6536.1 324.512 6536.28 326.434 6534.98 327.489C6533.68 328.544 6531.76 328.321 6530.15 327.337C6528.53 326.354 6527.99 323.833 6528.09 321.367C6528.18 318.901 6529.76 316.603 6531.4 314.871Z" fill="#E3F2FD" stroke="#9BC4F3" stroke-width="2.23464"/>
<path d="M6779.52 300.985C6777.28 298.881 6771.05 296.861 6771.05 296.861C6771.05 296.861 6773.82 300.294 6774.12 303.447C6774.42 306.599 6772.2 310.165 6772.43 312.327C6772.65 314.488 6772.6 316.076 6774.35 317.332C6776.11 318.589 6779.11 318.596 6781.1 317.192C6783.1 315.788 6784.6 311.962 6784.27 308.781C6783.94 305.601 6781.77 303.09 6779.52 300.985Z" fill="#E3F2FD" stroke="#9BC4F3" stroke-width="2.23464"/>
</g>
<g opacity="0.5">
<path d="M6947.86 329.225C6976.77 323.792 7023.16 319.016 7046.35 318.136C7069.55 317.256 7185.06 324.36 7179.71 340.078C7179.71 350.928 7119.65 359.725 7045.56 359.725C6971.47 359.725 6896.5 354.232 6911.41 340.078C6916.27 335.462 6934.25 331.782 6947.86 329.225Z" fill="#E3F2FD" stroke="#9BC4F3" stroke-width="2.84602"/>
<path d="M7057.83 332.768V343.001" stroke="#02268A" stroke-width="3.32036" stroke-linecap="round"/>
<path d="M7104.42 332.691V342.925" stroke="#02268A" stroke-width="3.32036" stroke-linecap="round"/>
<ellipse cx="7.63588" cy="1.34653" rx="7.63588" ry="1.34653" transform="matrix(1 0 0 -1 7010.05 341.996)" fill="#F2C3CF"/>
<ellipse cx="7.63588" cy="1.34653" rx="7.63588" ry="1.34653" transform="matrix(1 0 0 -1 7135.53 343.417)" fill="#F2C3CF"/>
<path d="M6917.2 336.835C6924.53 331.535 6961.42 325.653 6961.42 325.653C6961.42 325.653 6932.81 332.828 6934.28 338.58C6935.74 344.333 6939.88 345.072 6947.94 347.694C6956 350.316 6965.44 351.129 6983.57 353.059C7001.69 354.988 7030.9 356.135 7049.45 356.614C7068 357.092 7098.87 356.614 7098.87 356.614C7098.87 356.614 7077.27 358.229 7059.21 358.423C7041.15 358.617 7028.57 358.484 7010.9 357.971C6993.23 357.457 6982.8 357.108 6967.46 355.838C6952.12 354.568 6942.1 353.421 6931.84 351.313C6921.57 349.205 6916.53 346.466 6914.75 345.173C6912.98 343.88 6909.86 342.135 6917.2 336.835Z" fill="#CDE6FB"/>
</g>
<path d="M7187.72 321.626C7186.82 320.249 7183.83 318.418 7183.83 318.418C7183.83 318.418 7184.84 320.551 7184.6 322.229C7184.36 323.906 7182.76 325.483 7182.61 326.635C7182.45 327.788 7182.22 328.606 7182.98 329.48C7183.74 330.354 7185.3 330.735 7186.51 330.254C7187.72 329.774 7188.98 327.972 7189.21 326.276C7189.44 324.581 7188.63 323.003 7187.72 321.626Z" fill="#E3F2FD" stroke="#9BC4F3" stroke-width="2.23464"/>
<g opacity="0.3">
<path d="M7330.91 332.896C7363.33 327.852 7415.33 323.417 7441.34 322.6C7467.35 321.783 7596.85 328.379 7590.86 342.973C7590.86 353.047 7523.52 361.215 7440.45 361.215C7357.38 361.215 7273.32 356.115 7290.04 342.973C7295.49 338.687 7315.65 335.27 7330.91 332.896Z" fill="#E3F2FD" stroke="#9BC4F3" stroke-width="2.84602"/>
<path d="M7454.21 336.185V345.687" stroke="#02268A" stroke-width="3.32036" stroke-linecap="round"/>
<path d="M7506.45 336.114V345.616" stroke="#02268A" stroke-width="3.32036" stroke-linecap="round"/>
<ellipse cx="8.56144" cy="1.25023" rx="8.56144" ry="1.25023" transform="matrix(1 0 0 -1 7400.64 344.753)" fill="#F2C3CF"/>
<ellipse cx="8.56144" cy="1.25023" rx="8.56144" ry="1.25023" transform="matrix(1 0 0 -1 7541.32 346.073)" fill="#F2C3CF"/>
<path d="M7296.53 339.962C7304.75 335.041 7346.11 329.58 7346.11 329.58C7346.11 329.58 7314.04 336.241 7315.68 341.582C7317.32 346.923 7321.97 347.61 7331 350.044C7340.03 352.479 7350.63 353.233 7370.94 355.025C7391.26 356.817 7424.01 357.881 7444.81 358.326C7465.62 358.77 7500.22 358.326 7500.22 358.326C7500.22 358.326 7476 359.826 7455.76 360.006C7435.51 360.186 7421.4 360.063 7401.59 359.586C7381.77 359.109 7370.09 358.785 7352.89 357.606C7335.68 356.427 7324.45 355.362 7312.94 353.405C7301.44 351.448 7295.79 348.904 7293.79 347.704C7291.8 346.503 7288.3 344.883 7296.53 339.962Z" fill="#CDE6FB"/>
</g>
<defs>
<clipPath id="clip0_120_727">
<rect width="400" height="400" fill="white" transform="translate(400)"/>
</clipPath>
<clipPath id="clip1_120_727">
<rect width="400" height="400" fill="white" transform="translate(800)"/>
</clipPath>
<clipPath id="clip2_120_727">
<rect width="400" height="400" fill="white" transform="translate(1200)"/>
</clipPath>
<clipPath id="clip3_120_727">
<rect width="400" height="400" fill="white" transform="translate(1600)"/>
</clipPath>
<clipPath id="clip4_120_727">
<rect width="400" height="400" fill="white" transform="translate(2000)"/>
</clipPath>
<clipPath id="clip5_120_727">
<rect width="400" height="400" fill="white" transform="translate(2400)"/>
</clipPath>
<clipPath id="clip6_120_727">
<rect width="400" height="400" fill="white" transform="translate(2800)"/>
</clipPath>
</defs>
</svg>
