<svg xmlns="http://www.w3.org/2000/svg" style="display:none">

  <!-- A -->

  <symbol id="icons.add" viewBox="309 108 32 32">
    <path d="M323 134.667C323 135.197 323.211 135.706 323.586 136.081C323.961 136.456 324.47 136.667 325 136.667C325.53 136.667 326.039 136.456 326.414 136.081C326.789 135.706 327 135.197 327 134.667V126H335.667C336.197 126 336.706 125.789 337.081 125.414C337.456 125.039 337.667 124.53 337.667 124C337.667 123.47 337.456 122.961 337.081 122.586C336.706 122.211 336.197 122 335.667 122H327V113.333C327 112.803 326.789 112.294 326.414 111.919C326.039 111.544 325.53 111.333 325 111.333C324.47 111.333 323.961 111.544 323.586 111.919C323.211 112.294 323 112.803 323 113.333V122H314.333C313.803 122 313.294 122.211 312.919 122.586C312.544 122.961 312.333 123.47 312.333 124C312.333 124.53 312.544 125.039 312.919 125.414C313.294 125.789 313.803 126 314.333 126H323V134.667Z" fill="currentColor"/>
  </symbol>

  <!-- B -->


  <!-- C -->

  <symbol id="icons.create" viewBox="515 108 32 32">
    <path d="M531 110.667C538.364 110.667 544.333 116.636 544.333 124C544.333 131.364 538.364 137.333 531 137.333C523.636 137.333 517.667 131.364 517.667 124C517.667 116.636 523.636 110.667 531 110.667ZM531 117.333C530.673 117.333 530.358 117.453 530.114 117.67C529.87 117.887 529.714 118.186 529.676 118.511L529.667 118.667V122.667H525.667C525.327 122.667 525 122.797 524.753 123.03C524.506 123.264 524.357 123.583 524.337 123.922C524.317 124.261 524.428 124.595 524.646 124.856C524.864 125.116 525.173 125.284 525.511 125.324L525.667 125.333H529.667V129.333C529.667 129.673 529.797 130 530.03 130.247C530.264 130.494 530.583 130.643 530.922 130.663C531.261 130.683 531.595 130.572 531.856 130.354C532.116 130.136 532.284 129.827 532.324 129.489L532.333 129.333V125.333H536.333C536.673 125.333 537 125.203 537.247 124.97C537.494 124.736 537.643 124.417 537.663 124.078C537.683 123.739 537.572 123.405 537.354 123.144C537.136 122.884 536.827 122.716 536.489 122.676L536.333 122.667H532.333V118.667C532.333 118.313 532.193 117.974 531.943 117.724C531.693 117.474 531.354 117.333 531 117.333Z" fill="currentColor"/>
  </symbol>

  <!-- D -->

  <symbol id="icons.down" viewBox="618 0 32 32">
    <path fill-rule="evenodd" clip-rule="evenodd" d="M635.413 21.4133C635.038 21.7879 634.53 21.9982 634 21.9982C633.47 21.9982 632.962 21.7879 632.587 21.4133L625.043 13.872C624.857 13.6862 624.71 13.4657 624.609 13.223C624.509 12.9803 624.457 12.7202 624.457 12.4575C624.457 12.1949 624.509 11.9348 624.61 11.6921C624.71 11.4495 624.858 11.229 625.043 11.0433C625.229 10.8576 625.45 10.7104 625.692 10.6099C625.935 10.5094 626.195 10.4578 626.458 10.4578C626.72 10.4579 626.981 10.5097 627.223 10.6103C627.466 10.7108 627.686 10.8582 627.872 11.044L634 17.1707L640.128 11.0427C640.312 10.8516 640.533 10.6991 640.777 10.5942C641.021 10.4892 641.283 10.4339 641.549 10.4315C641.814 10.4291 642.078 10.4795 642.324 10.58C642.57 10.6804 642.793 10.8288 642.981 11.0165C643.169 11.2042 643.317 11.4275 643.418 11.6732C643.519 11.9189 643.569 12.1823 643.567 12.4478C643.565 12.7134 643.51 12.9759 643.405 13.2199C643.301 13.464 643.148 13.6847 642.957 13.8693L635.413 21.4133Z" fill="currentColor"/>
  </symbol>

  <!-- E -->

  <symbol id="icons.editor" viewBox="1133 0 32 32">
    <path fill-rule="evenodd" clip-rule="evenodd" d="M1153.44 4.96269C1154.16 4.24456 1155.12 3.82637 1156.13 3.79294C1157.15 3.75951 1158.14 4.11335 1158.9 4.78269L1159.09 4.96269L1160.04 5.90536C1160.76 6.62326 1161.17 7.5872 1161.21 8.60181C1161.24 9.61642 1160.89 10.6058 1160.22 11.3694L1160.04 11.5614L1156.07 15.528L1160.31 19.7707C1160.79 20.2426 1161.06 20.8746 1161.09 21.5417C1161.12 22.2087 1160.9 22.8624 1160.47 23.3734L1160.31 23.5427L1156.54 27.3134C1156.07 27.7853 1155.44 28.0631 1154.77 28.092C1154.11 28.1209 1153.45 27.8987 1152.94 27.4694L1152.77 27.3134L1148.53 23.0707L1145.38 26.2227C1145.12 26.4799 1144.8 26.662 1144.44 26.7494L1144.23 26.7894L1139 27.496C1138.81 27.5218 1138.62 27.5061 1138.43 27.4498C1138.25 27.3935 1138.08 27.2981 1137.94 27.17C1137.79 27.042 1137.68 26.8843 1137.6 26.7079C1137.53 26.5315 1137.49 26.3405 1137.49 26.148L1137.5 25.9947L1138.21 20.7694C1138.26 20.4092 1138.4 20.069 1138.63 19.7854L1138.78 19.6227L1141.93 16.472L1137.69 12.2294C1137.21 11.7574 1136.94 11.1255 1136.91 10.4584C1136.88 9.79133 1137.1 9.1377 1137.53 8.62669L1137.69 8.45736L1141.46 4.68669C1141.93 4.21476 1142.56 3.93692 1143.23 3.90804C1143.89 3.87916 1144.55 4.10133 1145.06 4.53069L1145.23 4.68669L1149.47 8.92936L1153.44 4.96269ZM1154.19 17.4147L1150.41 21.1854L1150.89 21.6574L1151.83 20.7147C1152.07 20.473 1152.39 20.332 1152.73 20.3204C1153.07 20.3089 1153.4 20.4278 1153.66 20.6526C1153.91 20.8775 1154.07 21.1915 1154.1 21.5302C1154.13 21.8689 1154.03 22.2068 1153.83 22.4747L1153.71 22.6L1152.77 23.5427L1154.66 25.428L1158.43 21.6574L1154.19 17.4147ZM1143.34 6.57203L1139.57 10.3427L1141.46 12.2294L1142.4 11.2867C1142.65 11.0438 1142.99 10.9094 1143.34 10.9125C1143.69 10.9155 1144.02 11.0557 1144.27 11.3029C1144.52 11.5501 1144.66 11.8846 1144.66 12.2342C1144.66 12.5838 1144.53 12.9206 1144.29 13.172L1143.34 14.1147L1143.82 14.5854L1147.59 10.8147L1143.34 6.57203Z" fill="currentColor"/>
  </symbol>

  <!-- F -->


  <!-- G -->

  <symbol id="icons.game" viewBox="0 0 32 32">
    <path d="M22.6667 5.33333C24.1413 5.33333 25.2733 6.45733 26.112 7.66666L26.396 8.09466L26.656 8.52133C26.7387 8.65999 26.8173 8.79866 26.8933 8.93199C27.9427 10.808 28.856 13.2573 29.46 15.6773C30.06 18.0787 30.392 20.5867 30.18 22.5587C29.9667 24.5387 28.9467 26.6667 26.6667 26.6667C24.6213 26.6667 23.0093 25.5733 21.7 24.5053L20.22 23.264C18.9893 22.256 17.6427 21.3333 16 21.3333C14.3573 21.3333 13.0093 22.256 11.7813 23.264L10.3013 24.504C8.98934 25.5733 7.37734 26.6667 5.33334 26.6667C3.052 26.6667 2.032 24.5387 1.82 22.5587C1.60934 20.5853 1.94 18.0787 2.54 15.6773C3.144 13.2573 4.05734 10.808 5.10667 8.93199L5.344 8.51999L5.604 8.09466L5.888 7.66666C6.72667 6.45733 7.85867 5.33333 9.33334 5.33333C10.0133 5.33333 10.6893 5.49866 11.3533 5.69333L12.144 5.936C12.2747 5.976 12.404 6.01466 12.5333 6.05066C13.6867 6.38133 14.8667 6.66666 16 6.66666C17.1333 6.66666 18.3133 6.38133 19.4667 6.05066L20.6467 5.69466C21.3107 5.49866 21.9867 5.33333 22.6667 5.33333ZM11.3333 10.6667C10.4493 10.6667 9.60143 11.0179 8.97631 11.643C8.35119 12.2681 8 13.1159 8 14C8 14.8841 8.35119 15.7319 8.97631 16.357C9.60143 16.9821 10.4493 17.3333 11.3333 17.3333C12.2174 17.3333 13.0652 16.9821 13.6904 16.357C14.3155 15.7319 14.6667 14.8841 14.6667 14C14.6667 13.1159 14.3155 12.2681 13.6904 11.643C13.0652 11.0179 12.2174 10.6667 11.3333 10.6667ZM20.6667 10.6667C20.313 10.6667 19.9739 10.8071 19.7239 11.0572C19.4738 11.3072 19.3333 11.6464 19.3333 12V12.6667H18.6667C18.313 12.6667 17.9739 12.8071 17.7239 13.0572C17.4738 13.3072 17.3333 13.6464 17.3333 14C17.3333 14.3536 17.4738 14.6928 17.7239 14.9428C17.9739 15.1929 18.313 15.3333 18.6667 15.3333H19.3333V16C19.3333 16.3536 19.4738 16.6928 19.7239 16.9428C19.9739 17.1929 20.313 17.3333 20.6667 17.3333C21.0203 17.3333 21.3594 17.1929 21.6095 16.9428C21.8595 16.6928 22 16.3536 22 16V15.3333H22.6667C23.0203 15.3333 23.3594 15.1929 23.6095 14.9428C23.8595 14.6928 24 14.3536 24 14C24 13.6464 23.8595 13.3072 23.6095 13.0572C23.3594 12.8071 23.0203 12.6667 22.6667 12.6667H22V12C22 11.6464 21.8595 11.3072 21.6095 11.0572C21.3594 10.8071 21.0203 10.6667 20.6667 10.6667ZM11.3333 13.3333C11.5101 13.3333 11.6797 13.4036 11.8047 13.5286C11.9298 13.6536 12 13.8232 12 14C12 14.1768 11.9298 14.3464 11.8047 14.4714C11.6797 14.5964 11.5101 14.6667 11.3333 14.6667C11.1565 14.6667 10.987 14.5964 10.8619 14.4714C10.7369 14.3464 10.6667 14.1768 10.6667 14C10.6667 13.8232 10.7369 13.6536 10.8619 13.5286C10.987 13.4036 11.1565 13.3333 11.3333 13.3333Z" fill="currentColor"/>
  </symbol>

  <symbol id="icons.globe" viewBox="0 216 32 32">
    <path d="M16 218.667C23.364 218.667 29.3333 224.636 29.3333 232C29.3333 239.364 23.364 245.333 16 245.333C8.636 245.333 2.66667 239.364 2.66667 232C2.66667 224.636 8.636 218.667 16 218.667ZM18.6667 233.867L16.5813 235.535C16.5081 235.593 16.4481 235.667 16.4052 235.75C16.3623 235.833 16.3374 235.925 16.3323 236.018C16.3271 236.112 16.3418 236.206 16.3753 236.293C16.4088 236.381 16.4604 236.46 16.5267 236.527L18.1787 238.179C18.4986 238.499 18.7317 238.895 18.856 239.331L19.0893 240.148C19.1861 240.491 19.358 240.808 19.5925 241.076C19.8271 241.344 20.1184 241.557 20.4453 241.699C21.7208 241.113 22.8684 240.281 23.8227 239.252L23.5107 236.749C23.4561 236.314 23.2949 235.899 23.0413 235.541C22.7878 235.182 22.4498 234.892 22.0573 234.696L20.0973 233.715C19.8693 233.601 19.6133 233.554 19.3597 233.581C19.1062 233.608 18.8656 233.707 18.6667 233.867ZM16 221.333C14.3681 221.332 12.7576 221.706 11.2931 222.426C9.82852 223.145 8.54901 224.192 7.55334 225.485L7.33334 225.78V228.027C7.33317 228.841 7.58135 229.635 8.04474 230.305C8.50813 230.974 9.16466 231.486 9.92667 231.772L10.164 231.852L11.884 232.379C13.7147 232.939 15.4973 231.449 15.32 229.584L15.2947 229.391L15.0613 227.992C15.0098 227.682 15.0692 227.364 15.2293 227.094C15.3893 226.824 15.6396 226.618 15.936 226.515L16.08 226.475L16.896 226.288C17.359 226.182 17.7961 225.985 18.1815 225.707C18.5669 225.43 18.8928 225.078 19.14 224.672C19.3872 224.267 19.5507 223.816 19.6207 223.346C19.6908 222.876 19.6661 222.397 19.548 221.937C18.4082 221.536 17.2084 221.332 16 221.333Z" fill="currentColor"/>
  </symbol>

  <symbol id="icons.grid" viewBox="0 0 32 32">
    <path d="M7.33335 22C8.0406 22 8.71887 22.281 9.21897 22.781C9.71907 23.2811 10 23.9594 10 24.6667C10 25.3739 9.71907 26.0522 9.21897 26.5523C8.71887 27.0524 8.0406 27.3333 7.33335 27.3333C6.62611 27.3333 5.94783 27.0524 5.44774 26.5523C4.94764 26.0522 4.66669 25.3739 4.66669 24.6667C4.66669 23.9594 4.94764 23.2811 5.44774 22.781C5.94783 22.281 6.62611 22 7.33335 22ZM16 22C16.7073 22 17.3855 22.281 17.8856 22.781C18.3857 23.2811 18.6667 23.9594 18.6667 24.6667C18.6667 25.3739 18.3857 26.0522 17.8856 26.5523C17.3855 27.0524 16.7073 27.3333 16 27.3333C15.2928 27.3333 14.6145 27.0524 14.1144 26.5523C13.6143 26.0522 13.3334 25.3739 13.3334 24.6667C13.3334 23.9594 13.6143 23.2811 14.1144 22.781C14.6145 22.281 15.2928 22 16 22ZM24.6667 22C25.3739 22 26.0522 22.281 26.5523 22.781C27.0524 23.2811 27.3334 23.9594 27.3334 24.6667C27.3334 25.3739 27.0524 26.0522 26.5523 26.5523C26.0522 27.0524 25.3739 27.3333 24.6667 27.3333C23.9594 27.3333 23.2812 27.0524 22.7811 26.5523C22.281 26.0522 22 25.3739 22 24.6667C22 23.9594 22.281 23.2811 22.7811 22.781C23.2812 22.281 23.9594 22 24.6667 22ZM7.33335 13.3333C8.0406 13.3333 8.71887 13.6143 9.21897 14.1144C9.71907 14.6145 10 15.2928 10 16C10 16.7072 9.71907 17.3855 9.21897 17.8856C8.71887 18.3857 8.0406 18.6667 7.33335 18.6667C6.62611 18.6667 5.94783 18.3857 5.44774 17.8856C4.94764 17.3855 4.66669 16.7072 4.66669 16C4.66669 15.2928 4.94764 14.6145 5.44774 14.1144C5.94783 13.6143 6.62611 13.3333 7.33335 13.3333ZM16 13.3333C16.7073 13.3333 17.3855 13.6143 17.8856 14.1144C18.3857 14.6145 18.6667 15.2928 18.6667 16C18.6667 16.7072 18.3857 17.3855 17.8856 17.8856C17.3855 18.3857 16.7073 18.6667 16 18.6667C15.2928 18.6667 14.6145 18.3857 14.1144 17.8856C13.6143 17.3855 13.3334 16.7072 13.3334 16C13.3334 15.2928 13.6143 14.6145 14.1144 14.1144C14.6145 13.6143 15.2928 13.3333 16 13.3333ZM24.6667 13.3333C25.3739 13.3333 26.0522 13.6143 26.5523 14.1144C27.0524 14.6145 27.3334 15.2928 27.3334 16C27.3334 16.7072 27.0524 17.3855 26.5523 17.8856C26.0522 18.3857 25.3739 18.6667 24.6667 18.6667C23.9594 18.6667 23.2812 18.3857 22.7811 17.8856C22.281 17.3855 22 16.7072 22 16C22 15.2928 22.281 14.6145 22.7811 14.1144C23.2812 13.6143 23.9594 13.3333 24.6667 13.3333ZM7.33335 4.66667C8.0406 4.66667 8.71887 4.94762 9.21897 5.44772C9.71907 5.94781 10 6.62609 10 7.33333C10 8.04058 9.71907 8.71886 9.21897 9.21895C8.71887 9.71905 8.0406 10 7.33335 10C6.62611 10 5.94783 9.71905 5.44774 9.21895C4.94764 8.71886 4.66669 8.04058 4.66669 7.33333C4.66669 6.62609 4.94764 5.94781 5.44774 5.44772C5.94783 4.94762 6.62611 4.66667 7.33335 4.66667ZM16 4.66667C16.7073 4.66667 17.3855 4.94762 17.8856 5.44772C18.3857 5.94781 18.6667 6.62609 18.6667 7.33333C18.6667 8.04058 18.3857 8.71886 17.8856 9.21895C17.3855 9.71905 16.7073 10 16 10C15.2928 10 14.6145 9.71905 14.1144 9.21895C13.6143 8.71886 13.3334 8.04058 13.3334 7.33333C13.3334 6.62609 13.6143 5.94781 14.1144 5.44772C14.6145 4.94762 15.2928 4.66667 16 4.66667ZM24.6667 4.66667C25.3739 4.66667 26.0522 4.94762 26.5523 5.44772C27.0524 5.94781 27.3334 6.62609 27.3334 7.33333C27.3334 8.04058 27.0524 8.71886 26.5523 9.21895C26.0522 9.71905 25.3739 10 24.6667 10C23.9594 10 23.2812 9.71905 22.7811 9.21895C22.281 8.71886 22 8.04058 22 7.33333C22 6.62609 22.281 5.94781 22.7811 5.44772C23.2812 4.94762 23.9594 4.66667 24.6667 4.66667Z" fill="currentColor"/>
  </symbol>

  <symbol id="icons.group" viewBox="927 0 32 32">
    <path d="M943 16C945.497 16 947.76 16.8267 949.42 17.9827C950.997 19.0827 952.333 20.7173 952.333 22.476C952.333 23.4413 951.921 24.2413 951.272 24.836C950.661 25.3973 949.864 25.7613 949.043 26.0093C947.401 26.5067 945.24 26.6667 943 26.6667C940.76 26.6667 938.599 26.5067 936.957 26.0093C936.136 25.7613 935.339 25.3973 934.727 24.836C934.08 24.2427 933.667 23.4427 933.667 22.4773C933.667 20.7187 935.003 19.084 936.58 17.984C938.24 16.8267 940.503 16 943 16ZM952.333 17.3333C953.725 17.3333 954.989 17.7933 955.924 18.444C956.777 19.04 957.667 20.0307 957.667 21.2387C957.667 21.928 957.367 22.5 956.92 22.9093C956.512 23.284 956.008 23.504 955.548 23.6427C954.921 23.832 954.181 23.9293 953.413 23.972C953.576 23.512 953.667 23.012 953.667 22.476C953.667 20.4293 952.388 18.6907 950.957 17.484C951.409 17.384 951.871 17.3334 952.333 17.3333ZM933.667 17.3333C934.143 17.3333 934.604 17.3867 935.043 17.484C933.613 18.6907 932.333 20.4293 932.333 22.476C932.333 23.012 932.424 23.512 932.587 23.972C931.819 23.9293 931.08 23.832 930.452 23.6427C929.992 23.504 929.488 23.284 929.079 22.9093C928.844 22.6993 928.656 22.442 928.528 22.1543C928.399 21.8666 928.333 21.5551 928.333 21.24C928.333 20.0333 929.221 19.0413 930.076 18.4453C931.133 17.7203 932.385 17.3326 933.667 17.3333ZM951.667 9.33333C952.551 9.33333 953.399 9.68452 954.024 10.3096C954.649 10.9348 955 11.7826 955 12.6667C955 13.5507 954.649 14.3986 954.024 15.0237C953.399 15.6488 952.551 16 951.667 16C950.783 16 949.935 15.6488 949.31 15.0237C948.685 14.3986 948.333 13.5507 948.333 12.6667C948.333 11.7826 948.685 10.9348 949.31 10.3096C949.935 9.68452 950.783 9.33333 951.667 9.33333ZM934.333 9.33333C935.217 9.33333 936.065 9.68452 936.69 10.3096C937.315 10.9348 937.667 11.7826 937.667 12.6667C937.667 13.5507 937.315 14.3986 936.69 15.0237C936.065 15.6488 935.217 16 934.333 16C933.449 16 932.601 15.6488 931.976 15.0237C931.351 14.3986 931 13.5507 931 12.6667C931 11.7826 931.351 10.9348 931.976 10.3096C932.601 9.68452 933.449 9.33333 934.333 9.33333ZM943 4C944.414 4 945.771 4.5619 946.771 5.5621C947.771 6.56229 948.333 7.91885 948.333 9.33333C948.333 10.7478 947.771 12.1044 946.771 13.1046C945.771 14.1048 944.414 14.6667 943 14.6667C941.586 14.6667 940.229 14.1048 939.229 13.1046C938.229 12.1044 937.667 10.7478 937.667 9.33333C937.667 7.91885 938.229 6.56229 939.229 5.5621C940.229 4.5619 941.586 4 943 4Z" fill="currentColor"/>
  </symbol>

  <!-- H -->

  <symbol id="icons.hide" viewBox="515 216 32 32">
    <g transform="translate(515 216)">
      <path fill-rule="evenodd" clip-rule="evenodd" d="M3.33333 12C3.33283 11.5163 3.50765 11.0488 3.8254 10.6841C4.14315 10.3194 4.5823 10.0822 5.06151 10.0165C5.54072 9.95075 6.02752 10.0609 6.43174 10.3266C6.83597 10.5922 7.13022 10.9954 7.26 11.4613C9.856 20.1307 22.1373 20.132 24.7387 11.468C24.8118 11.2146 24.9342 10.9782 25.0991 10.7723C25.2639 10.5664 25.4678 10.3952 25.6991 10.2685C25.9304 10.1417 26.1844 10.062 26.4466 10.0338C26.7089 10.0056 26.9741 10.0296 27.227 10.1043C27.4799 10.179 27.7155 10.303 27.9203 10.4692C28.1251 10.6353 28.2951 10.8403 28.4203 11.0724C28.5456 11.3045 28.6237 11.5591 28.6502 11.8215C28.6767 12.0838 28.651 12.3489 28.5747 12.6013C28.119 14.1581 27.3859 15.6198 26.4107 16.916L27.6907 18.196C27.8816 18.3806 28.0339 18.6013 28.1386 18.8454C28.2433 19.0894 28.2983 19.3519 28.3005 19.6175C28.3027 19.883 28.2519 20.1464 28.1513 20.3921C28.0506 20.6378 27.902 20.8611 27.7141 21.0488C27.5262 21.2365 27.3029 21.3849 27.057 21.4853C26.8112 21.5858 26.5478 21.6362 26.2822 21.6338C26.0167 21.6314 25.7543 21.5761 25.5103 21.4712C25.2663 21.3662 25.0457 21.2138 24.8613 21.0227L23.5147 19.676C22.8146 20.1553 22.0688 20.564 21.288 20.896L21.612 22.104C21.7349 22.6114 21.6545 23.1468 21.388 23.5957C21.1215 24.0447 20.69 24.3716 20.1857 24.5067C19.6814 24.6418 19.1442 24.5743 18.689 24.3187C18.2337 24.0631 17.8965 23.6396 17.7493 23.1387L17.4147 21.892C16.4747 21.9893 15.5253 21.9893 14.5853 21.892L14.252 23.1387C14.1148 23.651 13.7797 24.088 13.3203 24.3533C12.861 24.6186 12.3151 24.6905 11.8027 24.5533C11.2903 24.4161 10.8534 24.081 10.5881 23.6216C10.3228 23.1623 10.2508 22.6164 10.388 22.104L10.7107 20.8947C9.93039 20.563 9.18496 20.1548 8.48533 19.676L7.13866 21.0227C6.95426 21.2138 6.73364 21.3662 6.48968 21.4712C6.24572 21.5761 5.98331 21.6314 5.71776 21.6338C5.4522 21.6362 5.18882 21.5858 4.94298 21.4853C4.69714 21.3849 4.47377 21.2365 4.28589 21.0488C4.09802 20.8611 3.94941 20.6378 3.84873 20.3921C3.74805 20.1464 3.69733 19.883 3.69951 19.6175C3.70169 19.3519 3.75674 19.0894 3.86144 18.8454C3.96614 18.6013 4.1184 18.3806 4.30933 18.196L5.58933 16.916C4.61634 15.6219 3.88464 14.163 3.42933 12.6093C3.36601 12.4124 3.33363 12.2068 3.33333 12Z" fill="currentColor"/>
    </g>
  </symbol>

  <!-- I -->


  <!-- J -->
  
  
  <!-- K -->
  
  
  <!-- L -->

  <symbol id="icons.left" viewBox="0 0 32 32">
    <path fill-rule="evenodd" clip-rule="evenodd" d="M10.5867 17.4133C10.2121 17.0383 10.0018 16.53 10.0018 16C10.0018 15.47 10.2121 14.9617 10.5867 14.5867L18.128 7.04267C18.5032 6.66765 19.012 6.45704 19.5425 6.45716C19.8051 6.45723 20.0652 6.50902 20.3079 6.6096C20.5505 6.71017 20.771 6.85756 20.9567 7.04333C21.1424 7.22911 21.2896 7.44964 21.3901 7.69234C21.4906 7.93503 21.5422 8.19514 21.5422 8.45781C21.5421 8.72047 21.4903 8.98055 21.3897 9.2232C21.2892 9.46585 21.1418 9.68631 20.956 9.872L14.8293 16L20.9573 22.128C21.1484 22.3124 21.3009 22.533 21.4058 22.777C21.5108 23.0209 21.5661 23.2834 21.5685 23.5489C21.5709 23.8145 21.5205 24.0778 21.42 24.3237C21.3196 24.5695 21.1712 24.7929 20.9835 24.9808C20.7958 25.1686 20.5725 25.3173 20.3268 25.4179C20.0811 25.5186 19.8177 25.5693 19.5522 25.5672C19.2866 25.565 19.0241 25.5099 18.7801 25.4052C18.536 25.3005 18.3153 25.1483 18.1307 24.9573L10.584 17.4133H10.5867Z" fill="currentColor"/>
  </symbol>

  <symbol id="icons.like" viewBox="103 108 32 32">
    <path d="M123 118.667H126.207C126.988 118.667 127.76 118.838 128.467 119.169C129.175 119.5 129.801 119.983 130.302 120.583C130.803 121.182 131.165 121.885 131.365 122.64C131.564 123.396 131.595 124.186 131.455 124.955L130.241 131.621C130.018 132.85 129.37 133.961 128.412 134.761C127.453 135.561 126.245 136 124.996 136H113.667V120L116.095 112.283C116.489 111.363 117.508 110.528 118.793 110.776C120.832 111.167 123 112.755 123 115.333V118.667ZM111 120C109.939 120 108.922 120.421 108.172 121.172C107.421 121.922 107 122.939 107 124V132C107 133.061 107.421 134.078 108.172 134.828C108.922 135.579 109.939 136 111 136V120Z" fill="currentColor"/>
  </symbol>

  <symbol id="icons.lock" viewBox="412 216 32 32">
    <path fill-rule="evenodd" clip-rule="evenodd" d="M420 226.667C420 224.545 420.843 222.51 422.343 221.01C423.843 219.51 425.878 218.667 428 218.667C430.122 218.667 432.157 219.51 433.657 221.01C435.157 222.51 436 224.545 436 226.667H437.333C438.041 226.667 438.719 226.948 439.219 227.448C439.719 227.948 440 228.626 440 229.333V242.667C440 243.374 439.719 244.052 439.219 244.552C438.719 245.052 438.041 245.333 437.333 245.333H418.667C417.959 245.333 417.281 245.052 416.781 244.552C416.281 244.052 416 243.374 416 242.667V229.333C416 228.626 416.281 227.948 416.781 227.448C417.281 226.948 417.959 226.667 418.667 226.667H420ZM428 221.333C429.414 221.333 430.771 221.895 431.771 222.895C432.771 223.896 433.333 225.252 433.333 226.667H422.667C422.667 225.252 423.229 223.896 424.229 222.895C425.229 221.895 426.586 221.333 428 221.333ZM430.667 234.667C430.667 235.135 430.543 235.595 430.309 236C430.075 236.405 429.739 236.742 429.333 236.976V238.667C429.333 239.02 429.193 239.359 428.943 239.609C428.693 239.86 428.354 240 428 240C427.646 240 427.307 239.86 427.057 239.609C426.807 239.359 426.667 239.02 426.667 238.667V236.976C426.158 236.682 425.761 236.229 425.536 235.687C425.312 235.145 425.272 234.543 425.424 233.976C425.576 233.409 425.911 232.908 426.377 232.551C426.842 232.194 427.413 232 428 232C428.707 232 429.386 232.281 429.886 232.781C430.386 233.281 430.667 233.959 430.667 234.667Z" fill="currentColor"/>
  </symbol>

  <!-- M -->

  <symbol id="icons.message" viewBox="618 0 32 32">
    <path d="M634 2.66666C641.364 2.66666 647.333 8.63599 647.333 16C647.333 23.364 641.364 29.3333 634 29.3333H623.333C622.626 29.3333 621.948 29.0524 621.448 28.5523C620.948 28.0522 620.667 27.3739 620.667 26.6667V16C620.667 8.63599 626.636 2.66666 634 2.66666ZM634 18.6667H630C629.646 18.6667 629.307 18.8071 629.057 19.0572C628.807 19.3072 628.667 19.6464 628.667 20C628.667 20.3536 628.807 20.6927 629.057 20.9428C629.307 21.1928 629.646 21.3333 630 21.3333H634C634.354 21.3333 634.693 21.1928 634.943 20.9428C635.193 20.6927 635.333 20.3536 635.333 20C635.333 19.6464 635.193 19.3072 634.943 19.0572C634.693 18.8071 634.354 18.6667 634 18.6667ZM638 13.3333H630C629.66 13.3337 629.333 13.4638 629.086 13.6971C628.839 13.9304 628.69 14.2493 628.67 14.5885C628.651 14.9278 628.761 15.2618 628.979 15.5224C629.197 15.783 629.507 15.9505 629.844 15.9907L630 16H638C638.34 15.9996 638.667 15.8695 638.914 15.6362C639.161 15.4029 639.31 15.0841 639.33 14.7448C639.349 14.4055 639.239 14.0715 639.021 13.8109C638.803 13.5503 638.493 13.3828 638.156 13.3427L638 13.3333Z" fill="currentColor"/>
  </symbol>

  <symbol id="icons.mic" viewBox="0 0 32 32">
    <path d="M25.4267 16.0133C25.6003 16.0378 25.7673 16.0964 25.9183 16.1855C26.0692 16.2747 26.2011 16.3927 26.3064 16.5329C26.4116 16.6731 26.4882 16.8327 26.5317 17.0025C26.5753 17.1724 26.5849 17.3491 26.56 17.5227C26.2258 19.8347 25.1422 21.9732 23.4755 23.61C21.8088 25.2469 19.651 26.2916 17.3333 26.584V28C17.3333 28.3536 17.1929 28.6927 16.9428 28.9428C16.6928 29.1928 16.3536 29.3333 16 29.3333C15.6464 29.3333 15.3072 29.1928 15.0572 28.9428C14.8072 28.6927 14.6667 28.3536 14.6667 28V26.584C12.3493 26.2912 10.192 25.2462 8.52556 23.6094C6.85916 21.9726 5.77569 19.8344 5.44134 17.5227C5.39113 17.1726 5.48204 16.8169 5.69408 16.5338C5.90612 16.2508 6.22192 16.0635 6.57201 16.0133C6.92209 15.9631 7.27779 16.054 7.56084 16.2661C7.8439 16.4781 8.03113 16.7939 8.08134 17.144C8.3571 19.0474 9.30926 20.7879 10.7635 22.0466C12.2177 23.3053 14.0767 23.9981 16 23.9981C17.9233 23.9981 19.7823 23.3053 21.2365 22.0466C22.6908 20.7879 23.6429 19.0474 23.9187 17.144C23.9435 16.9706 24.0023 16.8039 24.0916 16.6532C24.1809 16.5026 24.299 16.371 24.4391 16.266C24.5793 16.161 24.7388 16.0847 24.9084 16.0413C25.0781 15.9979 25.2533 15.9884 25.4267 16.0133ZM16 2.66666C17.7681 2.66666 19.4638 3.36904 20.7141 4.61928C21.9643 5.86952 22.6667 7.56521 22.6667 9.33332V16C22.6667 17.7681 21.9643 19.4638 20.7141 20.714C19.4638 21.9643 17.7681 22.6667 16 22.6667C14.2319 22.6667 12.5362 21.9643 11.286 20.714C10.0357 19.4638 9.33334 17.7681 9.33334 16V9.33332C9.33334 7.56521 10.0357 5.86952 11.286 4.61928C12.5362 3.36904 14.2319 2.66666 16 2.66666Z" fill="currentColor"/>
  </symbol>

  <symbol id="icons.micoff" viewBox="103 0 32 32">
    <path d="M109.573 16.0133C109.923 15.9638 110.278 16.0551 110.56 16.2671C110.843 16.479 111.03 16.7944 111.08 17.144C111.247 18.3024 111.666 19.4101 112.308 20.3889C112.95 21.3677 113.799 22.1938 114.794 22.8089C115.79 23.424 116.909 23.8132 118.071 23.9489C119.234 24.0847 120.412 23.9638 121.523 23.5947L121.913 23.452L123.925 25.464C122.948 25.9738 121.897 26.3278 120.811 26.5133L120.333 26.584V28C120.333 28.3398 120.203 28.6667 119.97 28.9138C119.736 29.1609 119.417 29.3096 119.078 29.3296C118.739 29.3495 118.405 29.2391 118.144 29.021C117.884 28.8029 117.716 28.4935 117.676 28.156L117.667 28V26.584C115.349 26.2912 113.192 25.2462 111.526 23.6094C109.859 21.9726 108.776 19.8344 108.441 17.5227C108.416 17.3493 108.426 17.1728 108.469 17.0031C108.513 16.8334 108.589 16.6739 108.694 16.5338C108.799 16.3936 108.931 16.2755 109.081 16.1862C109.232 16.0969 109.4 16.0382 109.573 16.0133ZM119 2.66666C120.718 2.66676 122.37 3.33005 123.61 4.5182C124.851 5.70636 125.585 7.32766 125.66 9.04399L125.667 9.33332V16C125.668 17.1902 125.35 18.3589 124.745 19.384L124.563 19.6773L125.521 20.636C126.244 19.6227 126.735 18.4333 126.919 17.144C126.969 16.7939 127.156 16.4781 127.439 16.2661C127.722 16.054 128.078 15.9631 128.428 16.0133C128.778 16.0635 129.094 16.2508 129.306 16.5338C129.518 16.8169 129.609 17.1726 129.559 17.5227C129.317 19.2127 128.671 20.8195 127.676 22.2067L127.427 22.54L130.313 25.428C130.552 25.6679 130.691 25.9899 130.702 26.3285C130.712 26.6671 130.593 26.9969 130.369 27.251C130.145 27.5051 129.833 27.6644 129.495 27.6965C129.158 27.7286 128.821 27.6312 128.553 27.424L128.428 27.3133L107.687 6.57332C107.448 6.33338 107.309 6.01141 107.298 5.67281C107.288 5.33421 107.407 5.00437 107.631 4.75029C107.855 4.4962 108.167 4.33692 108.505 4.30479C108.842 4.27267 109.179 4.37011 109.447 4.57732L109.572 4.68799L112.545 7.66132C112.916 6.23155 113.751 4.96536 114.919 4.0614C116.088 3.15745 117.523 2.66688 119 2.66666ZM112.333 13.872L120.864 22.4027C119.87 22.692 118.823 22.7461 117.805 22.5606C116.787 22.375 115.826 21.955 114.998 21.3338C114.17 20.7126 113.499 19.9072 113.036 18.9814C112.574 18.0556 112.333 17.0349 112.333 16V13.872Z" fill="currentColor"/>
  </symbol>

  <symbol id="icons.mute" viewBox="309 0 32 32">
    <path d="M315.128 10.6667L329 24.5387V26.408C329 26.6776 328.926 26.942 328.785 27.1722C328.645 27.4024 328.444 27.5894 328.204 27.7127C327.964 27.836 327.695 27.8909 327.426 27.8712C327.158 27.8516 326.899 27.7582 326.68 27.6013L317.907 21.3333H314.333C313.626 21.3333 312.948 21.0524 312.448 20.5523C311.948 20.0522 311.667 19.3739 311.667 18.6667V13.3333C311.667 12.6261 311.948 11.9478 312.448 11.4477C312.948 10.9476 313.626 10.6667 314.333 10.6667H315.128ZM329 5.59199V18.1147L330.484 19.5987C330.36 19.3611 330.31 19.0917 330.342 18.8255C330.373 18.5594 330.484 18.3089 330.66 18.1067L330.777 17.988C331.324 17.4973 331.667 16.7893 331.667 16C331.668 15.3172 331.407 14.6601 330.936 14.1653L330.777 14.012C330.518 13.7751 330.362 13.4453 330.344 13.0943C330.326 12.7432 330.448 12.3994 330.682 12.1375C330.917 11.8757 331.245 11.717 331.596 11.696C331.947 11.6749 332.292 11.7933 332.556 12.0253C333.116 12.5252 333.563 13.1377 333.87 13.8227C334.176 14.5077 334.334 15.2496 334.333 16C334.334 16.7504 334.176 17.4925 333.87 18.1775C333.564 18.8625 333.116 19.475 332.556 19.9747C332.354 20.1558 332.101 20.2709 331.832 20.3048C331.563 20.3386 331.29 20.2895 331.049 20.164L333.009 22.124C332.983 21.9107 333.009 21.6944 333.085 21.4933C333.161 21.2922 333.284 21.1125 333.444 20.9693C334.144 20.3448 334.704 19.5791 335.087 18.7226C335.47 17.8662 335.668 16.9383 335.667 16C335.667 14.0267 334.811 12.2533 333.444 11.0307C333.312 10.9144 333.204 10.7731 333.126 10.6148C333.049 10.4566 333.004 10.2846 332.993 10.1088C332.983 9.93297 333.007 9.75681 333.065 9.59048C333.123 9.42414 333.213 9.27094 333.331 9.13971C333.448 9.00848 333.591 8.90183 333.749 8.82592C333.908 8.75002 334.081 8.70635 334.257 8.69745C334.433 8.68855 334.609 8.71459 334.774 8.77407C334.94 8.83356 335.093 8.9253 335.223 9.04399C336.202 9.9186 336.986 10.9905 337.522 12.1893C338.058 13.3881 338.335 14.6868 338.333 16C338.335 17.3132 338.058 18.6119 337.522 19.8107C336.986 21.0095 336.202 22.0814 335.223 22.956C335.081 23.0829 334.914 23.1781 334.733 23.2351C334.552 23.2922 334.361 23.3097 334.172 23.2867L336.313 25.428C336.556 25.6795 336.691 26.0163 336.688 26.3659C336.685 26.7155 336.544 27.0499 336.297 27.2971C336.05 27.5443 335.715 27.6845 335.366 27.6876C335.016 27.6906 334.679 27.5562 334.428 27.3133L313.687 6.57333C313.559 6.45033 313.458 6.30321 313.388 6.14053C313.318 5.97786 313.281 5.8029 313.28 5.62586C313.278 5.44882 313.312 5.27325 313.379 5.10939C313.446 4.94553 313.545 4.79666 313.67 4.67147C313.795 4.54628 313.944 4.44727 314.108 4.38023C314.272 4.31319 314.447 4.27946 314.625 4.28099C314.802 4.28253 314.977 4.31931 315.139 4.38919C315.302 4.45907 315.449 4.56065 315.572 4.68799L320.033 9.14666L326.681 4.39733C326.901 4.24077 327.159 4.14768 327.428 4.12829C327.697 4.10889 327.966 4.16393 328.205 4.28737C328.445 4.4108 328.646 4.59786 328.786 4.82801C328.926 5.05816 329 5.32249 329 5.59199Z" fill="currentColor"/>
  </symbol>

  <!-- N -->

  <symbol id="icons.notice" viewBox="206 216 32 32">
    <path d="M222 218.667C229.364 218.667 235.333 224.636 235.333 232C235.333 239.364 229.364 245.333 222 245.333H211.333C210.626 245.333 209.948 245.052 209.448 244.552C208.948 244.052 208.667 243.374 208.667 242.667V232C208.667 224.636 214.636 218.667 222 218.667ZM222 234.667H218C217.646 234.667 217.307 234.807 217.057 235.057C216.807 235.307 216.667 235.646 216.667 236C216.667 236.354 216.807 236.693 217.057 236.943C217.307 237.193 217.646 237.333 218 237.333H222C222.354 237.333 222.693 237.193 222.943 236.943C223.193 236.693 223.333 236.354 223.333 236C223.333 235.646 223.193 235.307 222.943 235.057C222.693 234.807 222.354 234.667 222 234.667ZM226 229.333H218C217.66 229.334 217.333 229.464 217.086 229.697C216.839 229.93 216.69 230.249 216.67 230.589C216.651 230.928 216.761 231.262 216.979 231.522C217.197 231.783 217.507 231.951 217.844 231.991L218 232H226C226.34 232 226.667 231.869 226.914 231.636C227.161 231.403 227.31 231.084 227.33 230.745C227.349 230.406 227.239 230.071 227.021 229.811C226.803 229.55 226.493 229.383 226.156 229.343L226 229.333Z" fill="currentColor"/>
  </symbol>

  <!-- O -->

  <symbol id="icons.open" viewBox="618 108 32 32">
    <path d="M637.333 113.333C637.333 112.803 637.544 112.294 637.919 111.919C638.294 111.544 638.803 111.333 639.333 111.333H644.667C645.551 111.333 646.399 111.685 647.024 112.31C647.649 112.935 648 113.783 648 114.667V133.333C648 134.217 647.649 135.065 647.024 135.69C646.399 136.316 645.551 136.667 644.667 136.667H639.333C638.803 136.667 638.294 136.456 637.919 136.081C637.544 135.706 637.333 135.197 637.333 134.667C637.333 134.136 637.544 133.628 637.919 133.253C638.294 132.877 638.803 132.667 639.333 132.667H644V115.333H639.333C638.803 115.333 638.294 115.123 637.919 114.748C637.544 114.373 637.333 113.864 637.333 113.333ZM620 124C620 123.47 620.211 122.961 620.586 122.586C620.961 122.211 621.47 122 622 122H634.048L631.805 119.757C631.447 119.379 631.251 118.876 631.258 118.355C631.265 117.835 631.475 117.337 631.843 116.969C632.212 116.6 632.709 116.39 633.23 116.383C633.75 116.376 634.253 116.572 634.632 116.929L640.055 122.351C640.492 122.788 640.737 123.382 640.737 124C640.737 124.619 640.492 125.212 640.055 125.649L634.633 131.071C634.256 131.435 633.751 131.637 633.226 131.632C632.702 131.628 632.2 131.417 631.83 131.046C631.459 130.676 631.248 130.174 631.244 129.65C631.239 129.125 631.441 128.62 631.805 128.243L634.048 126H622C621.47 126 620.961 125.789 620.586 125.414C620.211 125.039 620 124.53 620 124Z" fill="currentColor"/>
  </symbol>

  <!-- P -->

  <symbol id="icons.pencil" viewBox="0 0 32 32">
    <path fill-rule="evenodd" clip-rule="evenodd" d="M26.8413 4.21334C26.0912 3.46345 25.074 3.04219 24.0133 3.04219C22.9527 3.04219 21.9354 3.46345 21.1853 4.21334L20.2427 5.15734L26.8427 11.7573L27.784 10.8147C28.1555 10.4432 28.4502 10.0022 28.6513 9.51689C28.8523 9.03155 28.9558 8.51135 28.9558 7.986C28.9558 7.46066 28.8523 6.94046 28.6513 6.45511C28.4502 5.96977 28.1555 5.52878 27.784 5.15734L26.8413 4.21334ZM24.956 13.6427L18.356 7.04267L6.236 19.164C5.97078 19.4293 5.7855 19.7638 5.70134 20.1293L4.32934 26.0693C4.27822 26.2899 4.28408 26.5198 4.34638 26.7374C4.40867 26.955 4.52535 27.1532 4.68542 27.3133C4.84548 27.4733 5.04366 27.59 5.26129 27.6523C5.47892 27.7146 5.70882 27.7205 5.92934 27.6693L11.8707 26.2987C12.2357 26.2143 12.5698 26.029 12.8347 25.764L24.956 13.6427Z" fill="currentColor"/>
  </symbol>

  <symbol id="icons.photo" viewBox="0 0 32 32">
    <path d="M26.6667 4C27.3739 4 28.0522 4.28095 28.5523 4.78105C29.0524 5.28115 29.3333 5.95942 29.3333 6.66667V25.3333C29.3333 26.0406 29.0524 26.7189 28.5523 27.219C28.0522 27.719 27.3739 28 26.6667 28H5.33334C4.62609 28 3.94782 27.719 3.44772 27.219C2.94762 26.7189 2.66667 26.0406 2.66667 25.3333V6.66667C2.66667 5.95942 2.94762 5.28115 3.44772 4.78105C3.94782 4.28095 4.62609 4 5.33334 4H26.6667ZM26.6667 6.66667H5.33334V20.1333L11.9933 13.4747C12.1481 13.3199 12.3319 13.1971 12.5341 13.1133C12.7363 13.0295 12.9531 12.9864 13.172 12.9864C13.3909 12.9864 13.6077 13.0295 13.8099 13.1133C14.0121 13.1971 14.1959 13.3199 14.3507 13.4747L19.7707 18.896L21.4213 17.2453C21.5761 17.0905 21.7599 16.9677 21.9621 16.8839C22.1643 16.8001 22.3811 16.757 22.6 16.757C22.8189 16.757 23.0357 16.8001 23.2379 16.8839C23.4401 16.9677 23.6239 17.0905 23.7787 17.2453L26.6667 20.1347V6.66667ZM20.6667 9.33333C21.1971 9.33333 21.7058 9.54405 22.0809 9.91912C22.456 10.2942 22.6667 10.8029 22.6667 11.3333C22.6667 11.8638 22.456 12.3725 22.0809 12.7475C21.7058 13.1226 21.1971 13.3333 20.6667 13.3333C20.1362 13.3333 19.6275 13.1226 19.2525 12.7475C18.8774 12.3725 18.6667 11.8638 18.6667 11.3333C18.6667 10.8029 18.8774 10.2942 19.2525 9.91912C19.6275 9.54405 20.1362 9.33333 20.6667 9.33333Z" fill="currentColor"/>
  </symbol>

  <symbol id="icons.play" viewBox="1030 0 32 32">
    <path fill-rule="evenodd" clip-rule="evenodd" d="M1037.56 6.34666C1037.59 6.04379 1037.7 5.75345 1037.87 5.49876C1038.04 5.24408 1038.26 5.03209 1038.53 4.87968C1038.79 4.72727 1039.09 4.63865 1039.39 4.62088C1039.69 4.60311 1040 4.65668 1040.28 4.77733C1041.69 5.38266 1044.87 6.82133 1048.89 9.14533C1052.92 11.4707 1055.76 13.5013 1056.99 14.4227C1058.04 15.2107 1058.04 16.7733 1056.99 17.564C1055.77 18.48 1052.97 20.484 1048.89 22.8387C1044.81 25.1933 1041.68 26.6147 1040.28 27.212C1039.07 27.728 1037.72 26.9453 1037.56 25.6427C1037.37 24.12 1037.03 20.6627 1037.03 15.9933C1037.03 11.3267 1037.37 7.87066 1037.56 6.34666Z" fill="currentColor"/>
  </symbol>

  <symbol id="icons.profile" viewBox="206 108 32 32">
    <path fill-rule="evenodd" clip-rule="evenodd" d="M222 110.667C214.636 110.667 208.667 116.636 208.667 124C208.667 131.364 214.636 137.333 222 137.333C229.364 137.333 235.333 131.364 235.333 124C235.333 116.636 229.364 110.667 222 110.667ZM217.333 120.667C217.333 120.054 217.454 119.447 217.689 118.881C217.923 118.315 218.267 117.8 218.7 117.367C219.133 116.933 219.648 116.59 220.214 116.355C220.78 116.121 221.387 116 222 116C222.613 116 223.22 116.121 223.786 116.355C224.352 116.59 224.866 116.933 225.3 117.367C225.733 117.8 226.077 118.315 226.311 118.881C226.546 119.447 226.667 120.054 226.667 120.667C226.667 121.904 226.175 123.091 225.3 123.967C224.425 124.842 223.238 125.333 222 125.333C220.762 125.333 219.575 124.842 218.7 123.967C217.825 123.091 217.333 121.904 217.333 120.667ZM230.344 130.645C229.346 131.901 228.077 132.915 226.632 133.611C225.187 134.307 223.604 134.668 222 134.667C220.396 134.668 218.813 134.307 217.368 133.611C215.923 132.915 214.654 131.901 213.656 130.645C215.817 129.095 218.767 128 222 128C225.233 128 228.183 129.095 230.344 130.645Z" fill="currentColor"/>
  </symbol>

  <!-- Q -->


  <!-- R -->
  
  <symbol id="icons.right" viewBox="0 0 32 32">
    <path fill-rule="evenodd" clip-rule="evenodd" d="M21.4133 14.5867C21.7879 14.9617 21.9982 15.47 21.9982 16C21.9982 16.53 21.7879 17.0383 21.4133 17.4133L13.872 24.9573C13.4968 25.3323 12.988 25.543 12.4575 25.5428C11.927 25.5427 11.4183 25.3319 11.0433 24.9567C10.6683 24.5815 10.4577 24.0727 10.4578 23.5422C10.4579 23.0117 10.6688 22.503 11.044 22.128L17.172 16L11.044 9.872C10.6795 9.49497 10.4777 8.98986 10.482 8.46546C10.4863 7.94106 10.6964 7.43933 11.067 7.06834C11.4377 6.69735 11.9392 6.48677 12.4636 6.48197C12.988 6.47717 13.4933 6.67852 13.8707 7.04267L21.4147 14.5853L21.4133 14.5867Z" fill="currentColor"/>
  </symbol>

  
  <!-- S -->

  <symbol id="icons.search" viewBox="0 108 32 32">
    <path fill-rule="evenodd" clip-rule="evenodd" d="M7.33333 121.333C7.33333 120.545 7.48852 119.765 7.79005 119.037C8.09158 118.309 8.53353 117.648 9.09069 117.091C9.64784 116.534 10.3093 116.092 11.0372 115.79C11.7652 115.489 12.5454 115.333 13.3333 115.333C14.1213 115.333 14.9015 115.489 15.6294 115.79C16.3574 116.092 17.0188 116.534 17.576 117.091C18.1331 117.648 18.5751 118.309 18.8766 119.037C19.1781 119.765 19.3333 120.545 19.3333 121.333C19.3333 122.925 18.7012 124.451 17.576 125.576C16.4507 126.701 14.9246 127.333 13.3333 127.333C11.742 127.333 10.2159 126.701 9.09069 125.576C7.96547 124.451 7.33333 122.925 7.33333 121.333ZM13.3333 111.333C11.774 111.333 10.2363 111.698 8.84309 112.399C7.44987 113.099 6.23974 114.115 5.30937 115.367C4.37899 116.618 3.75415 118.07 3.48475 119.606C3.21535 121.142 3.30887 122.719 3.75783 124.212C4.20678 125.706 4.99874 127.073 6.07044 128.206C7.14214 129.339 8.46387 130.205 9.93007 130.736C11.3963 131.267 12.9663 131.447 14.5147 131.263C16.0632 131.079 17.5471 130.536 18.848 129.676L25.252 136.081C25.6272 136.457 26.1361 136.667 26.6667 136.667C27.1973 136.667 27.7061 136.457 28.0813 136.081C28.4565 135.706 28.6673 135.197 28.6673 134.667C28.6673 134.136 28.4565 133.627 28.0813 133.252L21.676 126.848C22.6724 125.341 23.2418 123.592 23.3237 121.787C23.4057 119.982 22.9971 118.189 22.1414 116.597C21.2858 115.006 20.0149 113.676 18.464 112.749C16.9131 111.823 15.1401 111.333 13.3333 111.333Z" fill="currentColor"/>
  </symbol>

  <symbol id="icons.send" viewBox="515 0 32 32">
    <path d="M543.577 6.48134L535.577 27.148C535.498 27.3527 535.37 27.5347 535.203 27.6778C535.037 27.821 534.838 27.9209 534.624 27.9686C534.41 28.0164 534.187 28.0105 533.976 27.9515C533.764 27.8926 533.571 27.7824 533.412 27.6307L528.903 23.3173L526.137 26.0813C526.044 26.1744 525.925 26.2376 525.796 26.2632C525.667 26.2888 525.533 26.2754 525.411 26.2249C525.289 26.1744 525.185 26.089 525.112 25.9794C525.039 25.8699 525 25.7411 525 25.6093V19.584L518.079 12.964C517.907 12.7997 517.782 12.5925 517.717 12.3638C517.653 12.1352 517.65 11.8933 517.71 11.6634C517.77 11.4335 517.891 11.2238 518.059 11.056C518.228 10.8883 518.438 10.7686 518.668 10.7093L542.001 4.70934C542.239 4.64857 542.488 4.65431 542.722 4.72591C542.956 4.79752 543.166 4.93224 543.329 5.11529C543.492 5.29834 543.601 5.52265 543.644 5.76362C543.688 6.00458 543.664 6.2529 543.576 6.48134H543.577ZM540.333 8.00134L525.709 17.536L528.023 19.7493L540.333 8.00134Z" fill="currentColor"/>
  </symbol>

  <symbol id="icons.settings" viewBox="412 0 32 32">
    <path fill-rule="evenodd" clip-rule="evenodd" d="M425.287 3.74532C425.021 3.5511 424.712 3.42488 424.386 3.37769C424.061 3.33051 423.728 3.3638 423.419 3.47466C421.97 4.0053 420.625 4.78353 419.443 5.77466C419.192 5.9873 418.998 6.25802 418.876 6.56318C418.754 6.86833 418.709 7.19866 418.744 7.52532C418.844 8.52932 418.667 9.49866 418.184 10.3333C417.703 11.1693 416.951 11.808 416.031 12.2227C415.73 12.3559 415.466 12.5609 415.263 12.8196C415.059 13.0783 414.923 13.3828 414.864 13.7067C414.601 15.2242 414.601 16.7758 414.864 18.2933C414.988 19.0093 415.477 19.528 416.031 19.7787C416.951 20.192 417.703 20.832 418.185 21.6667C418.667 22.5027 418.844 23.4707 418.744 24.4747C418.684 25.0773 418.887 25.76 419.443 26.2253C420.625 27.2165 421.97 27.9947 423.419 28.5253C423.728 28.6361 424.06 28.6693 424.386 28.6221C424.711 28.5749 425.02 28.4488 425.285 28.2547C426.105 27.6653 427.035 27.3333 428 27.3333C428.965 27.3333 429.893 27.6653 430.713 28.2547C431.207 28.6093 431.9 28.7747 432.581 28.5253C434.03 27.9947 435.375 27.2164 436.557 26.2253C437.113 25.76 437.317 25.0787 437.256 24.4747C437.156 23.4707 437.332 22.5013 437.816 21.6667C438.297 20.8307 439.049 20.1933 439.969 19.7787C440.521 19.5293 441.012 19.0093 441.136 18.2933C441.399 16.7758 441.399 15.2242 441.136 13.7067C441.078 13.3828 440.941 13.0783 440.737 12.8196C440.534 12.5609 440.27 12.3559 439.969 12.2227C439.049 11.808 438.297 11.1693 437.815 10.3333C437.332 9.49866 437.156 8.52932 437.256 7.52532C437.291 7.19867 437.246 6.86838 437.124 6.56324C437.002 6.2581 436.808 5.98738 436.557 5.77466C435.375 4.78353 434.03 4.0053 432.581 3.47466C432.272 3.36403 431.94 3.33086 431.614 3.37804C431.289 3.42522 430.98 3.55132 430.715 3.74532C429.893 4.33332 428.964 4.66666 428 4.66666C427.036 4.66666 426.107 4.33466 425.287 3.74532ZM424 16C424 14.9391 424.421 13.9217 425.172 13.1716C425.922 12.4214 426.939 12 428 12C429.061 12 430.078 12.4214 430.828 13.1716C431.579 13.9217 432 14.9391 432 16C432 17.0609 431.579 18.0783 430.828 18.8284C430.078 19.5786 429.061 20 428 20C426.939 20 425.922 19.5786 425.172 18.8284C424.421 18.0783 424 17.0609 424 16Z" fill="currentColor"/>
  </symbol>

  <symbol id="icons.show" viewBox="309 216 32 32">
    <g transform="translate(309 216)">
      <path d="M16 6.66669C20.9053 6.66669 26.8827 9.88935 28.9733 14.5347C29.168 14.972 29.3333 15.4814 29.3333 16C29.3333 16.5174 29.1693 17.028 28.9733 17.4654C26.8813 22.1107 20.904 25.3334 16 25.3334C11.0947 25.3334 5.11733 22.1107 3.02667 17.4654C2.832 17.0267 2.66667 16.5187 2.66667 16C2.66667 15.4827 2.83067 14.972 3.02667 14.5347C5.11867 9.88935 11.096 6.66669 16 6.66669ZM16 10.6667C14.5855 10.6667 13.229 11.2286 12.2288 12.2288C11.2286 13.229 10.6667 14.5855 10.6667 16C10.6667 17.4145 11.2286 18.7711 12.2288 19.7713C13.229 20.7715 14.5855 21.3334 16 21.3334C17.4145 21.3334 18.771 20.7715 19.7712 19.7713C20.7714 18.7711 21.3333 17.4145 21.3333 16C21.3333 14.5855 20.7714 13.229 19.7712 12.2288C18.771 11.2286 17.4145 10.6667 16 10.6667ZM16 13.3334C16.7072 13.3334 17.3855 13.6143 17.8856 14.1144C18.3857 14.6145 18.6667 15.2928 18.6667 16C18.6667 16.7073 18.3857 17.3855 17.8856 17.8856C17.3855 18.3857 16.7072 18.6667 16 18.6667C15.2928 18.6667 14.6145 18.3857 14.1144 17.8856C13.6143 17.3855 13.3333 16.7073 13.3333 16C13.3333 15.2928 13.6143 14.6145 14.1144 14.1144C14.6145 13.6143 15.2928 13.3334 16 13.3334Z" fill="currentColor"/>
    </g>
  </symbol>

  <symbol id="icons.special" viewBox="206 324 32 32">
    <path d="M222 327C229.18 327 235 332.82 235 340C235 347.18 229.18 353 222 353C214.82 353 209 347.18 209 340C209 332.82 214.82 327 222 327ZM222 330.5C221.798 330.5 221.6 330.553 221.425 330.652C221.25 330.752 221.104 330.895 221.003 331.067L218.422 335.453L213.41 336.528C213.213 336.571 213.03 336.664 212.88 336.798C212.73 336.932 212.619 337.102 212.557 337.292C212.494 337.482 212.483 337.685 212.524 337.881C212.566 338.076 212.659 338.258 212.794 338.407L216.211 342.191L215.693 347.242C215.673 347.441 215.706 347.642 215.788 347.824C215.871 348.007 216 348.165 216.163 348.282C216.326 348.4 216.518 348.472 216.719 348.493C216.919 348.514 217.123 348.484 217.308 348.403L222 346.355L226.693 348.403C226.878 348.484 227.081 348.514 227.281 348.493C227.482 348.472 227.674 348.4 227.837 348.282C228 348.165 228.13 348.007 228.213 347.824C228.295 347.642 228.328 347.441 228.308 347.242L227.79 342.191L231.207 338.406C231.341 338.257 231.434 338.075 231.476 337.88C231.517 337.685 231.506 337.482 231.443 337.292C231.381 337.102 231.27 336.932 231.12 336.798C230.97 336.664 230.788 336.571 230.591 336.528L225.578 335.453L222.998 331.067C222.896 330.895 222.75 330.752 222.575 330.652C222.4 330.553 222.202 330.5 222 330.5Z" fill="currentColor"/>
  </symbol>

  <symbol id="icons.star" viewBox="103 324 32 32">
    <path d="M117.56 327.824C117.707 327.572 117.917 327.363 118.17 327.218C118.422 327.073 118.709 326.996 119 326.996C119.291 326.996 119.578 327.073 119.83 327.218C120.083 327.363 120.293 327.572 120.44 327.824L124.167 334.221L131.404 335.789C131.689 335.851 131.952 335.987 132.168 336.182C132.384 336.377 132.545 336.626 132.635 336.903C132.725 337.18 132.741 337.476 132.681 337.761C132.621 338.046 132.487 338.311 132.293 338.528L127.36 344.049L128.107 351.416C128.136 351.706 128.089 351.999 127.97 352.265C127.851 352.531 127.664 352.761 127.428 352.933C127.192 353.104 126.916 353.211 126.626 353.242C126.336 353.273 126.043 353.227 125.776 353.109L119 350.123L112.224 353.109C111.957 353.227 111.664 353.273 111.374 353.242C111.084 353.211 110.808 353.104 110.572 352.933C110.336 352.761 110.149 352.531 110.03 352.265C109.911 351.999 109.864 351.706 109.893 351.416L110.64 344.049L105.707 338.529C105.512 338.312 105.378 338.048 105.318 337.762C105.258 337.477 105.274 337.181 105.364 336.904C105.454 336.626 105.615 336.378 105.831 336.182C106.047 335.986 106.311 335.851 106.596 335.789L113.833 334.221L117.56 327.824Z" fill="currentColor"/>
  </symbol>

  <symbol id="icons.stock" viewBox="309 324 32 32">
    <path d="M336.651 332.828C338.24 332.828 339.034 334.748 337.912 335.871L328.078 345.705C327.714 346.069 327.22 346.274 326.705 346.274C326.19 346.274 325.696 346.069 325.332 345.705L320.463 340.836L314.222 347.077C313.891 347.408 313.442 347.595 312.973 347.595C312.505 347.595 312.056 347.409 311.725 347.078C311.393 346.747 311.207 346.298 311.207 345.829C311.207 345.361 311.393 344.912 311.724 344.581L319.089 337.215C319.27 337.034 319.484 336.891 319.72 336.794C319.955 336.696 320.208 336.646 320.463 336.646C320.718 336.646 320.971 336.696 321.206 336.794C321.442 336.891 321.656 337.034 321.837 337.215L326.706 342.084L332.43 336.359H331.699C331.23 336.359 330.781 336.173 330.45 335.842C330.119 335.51 329.933 335.061 329.933 334.593C329.933 334.125 330.119 333.676 330.45 333.345C330.781 333.014 331.23 332.828 331.699 332.828H336.651Z" fill="currentColor"/>
  </symbol>

  <symbol id="icons.subtract" viewBox="412 108 32 32">
    <path fill-rule="evenodd" clip-rule="evenodd" d="M415.333 124C415.333 123.47 415.544 122.961 415.919 122.586C416.294 122.211 416.803 122 417.333 122H438.667C439.197 122 439.706 122.211 440.081 122.586C440.456 122.961 440.667 123.47 440.667 124C440.667 124.53 440.456 125.039 440.081 125.414C439.706 125.789 439.197 126 438.667 126H417.333C416.803 126 416.294 125.789 415.919 125.414C415.544 125.039 415.333 124.53 415.333 124Z" fill="currentColor"/>
  </symbol>
  
  <!-- T -->

  <symbol id="icons.time" viewBox="0 108 32 32">
    <path d="M16 110.667C23.364 110.667 29.3334 116.636 29.3334 124C29.3334 131.364 23.364 137.333 16 137.333C8.63602 137.333 2.66669 131.364 2.66669 124C2.66669 116.636 8.63602 110.667 16 110.667ZM16 116C15.6464 116 15.3073 116.14 15.0572 116.391C14.8072 116.641 14.6667 116.98 14.6667 117.333V124C14.6668 124.354 14.8073 124.693 15.0574 124.943L19.0574 128.943C19.3088 129.186 19.6456 129.32 19.9952 129.317C20.3448 129.314 20.6792 129.174 20.9264 128.926C21.1737 128.679 21.3139 128.345 21.3169 127.995C21.32 127.646 21.1856 127.309 20.9427 127.057L17.3334 123.448V117.333C17.3334 116.98 17.1929 116.641 16.9428 116.391C16.6928 116.14 16.3536 116 16 116Z" fill="currentColor"/>
  </symbol>

  <!-- U -->

  <symbol id="icons.up" viewBox="515 0 32 32">
    <path fill-rule="evenodd" clip-rule="evenodd" d="M529.587 10.5867C529.962 10.2121 530.47 10.0018 531 10.0018C531.53 10.0018 532.038 10.2121 532.413 10.5867L539.957 18.128C540.143 18.3138 540.29 18.5343 540.391 18.777C540.491 19.0197 540.543 19.2798 540.543 19.5425C540.543 19.8051 540.491 20.0652 540.39 20.3079C540.29 20.5505 540.142 20.771 539.957 20.9567C539.771 21.1424 539.55 21.2896 539.308 21.3901C539.065 21.4906 538.805 21.5422 538.542 21.5422C538.28 21.5421 538.019 21.4903 537.777 21.3897C537.534 21.2892 537.314 21.1418 537.128 20.956L531 14.8293L524.872 20.9573C524.688 21.1484 524.467 21.3009 524.223 21.4058C523.979 21.5108 523.717 21.5661 523.451 21.5685C523.186 21.5709 522.922 21.5205 522.676 21.42C522.43 21.3196 522.207 21.1712 522.019 20.9835C521.831 20.7958 521.683 20.5725 521.582 20.3268C521.481 20.0811 521.431 19.8177 521.433 19.5522C521.435 19.2866 521.49 19.0241 521.595 18.7801C521.699 18.536 521.852 18.3153 522.043 18.1307L529.587 10.5867Z" fill="currentColor"/>
  </symbol>

  <!-- V -->

  <symbol id="icons.voice" viewBox="0 324 32 32">
    <path d="M16.5 327.833C16.9972 327.833 17.4765 328.019 17.8446 328.353C18.2126 328.687 18.4429 329.146 18.4907 329.641L18.5 329.833V351.167C18.4997 351.68 18.3019 352.174 17.9475 352.546C17.593 352.918 17.1091 353.139 16.5961 353.163C16.0831 353.188 15.5802 353.014 15.1917 352.678C14.8032 352.342 14.5589 351.87 14.5093 351.359L14.5 351.167V329.833C14.5 329.303 14.7107 328.794 15.0858 328.419C15.4609 328.044 15.9696 327.833 16.5 327.833ZM11.1667 331.833C11.6971 331.833 12.2058 332.044 12.5809 332.419C12.9559 332.794 13.1667 333.303 13.1667 333.833V347.167C13.1667 347.697 12.9559 348.206 12.5809 348.581C12.2058 348.956 11.6971 349.167 11.1667 349.167C10.6362 349.167 10.1275 348.956 9.75245 348.581C9.37738 348.206 9.16666 347.697 9.16666 347.167V333.833C9.16666 333.303 9.37738 332.794 9.75245 332.419C10.1275 332.044 10.6362 331.833 11.1667 331.833ZM21.8333 331.833C22.3638 331.833 22.8725 332.044 23.2475 332.419C23.6226 332.794 23.8333 333.303 23.8333 333.833V347.167C23.8333 347.697 23.6226 348.206 23.2475 348.581C22.8725 348.956 22.3638 349.167 21.8333 349.167C21.3029 349.167 20.7942 348.956 20.4191 348.581C20.044 348.206 19.8333 347.697 19.8333 347.167V333.833C19.8333 333.303 20.044 332.794 20.4191 332.419C20.7942 332.044 21.3029 331.833 21.8333 331.833ZM5.83333 335.833C6.36376 335.833 6.87247 336.044 7.24754 336.419C7.62261 336.794 7.83333 337.303 7.83333 337.833V343.167C7.83333 343.697 7.62261 344.206 7.24754 344.581C6.87247 344.956 6.36376 345.167 5.83333 345.167C5.3029 345.167 4.79419 344.956 4.41911 344.581C4.04404 344.206 3.83333 343.697 3.83333 343.167V337.833C3.83333 337.303 4.04404 336.794 4.41911 336.419C4.79419 336.044 5.3029 335.833 5.83333 335.833ZM27.1667 335.833C27.6638 335.833 28.1432 336.019 28.5112 336.353C28.8793 336.687 29.1096 337.146 29.1573 337.641L29.1667 337.833V343.167C29.1664 343.68 28.9686 344.174 28.6141 344.546C28.2597 344.918 27.7758 345.139 27.2628 345.163C26.7497 345.188 26.2469 345.014 25.8584 344.678C25.4699 344.342 25.2256 343.87 25.176 343.359L25.1667 343.167V337.833C25.1667 337.303 25.3774 336.794 25.7524 336.419C26.1275 336.044 26.6362 335.833 27.1667 335.833Z" fill="currentColor"/>
  </symbol>

  <symbol id="icons.volume" viewBox="206 0 32 32">
    <path d="M223.68 4.40001C223.889 4.25073 224.133 4.15881 224.388 4.13342C224.643 4.10803 224.901 4.15006 225.135 4.25532C225.369 4.36057 225.571 4.52537 225.722 4.73325C225.872 4.94114 225.965 5.18484 225.992 5.44001L226 5.59201V26.408C226 26.6646 225.933 26.9167 225.805 27.1392C225.677 27.3617 225.493 27.5467 225.272 27.6758C225.05 27.805 224.798 27.8737 224.542 27.8751C224.285 27.8766 224.032 27.8107 223.809 27.684L223.681 27.6013L214.907 21.3333H211.333C210.661 21.3336 210.013 21.0795 209.519 20.622C209.026 20.1646 208.724 19.5376 208.673 18.8667L208.667 18.6667V13.3333C208.666 12.6606 208.921 12.0126 209.378 11.5193C209.835 11.026 210.462 10.7238 211.133 10.6733L211.333 10.6667H214.907L223.68 4.40001ZM232.223 9.04401C233.202 9.91862 233.986 10.9905 234.522 12.1893C235.058 13.3881 235.335 14.6868 235.333 16C235.335 17.3132 235.058 18.6119 234.522 19.8107C233.986 21.0095 233.202 22.0814 232.223 22.956C232.093 23.0747 231.94 23.1665 231.774 23.2259C231.609 23.2854 231.433 23.3115 231.257 23.3026C231.081 23.2937 230.908 23.25 230.749 23.1741C230.591 23.0982 230.448 22.9915 230.331 22.8603C230.213 22.7291 230.123 22.5759 230.065 22.4095C230.007 22.2432 229.983 22.067 229.993 21.8912C230.004 21.7154 230.049 21.5434 230.126 21.3852C230.204 21.2269 230.312 21.0856 230.444 20.9693C231.144 20.3448 231.704 19.5792 232.087 18.7227C232.47 17.8662 232.668 16.9383 232.667 16C232.667 14.0267 231.811 12.2533 230.444 11.0307C230.312 10.9144 230.204 10.7731 230.126 10.6149C230.049 10.4566 230.004 10.2846 229.993 10.1088C229.983 9.93299 230.007 9.75683 230.065 9.59049C230.123 9.42416 230.213 9.27095 230.331 9.13973C230.448 9.0085 230.591 8.90185 230.749 8.82594C230.908 8.75003 231.081 8.70637 231.257 8.69747C231.433 8.68857 231.609 8.71461 231.774 8.77409C231.94 8.83357 232.093 8.92531 232.223 9.04401ZM229.556 12.0253C230.116 12.525 230.563 13.1373 230.869 13.822C231.176 14.5068 231.334 15.2485 231.333 15.9987C231.334 16.7493 231.176 17.4916 230.87 18.1768C230.564 18.8621 230.116 19.4748 229.556 19.9747C229.303 20.1992 228.974 20.3193 228.636 20.3107C228.298 20.302 227.976 20.1651 227.735 19.9279C227.494 19.6906 227.352 19.3707 227.338 19.0328C227.324 18.6949 227.439 18.3643 227.66 18.108L227.777 17.988C228.324 17.4973 228.667 16.7893 228.667 16C228.668 15.3172 228.407 14.6601 227.936 14.1653L227.777 14.012C227.645 13.8957 227.537 13.7544 227.46 13.5962C227.382 13.438 227.337 13.266 227.326 13.0901C227.316 12.9143 227.34 12.7382 227.398 12.5718C227.456 12.4055 227.547 12.2523 227.664 12.1211C227.782 11.9898 227.924 11.8832 228.083 11.8073C228.242 11.7314 228.414 11.6877 228.59 11.6788C228.766 11.6699 228.942 11.6959 229.108 11.7554C229.273 11.8149 229.426 11.9066 229.556 12.0253Z" fill="currentColor"/>
  </symbol>

  <!-- W -->

  <symbol id="icons.warning" viewBox="103 216 32 32">
    <path d="M119 218.667C126.364 218.667 132.333 224.636 132.333 232C132.333 239.364 126.364 245.333 119 245.333C111.636 245.333 105.667 239.364 105.667 232C105.667 224.636 111.636 218.667 119 218.667ZM119 236C118.646 236 118.307 236.14 118.057 236.391C117.807 236.641 117.667 236.98 117.667 237.333C117.667 237.687 117.807 238.026 118.057 238.276C118.307 238.526 118.646 238.667 119 238.667C119.354 238.667 119.693 238.526 119.943 238.276C120.193 238.026 120.333 237.687 120.333 237.333C120.333 236.98 120.193 236.641 119.943 236.391C119.693 236.14 119.354 236 119 236ZM119 224C118.673 224 118.358 224.12 118.114 224.337C117.87 224.554 117.714 224.853 117.676 225.177L117.667 225.333V233.333C117.667 233.673 117.797 234 118.03 234.247C118.264 234.494 118.583 234.643 118.922 234.663C119.261 234.683 119.595 234.572 119.856 234.354C120.116 234.136 120.284 233.827 120.324 233.489L120.333 233.333V225.333C120.333 224.98 120.193 224.641 119.943 224.391C119.693 224.14 119.354 224 119 224Z" fill="currentColor"/>
  </symbol>  

  <!-- X --> 


  <!-- Y -->
  
  
  <!-- Z -->


</svg>